<svg xmlns="http://www.w3.org/2000/svg" width="62" height="72" fill="none" viewBox="0 0 62 72"><path fill="#F9B36B" d="M27.4711 6.14941H27.0203C12.0974 6.14941 0 18.2468 0 33.1697V33.6205C0 48.5434 12.0974 60.6408 27.0203 60.6408H27.4711C42.394 60.6408 54.4914 48.5434 54.4914 33.6205V33.1697C54.4914 18.2468 42.394 6.14941 27.4711 6.14941Z"/><path fill="#000" d="M11.8832 25.7045C12.0872 25.5525 12.2794 25.3862 12.4613 25.2082C12.6782 25.0004 12.8821 24.7809 13.0731 24.5496C13.2355 24.3561 13.381 24.1496 13.5083 23.9313C13.6122 23.7469 13.6239 23.6222 13.542 23.5572C13.4251 23.5144 13.2991 23.5053 13.1783 23.5299C13.0017 23.5481 12.7964 23.5728 12.56 23.604C12.3236 23.6352 12.0729 23.6663 11.8066 23.6949C11.552 23.7261 11.2961 23.7352 11.0389 23.7222C10.8154 23.7131 10.5959 23.6702 10.3868 23.5936C10.2101 23.5338 10.0659 23.4013 9.99319 23.2299C9.95162 23.1298 9.92434 23.0246 9.91135 22.9181C9.89316 22.7765 9.89576 22.6323 9.91914 22.4907C9.94642 22.3154 9.99708 22.1439 10.0685 21.9815C10.1582 21.7802 10.2738 21.5931 10.4154 21.4243C10.6531 21.132 10.9194 20.8631 11.2103 20.6228C11.4974 20.3838 11.8066 20.172 12.1339 19.9915C12.4457 19.8187 12.7756 19.6823 13.1186 19.5836C13.4407 19.4901 13.7758 19.4472 14.111 19.455C14.2786 19.4511 14.4409 19.5122 14.5656 19.6239C14.6618 19.7135 14.7241 19.8343 14.7423 19.9642C14.7579 20.0824 14.7254 20.2019 14.6514 20.2967C14.5578 20.4033 14.415 20.45 14.2773 20.4202C13.9694 20.3942 13.6589 20.4331 13.3667 20.5358C13.064 20.6371 12.7743 20.7748 12.5041 20.9436C12.2443 21.1047 11.9988 21.2866 11.7702 21.4892C11.5754 21.6594 11.3974 21.8477 11.2402 22.053C11.1311 22.1842 11.0532 22.3362 11.0103 22.5011C10.9869 22.6219 11.0389 22.6882 11.1662 22.6986C11.4533 22.7142 11.7403 22.6934 12.0222 22.6375C12.3483 22.5765 12.6782 22.5271 13.0146 22.4869C13.3251 22.4466 13.6395 22.4375 13.9525 22.4596C14.2149 22.4713 14.4643 22.5739 14.6592 22.7518C14.7878 22.883 14.8514 23.0649 14.8358 23.2481C14.8202 23.4767 14.7631 23.7001 14.667 23.9066C14.5513 24.1612 14.4124 24.4055 14.2526 24.6341C14.0798 24.8822 13.9018 25.1186 13.7161 25.3407C13.5446 25.5486 13.3615 25.7486 13.1705 25.9383C13.0315 26.0786 12.8821 26.2085 12.7224 26.3254C12.6587 26.4306 12.5379 26.4864 12.4171 26.4683C12.2846 26.4553 12.1586 26.4059 12.0534 26.3254C11.9482 26.2487 11.8663 26.1461 11.8157 26.0266C11.7663 25.9149 11.7949 25.785 11.8884 25.7058L11.8832 25.7045Z"/><path fill="#000" d="M16.1361 18.6252C15.975 18.6745 15.8022 18.6577 15.6541 18.5784C15.5359 18.5174 15.4463 18.4122 15.4034 18.2861C15.3671 18.1666 15.3839 18.038 15.4502 17.9328C15.5528 17.7925 15.7061 17.7003 15.8776 17.6743C16.0542 17.6159 16.2465 17.6289 16.414 17.7094C16.5323 17.7704 16.6193 17.8796 16.6518 18.0082C16.6764 18.1394 16.644 18.2758 16.5608 18.381C16.4582 18.5174 16.3049 18.6057 16.1361 18.6252ZM15.81 26.0879C15.81 25.3358 15.7983 24.6616 15.7762 24.0641C15.7542 23.4665 15.7295 22.9184 15.7022 22.4195C15.6749 21.922 15.6515 21.4622 15.6334 21.0413C15.6152 20.6204 15.6061 20.2061 15.6061 19.7982C15.5996 19.6774 15.6554 19.5605 15.7568 19.4929C15.8529 19.4267 15.9659 19.3903 16.0828 19.3916C16.1997 19.3916 16.3153 19.4228 16.4153 19.4825C16.5154 19.5384 16.579 19.641 16.5842 19.7553C16.6206 20.2074 16.6505 20.7036 16.6751 21.2427C16.6998 21.7817 16.7271 22.3234 16.7557 22.8664C16.783 23.412 16.8128 23.9394 16.8466 24.4486C16.8804 24.9578 16.9103 25.4176 16.9375 25.8268C16.9622 25.9788 16.9025 26.1321 16.7817 26.2269C16.6673 26.3035 16.5323 26.3451 16.3946 26.3425C16.2569 26.3425 16.1218 26.3178 15.9945 26.2672C15.8698 26.2178 15.8074 26.1567 15.8074 26.084V26.0879H15.81Z"/><path fill="#000" d="M24.4263 25.8914C24.4535 25.2562 24.4535 24.6132 24.4263 23.9624C24.4055 23.3714 24.3483 22.7803 24.2561 22.1958C24.1937 21.7593 24.082 21.332 23.9235 20.9215C23.7871 20.5954 23.6248 20.4409 23.4351 20.4603C23.3169 20.4694 23.1792 20.6071 23.0207 20.8747C22.822 21.2332 22.6609 21.6112 22.5388 22.0022C22.3531 22.5699 22.1959 23.1466 22.0699 23.7312C21.9205 24.4015 21.7958 25.1497 21.6958 25.9733C21.6789 26.0993 21.5919 26.2058 21.471 26.246C21.336 26.3006 21.1879 26.3175 21.0437 26.2941C20.8969 26.2746 20.7579 26.2214 20.6358 26.1382C20.5215 26.0655 20.463 25.9317 20.4864 25.7992C20.5332 25.555 20.5643 25.3069 20.5773 25.0588C20.6007 24.7275 20.6163 24.3664 20.6241 23.9715C20.6319 23.5766 20.6371 23.1674 20.6384 22.7427C20.6384 22.3179 20.6332 21.9269 20.6241 21.5684C20.615 21.2099 20.5994 20.9085 20.5773 20.6643C20.5682 20.5136 20.5488 20.3629 20.5163 20.2161C20.4955 20.1031 20.5475 19.9901 20.6449 19.9316C20.7488 19.8589 20.8709 19.8186 20.9982 19.816C21.1242 19.8108 21.2489 19.8368 21.3619 19.8901C21.4723 19.942 21.5438 20.0538 21.5438 20.1759C21.5529 20.3382 21.5581 20.4876 21.5581 20.624V21.0384C21.5581 21.1787 21.5607 21.3307 21.5646 21.493C21.5685 21.6567 21.575 21.8464 21.5841 22.0633C21.6477 21.8814 21.7205 21.6411 21.801 21.3436C21.8828 21.0423 21.9919 20.7487 22.127 20.4668C22.2582 20.1888 22.4401 19.9368 22.6635 19.7264C22.8986 19.5134 23.2104 19.4056 23.5261 19.4276C23.6754 19.4289 23.8235 19.4601 23.9612 19.5186C24.1249 19.5913 24.2665 19.703 24.3756 19.8446C24.5341 20.0499 24.6614 20.2759 24.7562 20.5162C24.9017 20.8838 25.0134 21.2631 25.0887 21.6515C25.1888 22.1178 25.2797 22.6842 25.3615 23.3493C25.4434 24.0144 25.5161 24.8055 25.5785 25.7199C25.5862 25.8602 25.5161 25.9927 25.3966 26.0668C25.2784 26.1421 25.1433 26.1876 25.003 26.1954C24.8692 26.2058 24.7341 26.185 24.6094 26.1343C24.5003 26.1045 24.425 26.0044 24.425 25.8914H24.4263Z"/><path fill="#000" d="M26.7073 21.3971C26.8164 21.0243 26.9762 20.6671 27.1827 20.3371C27.3931 20.002 27.6724 19.7149 28.0024 19.4954C28.1167 19.4227 28.244 19.372 28.3765 19.346C28.4752 19.3265 28.5778 19.3291 28.6752 19.3525C28.7493 19.3694 28.8181 19.4071 28.8714 19.4603C28.9117 19.4954 28.9324 19.55 28.9259 19.6032C29.2663 19.5941 29.604 19.6669 29.9106 19.815C30.1821 19.9513 30.4159 20.1488 30.5965 20.393C30.7861 20.6567 30.9225 20.9542 30.9978 21.2698C31.0862 21.6361 31.1251 22.0141 31.1135 22.3909C31.1044 22.8585 31.0563 23.3235 30.9706 23.7834C30.8939 24.2133 30.7562 24.629 30.5627 25.02C30.3925 25.3668 30.1496 25.6734 29.8495 25.9163C29.5521 26.1514 29.1832 26.28 28.8038 26.28C28.4934 26.2943 28.1855 26.2216 27.914 26.0696C27.6503 25.915 27.4243 25.7072 27.2477 25.4578C27.0554 25.185 26.9034 24.8849 26.7995 24.568C26.6852 24.2263 26.6047 23.873 26.5618 23.5145C26.5163 23.1521 26.5072 22.787 26.5345 22.422C26.5566 22.0752 26.6137 21.731 26.706 21.3958L26.7073 21.3971ZM28.8272 20.5411C28.535 20.5346 28.2557 20.6645 28.0738 20.8944C27.8673 21.1542 27.7231 21.4595 27.6529 21.7842C27.5646 22.1648 27.5256 22.5545 27.5373 22.9455C27.5425 23.3378 27.5971 23.7288 27.6997 24.1081C27.7828 24.4303 27.9205 24.7355 28.1076 25.0109C28.2401 25.2317 28.4752 25.3681 28.7324 25.3746C28.9831 25.3746 29.2221 25.2668 29.3845 25.0759C29.5806 24.8511 29.73 24.5913 29.8262 24.3082C29.9444 23.9756 30.0262 23.6314 30.0704 23.282C30.1184 22.9351 30.1392 22.5857 30.1314 22.235C30.1444 21.7894 30.0262 21.3504 29.7924 20.9724C29.5638 20.6749 29.2013 20.5125 28.8272 20.5424V20.5411Z"/><path fill="#000" d="M36.1119 21.9466C36.06 21.9466 36.0067 21.9518 35.956 21.9609C35.8885 21.97 35.782 21.9856 35.6365 22.0077C35.491 22.0298 35.2923 22.0635 35.039 22.109C34.9337 22.1337 34.8259 22.0895 34.7662 22.0012C34.7012 21.9063 34.6609 21.7959 34.6506 21.6816C34.6363 21.5634 34.6428 21.4439 34.67 21.3283C34.6791 21.24 34.7298 21.162 34.8064 21.1166L36.0704 20.8724L36.0431 17.8834C36.0171 17.7704 36.0665 17.6522 36.1665 17.5911C36.2639 17.5236 36.3808 17.4885 36.499 17.4898C36.6185 17.4898 36.7341 17.5236 36.8316 17.5911C36.9303 17.6586 36.9835 17.7769 36.9667 17.8964C36.9667 18.0146 36.9693 18.2068 36.9732 18.4744C36.9771 18.742 36.9861 19.0226 37.0004 19.3175C37.0134 19.6123 37.0251 19.8929 37.0342 20.1592C37.0433 20.4268 37.0485 20.6191 37.0485 20.7373L39.0048 20.4385C39.1191 20.432 39.2282 20.4827 39.2971 20.5736C39.3646 20.6645 39.4075 20.7723 39.4192 20.8853C39.4334 20.9958 39.4192 21.1075 39.3776 21.2114C39.3451 21.3023 39.2724 21.3725 39.1814 21.401L37.1031 21.7946C37.1121 22.7819 37.142 23.6223 37.194 24.316C37.2459 25.0096 37.2654 25.5552 37.255 25.954C37.2485 26.0891 37.1667 26.2099 37.0433 26.2658C36.9277 26.3125 36.7991 26.319 36.6796 26.2865C36.5549 26.2554 36.4393 26.1982 36.3405 26.1164C36.2535 26.0592 36.2016 25.9618 36.2054 25.8579C36.1964 25.615 36.1873 25.3227 36.1782 24.9811C36.1691 24.6394 36.16 24.2887 36.1509 23.9276C36.1418 23.5639 36.134 23.2079 36.1314 22.8611C36.1288 22.5143 36.1223 22.209 36.1132 21.9466H36.1119Z"/><path fill="#000" d="M44.4022 22.383C44.1216 23.013 43.7734 23.6092 43.363 24.1626C43.0486 24.5874 42.6862 24.9758 42.2822 25.3174C41.9821 25.5746 41.6444 25.785 41.2807 25.9422C41.0352 26.0552 40.7689 26.115 40.4987 26.1189C40.2402 26.1254 39.9934 26.0098 39.8336 25.8071C39.6751 25.5993 39.566 25.3577 39.5141 25.1005C39.4543 24.8212 39.4283 24.5367 39.4387 24.2509C39.4439 24.008 39.4621 23.7638 39.4933 23.5235C39.3673 23.4689 39.2633 23.3767 39.1945 23.2585C39.1412 23.1546 39.1114 23.0416 39.1036 22.9259C39.0893 22.8402 39.1088 22.7519 39.1581 22.6817C39.2023 22.6285 39.2582 22.5869 39.3205 22.5596C39.3803 22.5337 39.4452 22.5168 39.5102 22.5116C39.5647 22.509 39.6193 22.5025 39.6725 22.4921C39.8362 21.9218 39.9921 21.436 40.1415 21.0359C40.2818 20.6501 40.4766 20.2864 40.7195 19.9552C40.8715 19.7369 41.065 19.5512 41.2898 19.4096C41.4755 19.2927 41.6795 19.2069 41.8938 19.1589C42.0744 19.1173 42.2614 19.1199 42.4394 19.1654C42.5862 19.1991 42.7213 19.2745 42.8265 19.3823C43.0005 19.5758 43.1136 19.8175 43.1525 20.0747C43.1876 20.3345 43.1668 20.5982 43.0902 20.8489C43.0057 21.1255 42.8836 21.3879 42.7265 21.6309C42.5654 21.8868 42.3731 22.1219 42.1562 22.331C42.0328 22.4531 41.9042 22.5687 41.7691 22.6778C41.6288 22.7909 41.4859 22.8974 41.3417 22.9974C41.1975 23.0974 41.0547 23.1883 40.9144 23.2702C40.7741 23.352 40.6442 23.4196 40.5273 23.4741C40.4831 23.6482 40.4519 23.8249 40.4363 24.0041C40.4182 24.1704 40.4143 24.3393 40.422 24.5068C40.4259 24.6367 40.4493 24.7653 40.4909 24.8887C40.526 24.9887 40.5818 25.042 40.6533 25.0511C40.8377 25.0615 41.0209 25.0212 41.1833 24.9355C41.4366 24.8082 41.6665 24.638 41.8626 24.4328C42.1549 24.1353 42.4212 23.8119 42.6576 23.4676C42.9902 22.987 43.2915 22.4856 43.5617 21.9673C43.602 21.8829 43.6851 21.827 43.7786 21.8244C43.8865 21.8114 43.9956 21.8231 44.0982 21.8595C44.2021 21.8945 44.2917 21.9608 44.3567 22.0491C44.4229 22.1479 44.4385 22.2726 44.3996 22.3856L44.4022 22.383ZM40.7065 22.2752C40.8559 22.1972 40.9975 22.1037 41.1274 21.9972C41.3158 21.8504 41.4898 21.6841 41.6444 21.501C41.7353 21.3918 41.8263 21.271 41.9172 21.1372C42.0003 21.0177 42.0718 20.8904 42.1276 20.7553C42.1744 20.6475 42.2004 20.5332 42.203 20.4163C42.2082 20.3215 42.1601 20.2305 42.0796 20.1786C41.9795 20.1058 41.8561 20.15 41.7068 20.3072C41.5392 20.4916 41.3924 20.6943 41.2716 20.9125C41.1326 21.1567 41.0105 21.4113 40.9079 21.6737C40.8247 21.8686 40.7572 22.0699 40.7052 22.2752H40.7065Z"/><path fill="#000" d="M7.33277 30.5756C7.12233 30.6392 6.89501 30.6171 6.70146 30.5132C6.54688 30.4327 6.42867 30.295 6.37151 30.13C6.32475 29.9741 6.34683 29.8053 6.43386 29.6663C6.56766 29.4831 6.7703 29.361 6.99503 29.3272C7.22625 29.2506 7.47825 29.2662 7.69908 29.3714C7.85496 29.4507 7.96797 29.5935 8.01084 29.7637C8.04331 29.9365 8.00175 30.1144 7.89523 30.2534C7.76013 30.4327 7.55749 30.5496 7.33406 30.5743L7.33277 30.5756ZM6.9054 40.3505C6.9054 39.3646 6.89111 38.4812 6.86123 37.6979C6.83136 36.9147 6.79888 36.1963 6.76251 35.5442C6.72744 34.8908 6.69756 34.2894 6.67158 33.7373C6.6456 33.1853 6.63391 32.6423 6.63651 32.1084C6.62741 31.9499 6.70146 31.7979 6.83265 31.7083C6.95866 31.6213 7.10804 31.5745 7.26002 31.5745C7.4146 31.5745 7.56528 31.6174 7.69648 31.6992C7.82638 31.772 7.91082 31.9057 7.91991 32.0551C7.96667 32.6488 8.00824 33.2983 8.04331 34.0049C8.07839 34.7116 8.11476 35.4195 8.15113 36.1327C8.1875 36.8445 8.22517 37.5369 8.26674 38.2072C8.30831 38.8774 8.34598 39.4802 8.38235 40.0141C8.41483 40.2128 8.33559 40.4141 8.17711 40.5388C8.02773 40.6402 7.84976 40.6921 7.6692 40.6895C7.48994 40.6908 7.31068 40.6584 7.14441 40.5908C6.98983 40.5285 6.90929 40.4466 6.90929 40.3466L6.9067 40.3518L6.9054 40.3505Z"/><path fill="#000" d="M14.9527 40.4817C14.9878 39.6516 14.9878 38.8086 14.9527 37.9538C14.9241 37.1783 14.8501 36.4054 14.7293 35.639C14.6474 35.0662 14.5007 34.505 14.2928 33.9659C14.1149 33.5412 13.9031 33.3398 13.6563 33.3606C13.5017 33.3723 13.3199 33.5541 13.1107 33.9062C12.8509 34.3764 12.6392 34.8713 12.4781 35.3844C12.2339 36.13 12.03 36.8887 11.8637 37.6551C11.6689 38.5332 11.5052 39.5126 11.374 40.5934C11.3519 40.7584 11.2376 40.8961 11.0804 40.9506C10.9025 41.0221 10.7089 41.0441 10.5193 41.013C10.3283 40.987 10.1451 40.9168 9.98537 40.8077C9.83598 40.7129 9.75934 40.5375 9.78922 40.3622C9.85027 40.0413 9.88794 39.7179 9.90483 39.3918C9.93471 38.9593 9.95549 38.4838 9.96718 37.9681C9.97887 37.4524 9.98537 36.9146 9.98537 36.3574C9.98537 35.8001 9.97887 35.287 9.96718 34.8181C9.95549 34.3491 9.93471 33.9542 9.90483 33.6347C9.89314 33.4372 9.86586 33.2398 9.82429 33.0462C9.79831 32.8982 9.86586 32.7501 9.99316 32.6721C10.1296 32.5773 10.2906 32.5253 10.4569 32.5215C10.6232 32.515 10.7881 32.5474 10.9375 32.6202C11.083 32.6877 11.1765 32.8332 11.1778 32.9943C11.1895 33.2073 11.196 33.4035 11.1947 33.5827V34.1283C11.1947 34.3102 11.1973 34.5089 11.2038 34.7258C11.2103 34.9415 11.2194 35.1909 11.2311 35.4741C11.3142 35.2363 11.4091 34.922 11.5156 34.5297C11.6234 34.1348 11.7663 33.7503 11.9429 33.3814C12.1144 33.0164 12.3534 32.6877 12.647 32.411C12.9549 32.1318 13.3627 31.9902 13.7771 32.02C13.9733 32.0213 14.1668 32.0603 14.3474 32.1357C14.5617 32.2318 14.7488 32.3786 14.893 32.563C15.0995 32.8319 15.2671 33.1294 15.3905 33.445C15.5814 33.9257 15.7269 34.4232 15.8269 34.9311C15.9568 35.5429 16.0763 36.2846 16.1829 37.1563C16.2894 38.0279 16.3842 39.0632 16.4673 40.2634C16.4777 40.4479 16.3842 40.622 16.227 40.7181C16.0724 40.8168 15.8945 40.8753 15.7113 40.887C15.5347 40.8999 15.358 40.8727 15.1943 40.8064C15.0475 40.7674 14.9475 40.6323 14.9514 40.4817H14.9527Z"/><path fill="#000" d="M20.1057 39.7633C20.372 39.5632 20.624 39.3463 20.8618 39.1138C21.1462 38.8423 21.4125 38.5539 21.6632 38.25C21.8763 37.9967 22.0672 37.7252 22.2335 37.4394C22.3699 37.1965 22.3842 37.0341 22.2777 36.9497C22.127 36.8951 21.9633 36.8821 21.8048 36.9133C21.5736 36.938 21.3034 36.9705 20.9943 37.012C20.6864 37.0536 20.3564 37.0952 20.0057 37.1354C19.6719 37.177 19.3354 37.1887 18.999 37.1718C18.7067 37.1601 18.4184 37.103 18.1443 37.0029C17.9117 36.9237 17.7234 36.7483 17.6273 36.521C17.5727 36.3898 17.5376 36.2534 17.5195 36.1118C17.4961 35.9248 17.4987 35.7364 17.5285 35.5507C17.5649 35.3207 17.6312 35.096 17.7247 34.883C17.8416 34.6206 17.9949 34.3751 18.1793 34.1555C18.4911 33.7723 18.8405 33.4203 19.2198 33.1047C19.5965 32.7903 20.0018 32.5136 20.4305 32.2772C20.8397 32.0512 21.2722 31.8719 21.7204 31.7433C22.1426 31.6212 22.5816 31.5641 23.0207 31.5744C23.2402 31.5705 23.4532 31.6498 23.6169 31.7966C23.7429 31.9135 23.8248 32.0707 23.8494 32.2421C23.8676 32.398 23.8235 32.5565 23.7247 32.6786C23.6026 32.8176 23.4156 32.8786 23.235 32.8384C22.831 32.8046 22.4244 32.8552 22.0425 32.989C21.6463 33.1228 21.267 33.3021 20.9124 33.5229C20.5721 33.736 20.2499 33.9776 19.9499 34.2452C19.694 34.4673 19.4614 34.7154 19.2549 34.9843C19.112 35.1558 19.0094 35.3571 18.9522 35.5727C18.9224 35.7325 18.9912 35.8195 19.1575 35.8312C19.5329 35.852 19.9109 35.8247 20.2798 35.7507C20.7072 35.6741 21.141 35.6078 21.5801 35.5545C21.988 35.5026 22.3985 35.4909 22.8089 35.5195C23.1532 35.5338 23.4805 35.6702 23.7351 35.9027C23.904 36.0741 23.9897 36.3119 23.9676 36.5522C23.9482 36.8509 23.8728 37.1445 23.7455 37.416C23.5935 37.7498 23.4104 38.0681 23.1999 38.3682C22.9739 38.6942 22.7401 39.0034 22.4959 39.2943C22.2686 39.5671 22.0282 39.8295 21.7749 40.0776C21.5918 40.2621 21.3956 40.4323 21.1865 40.5855C21.1021 40.7219 20.9449 40.796 20.7864 40.7726C20.6149 40.7557 20.4513 40.6908 20.3149 40.5855C20.1772 40.4855 20.0707 40.3491 20.0031 40.1933C19.9356 40.0439 19.9758 39.8685 20.1018 39.7633H20.1057Z"/><path fill="#000" d="M25.3758 36.5171C25.2381 36.5898 25.0706 36.5834 24.9394 36.4989C24.8212 36.4054 24.7497 36.2664 24.7432 36.1157C24.7302 35.9131 24.7705 35.7104 24.8588 35.5273C24.9744 35.2805 25.1446 35.0648 25.3577 34.8947C25.3343 34.6933 25.3252 34.492 25.3317 34.2893C25.3356 34.1166 25.3512 33.9438 25.3758 33.7723C25.3901 33.571 25.4681 33.38 25.5993 33.2268C25.698 33.1215 25.8305 33.0514 25.9734 33.0306C26.1072 33.0124 26.2436 33.0345 26.3657 33.093C26.4748 33.1384 26.567 33.2203 26.6242 33.3242C26.7788 33.1943 26.9827 33.0371 27.2386 32.8527C27.4945 32.6682 27.7699 32.4902 28.0673 32.3188C28.3583 32.1499 28.6662 32.0096 28.9844 31.9005C29.2728 31.7979 29.5781 31.7498 29.8833 31.7589C30.2432 31.7524 30.5822 31.9304 30.7822 32.2304C30.9719 32.5409 31.0849 32.8916 31.1122 33.254C31.1473 33.6528 31.1265 34.0542 31.0498 34.4465C30.9914 34.7881 30.9004 35.1233 30.777 35.448C30.5289 36.0248 30.2224 36.573 29.8613 37.0861C29.5053 37.5953 29.1195 38.0811 28.7039 38.5422C28.3453 38.9423 27.9621 39.3203 27.5555 39.6724C27.2776 39.9231 26.9723 40.1413 26.645 40.3219L26.6618 45.788C26.645 45.9621 26.5462 46.1166 26.3955 46.2063C26.2566 46.2829 26.0994 46.3232 25.9409 46.3232C25.7902 46.3258 25.6421 46.2855 25.5135 46.2063C25.4018 46.1478 25.3252 46.0374 25.3083 45.9127L25.3771 36.5184L25.3758 36.5171ZM26.6047 38.689C26.8827 38.5864 27.1373 38.4292 27.3529 38.2253C27.6504 37.9629 27.9271 37.6771 28.1817 37.3705C28.4726 37.0211 28.7415 36.6522 28.9831 36.2664C29.2234 35.891 29.4339 35.4987 29.6144 35.0921C29.769 34.7518 29.8794 34.392 29.9444 34.0243C30.0041 33.7503 29.9769 33.4632 29.8639 33.2047C29.7924 33.0748 29.6287 33.0436 29.3741 33.1137C29.0689 33.2086 28.7779 33.3463 28.5103 33.5229C28.1674 33.7425 27.8426 33.9893 27.54 34.2621C27.2334 34.5322 26.9554 34.8336 26.7125 35.161L26.6047 38.6877V38.689Z"/><path fill="#000" d="M32.8125 31.0458C32.6021 31.1094 32.3748 31.0874 32.1799 30.9834C32.0254 30.9029 31.9071 30.7652 31.85 30.6002C31.8019 30.4444 31.8253 30.2755 31.9123 30.1365C32.0461 29.9533 32.2488 29.8312 32.4735 29.7975C32.7047 29.7208 32.9567 29.7364 33.1776 29.8416C33.3334 29.9209 33.4465 30.0638 33.4893 30.2339C33.5231 30.4067 33.4802 30.5847 33.3737 30.7236C33.2386 30.9029 33.036 31.0185 32.8138 31.0445L32.8125 31.0458ZM32.3852 40.8207C32.3852 39.8348 32.3709 38.9515 32.341 38.1682C32.3111 37.3849 32.2787 36.6665 32.2436 36.0144C32.2072 35.361 32.1773 34.7596 32.1527 34.2075C32.128 33.6555 32.1163 33.1125 32.1176 32.5786C32.1085 32.4201 32.1825 32.2681 32.3137 32.1785C32.4384 32.0902 32.5891 32.0447 32.7411 32.0447C32.8957 32.0447 33.0464 32.0876 33.1776 32.1694C33.3075 32.2422 33.3919 32.376 33.401 32.5253C33.4478 33.119 33.4893 33.7685 33.5257 34.4751C33.5621 35.1805 33.5971 35.8897 33.6322 36.6029C33.6686 37.3147 33.7063 38.0071 33.7478 38.6774C33.7894 39.3476 33.8271 39.9504 33.8634 40.4843C33.8959 40.683 33.8167 40.8844 33.6582 41.0091C33.5088 41.1104 33.3308 41.1623 33.1503 41.1597C32.971 41.161 32.7918 41.1286 32.6255 41.061C32.4683 40.9987 32.3878 40.9168 32.3878 40.8168V40.822L32.3852 40.8207Z"/><path fill="#000" d="M35.8327 40.379C35.808 40.1062 35.782 39.7555 35.7521 39.3294C35.7236 38.902 35.6898 38.4357 35.6534 37.9317C35.6183 37.4264 35.5794 36.9081 35.5378 36.3742C35.4962 35.8403 35.4508 35.3272 35.404 34.8349C35.3572 34.3426 35.3118 33.8944 35.2702 33.4904C35.2286 33.0865 35.1897 32.7669 35.1546 32.5279C35.1442 32.3902 35.2234 32.2616 35.3507 32.207C35.4936 32.1447 35.6495 32.1174 35.8054 32.1265C35.9769 32.133 36.1444 32.1785 36.2951 32.2603C36.4328 32.3252 36.5406 32.4396 36.5978 32.5811L36.7212 34.5582C37.0615 33.9802 37.4746 33.4476 37.95 32.9734C38.4813 32.4331 39.1022 31.9862 39.7842 31.6563C39.8946 31.542 40.0622 31.503 40.2116 31.5575C40.3649 31.6108 40.4986 31.7108 40.5935 31.842C40.6948 31.9771 40.7584 32.1369 40.7753 32.3058C40.7961 32.4668 40.7403 32.6279 40.6247 32.7422C40.3311 32.8851 40.0479 33.0488 39.7777 33.2319C39.4841 33.4294 39.2049 33.6463 38.9412 33.8814C38.6788 34.114 38.432 34.3647 38.202 34.6297C37.9864 34.8778 37.7954 35.1454 37.6331 35.4311C37.4954 35.674 37.3941 35.9338 37.3304 36.2053C37.2525 36.5392 37.2018 36.8782 37.1797 37.2198C37.1498 37.6056 37.1369 38.0512 37.1434 38.5552C37.1498 39.0592 37.1706 39.6373 37.2057 40.2907C37.2174 40.4439 37.1486 40.592 37.0238 40.683C36.9004 40.7674 36.755 40.8142 36.6056 40.8168C36.4458 40.8232 36.286 40.7895 36.1418 40.7193C35.9976 40.6518 35.8859 40.531 35.8301 40.3803L35.8327 40.379Z"/><path fill="#000" d="M45.3542 36.0691C45.149 36.7978 44.897 37.511 44.5982 38.2059C44.3735 38.7424 44.0708 39.2438 43.6993 39.692C43.4109 40.0466 43.0342 40.3207 42.6069 40.4844C42.1717 40.6273 41.7041 40.6403 41.2624 40.5195C40.9455 40.4506 40.6844 40.2259 40.5675 39.9232C40.4298 39.5517 40.3804 39.1516 40.4259 38.758C40.4739 38.2371 40.5804 37.7227 40.7467 37.2265C40.9312 36.651 41.1546 36.0899 41.4144 35.5443C41.6807 34.9844 41.9847 34.4428 42.325 33.9232C42.6328 33.4464 42.9849 32.9983 43.3759 32.5878C43.6889 32.2501 44.0565 31.9682 44.4618 31.75C44.7723 31.572 45.1399 31.5239 45.4854 31.6162C45.8284 31.711 46.1051 31.9656 46.2246 32.302C46.3869 32.8021 46.4701 33.3243 46.4727 33.8491C46.5025 34.5324 46.5168 35.4118 46.5168 36.4887C46.5168 37.5655 46.5636 38.8801 46.6584 40.4324C46.6441 40.5961 46.5506 40.7416 46.409 40.8234C46.2661 40.9065 46.1025 40.9494 45.9375 40.9481C45.7712 40.9494 45.6062 40.913 45.4556 40.8416C45.3192 40.7831 45.2191 40.6636 45.1828 40.5207C45.1945 40.3428 45.2126 40.0908 45.236 39.7647C45.2594 39.4387 45.2802 39.0737 45.2984 38.6723C45.3166 38.2683 45.3334 37.8409 45.3516 37.3902C45.3698 36.9394 45.3698 36.4978 45.3529 36.0678L45.3542 36.0691ZM44.7658 33.1503C44.4644 33.2399 44.1994 33.4244 44.0098 33.6751C43.7162 34.0141 43.4538 34.3804 43.2265 34.7675C42.9628 35.2118 42.7277 35.6729 42.5224 36.147C42.3237 36.5991 42.1509 37.0628 42.0054 37.5357C41.8898 37.902 41.8067 38.2774 41.756 38.658C41.721 38.9723 41.7625 39.1659 41.8807 39.2373C42.0704 39.3581 42.2834 39.3114 42.5172 39.0945C42.7991 38.8243 43.042 38.5164 43.2382 38.1787C43.5019 37.7396 43.737 37.2837 43.9422 36.8134C44.1592 36.3263 44.3488 35.8262 44.5112 35.3183C44.6528 34.8857 44.758 34.4415 44.8229 33.992C44.8879 33.7127 44.8684 33.4205 44.7658 33.1516V33.1503Z"/><path fill="#000" d="M16.201 48.2381L53.7496 44.575C55.6202 44.3931 57.2816 45.7454 57.4621 47.5977L59.1248 64.6379C59.3054 66.489 57.9363 68.1387 56.0657 68.3205L18.5171 71.9837C16.6465 72.1656 14.9851 70.8133 14.8046 68.9609L13.1418 51.9208C12.9613 50.0697 14.3304 48.42 16.201 48.2381Z"/><path fill="#fff" d="M25.0666 63.5075C25.0315 62.6346 24.9575 61.7486 24.8458 60.851C24.7484 60.0392 24.6029 59.2338 24.4093 58.4388C24.2729 57.8452 24.0703 57.2671 23.804 56.719C23.5806 56.2851 23.3377 56.0928 23.0779 56.1396C22.9168 56.1656 22.7427 56.3721 22.5544 56.7579C22.3219 57.2749 22.1426 57.8127 22.0192 58.3661C21.8282 59.1701 21.6788 59.9846 21.5723 60.8043C21.4437 61.7448 21.358 62.7878 21.3151 63.9336C21.306 64.1076 21.1982 64.2622 21.0371 64.3323C20.8566 64.4233 20.6552 64.4635 20.4539 64.4479C20.2513 64.4376 20.0538 64.3791 19.8772 64.2791C19.7122 64.192 19.6161 64.0154 19.6329 63.8296C19.6693 63.488 19.681 63.1438 19.6706 62.8008C19.6641 62.3423 19.6446 61.8422 19.6109 61.2992C19.5771 60.7562 19.5368 60.1912 19.4887 59.604C19.4407 59.0169 19.3887 58.4791 19.3355 57.9881C19.2822 57.497 19.2264 57.084 19.1666 56.7488C19.138 56.5423 19.0913 56.3384 19.0302 56.1383C18.9886 55.985 19.0471 55.8226 19.1757 55.7304C19.3108 55.6187 19.4745 55.5486 19.6485 55.5304C19.8226 55.5083 19.9993 55.5304 20.1629 55.5914C20.3227 55.6499 20.4331 55.7941 20.4487 55.9629C20.4799 56.1864 20.5033 56.3916 20.5189 56.5787L20.5669 57.1489C20.5825 57.3425 20.6007 57.5503 20.628 57.775C20.6552 57.9998 20.6838 58.2596 20.7215 58.5583C20.7877 58.3024 20.8605 57.9634 20.9384 57.5425C21.0177 57.1177 21.1346 56.7021 21.2879 56.2981C21.4359 55.9006 21.6581 55.533 21.9425 55.2173C22.2413 54.8978 22.6583 54.7133 23.0961 54.7068C23.3013 54.6912 23.5078 54.7146 23.7053 54.7783C23.9378 54.8601 24.1469 54.9978 24.3132 55.1796C24.5535 55.4446 24.7562 55.7408 24.9133 56.063C25.155 56.5514 25.3524 57.0619 25.5018 57.5867C25.6914 58.218 25.8811 58.987 26.0694 59.8937C26.2578 60.8004 26.4474 61.8798 26.6397 63.1321C26.6657 63.3243 26.5838 63.5166 26.4267 63.6309C26.2721 63.7491 26.0902 63.8257 25.898 63.853C25.7148 63.8816 25.5265 63.8686 25.3498 63.8127C25.1978 63.7842 25.0835 63.6582 25.0692 63.5049L25.0666 63.5075Z"/><path fill="#fff" d="M27.3243 56.9166C27.4321 56.3905 27.6101 55.8813 27.8556 55.4033C28.1037 54.9175 28.4518 54.4901 28.8779 54.1498C29.026 54.0368 29.1948 53.9523 29.3754 53.9004C29.5092 53.864 29.6495 53.8549 29.7872 53.8757C29.8924 53.89 29.9911 53.9342 30.0704 54.003C30.1301 54.0485 30.1639 54.1186 30.1613 54.194C30.6289 54.1433 31.1018 54.2043 31.5421 54.3706C31.9305 54.5265 32.2773 54.772 32.5527 55.0877C32.8437 55.428 33.0658 55.8229 33.2048 56.2477C33.3685 56.7426 33.4659 57.257 33.4919 57.7779C33.5335 58.4222 33.5218 59.0691 33.4555 59.7121C33.3997 60.3122 33.2594 60.9006 33.0373 61.4605C32.8424 61.958 32.5423 62.4075 32.1578 62.7764C31.7733 63.1323 31.281 63.3492 30.7601 63.3908C30.3341 63.4467 29.9002 63.3817 29.5105 63.2025C29.1312 63.0219 28.7947 62.7608 28.5246 62.44C28.2271 62.0866 27.9855 61.6904 27.8049 61.2657C27.6075 60.8084 27.4568 60.3317 27.3568 59.8433C27.2528 59.3496 27.1983 58.8456 27.1944 58.3403C27.1892 57.8623 27.2321 57.3843 27.3243 56.9153V56.9166ZM30.1444 55.4955C29.7404 55.5189 29.3715 55.732 29.1468 56.0684C28.8922 56.4503 28.7285 56.8868 28.6687 57.3414C28.5908 57.8753 28.5817 58.417 28.6428 58.9535C28.6947 59.4938 28.8155 60.0251 29 60.5343C29.1507 60.9682 29.3754 61.3735 29.6625 61.732C29.869 62.0217 30.2106 62.1853 30.5666 62.1659C30.9121 62.1399 31.2278 61.9619 31.4304 61.68C31.6746 61.3488 31.8513 60.9721 31.95 60.5733C32.0747 60.1018 32.1474 59.6198 32.1695 59.1327C32.1968 58.6495 32.1838 58.1663 32.1332 57.6856C32.0994 57.0712 31.8876 56.4802 31.5226 55.9853C31.1758 55.5982 30.6562 55.4137 30.1431 55.4955H30.1444Z"/><path fill="#fff" d="M46.1052 56.9154C45.7908 57.8143 45.3803 58.6768 44.8776 59.4861C44.4931 60.107 44.0385 60.6824 43.5228 61.2007C43.1396 61.5891 42.7005 61.9178 42.2186 62.1763C41.8938 62.3594 41.534 62.4725 41.1625 62.5088C40.8066 62.5465 40.4546 62.4153 40.2104 62.1542C39.9687 61.8853 39.7908 61.5658 39.6895 61.2189C39.5764 60.8422 39.5089 60.4525 39.4894 60.0589C39.4686 59.7238 39.466 59.3874 39.4803 59.0509C39.3024 58.9899 39.1478 58.8743 39.0387 58.721C38.9529 58.5846 38.8945 58.4326 38.8698 58.2728C38.8399 58.1572 38.8568 58.0338 38.9166 57.9299C38.9711 57.8519 39.0426 57.787 39.127 57.7428C39.2062 57.6987 39.2933 57.6688 39.3829 57.6545C39.4582 57.6441 39.5323 57.6285 39.605 57.6077C39.7635 56.8037 39.9233 56.1152 40.0831 55.5436C40.2324 54.9968 40.4585 54.4733 40.7546 53.99C40.9404 53.6744 41.1859 53.399 41.4782 53.1782C41.7198 52.995 41.9926 52.8534 42.2822 52.7625C42.5239 52.6859 42.7798 52.6677 43.0292 52.7092C43.2357 52.7391 43.4293 52.8275 43.5877 52.9638C43.8501 53.2107 44.0333 53.5302 44.1164 53.8796C44.1944 54.233 44.1957 54.5993 44.1203 54.9526C44.0385 55.3423 43.9021 55.7177 43.715 56.0697C43.5228 56.4399 43.2851 56.7855 43.0097 57.0985C42.8551 57.2817 42.6901 57.4558 42.5161 57.6207C42.3355 57.7922 42.151 57.9559 41.964 58.1091C41.7756 58.2624 41.5899 58.4027 41.4054 58.5313C41.221 58.6599 41.0521 58.7677 40.8949 58.8548C40.8521 59.099 40.8287 59.3471 40.8248 59.5952C40.8196 59.8264 40.8326 60.0589 40.8637 60.2889C40.8845 60.4668 40.9313 60.6409 41.0001 60.8046C41.0612 60.9384 41.143 61.0059 41.243 61.0111C41.4977 61.0046 41.7458 60.928 41.9601 60.7916C42.2926 60.5863 42.5888 60.3265 42.8343 60.0226C43.2032 59.5796 43.5319 59.1042 43.8177 58.6028C44.2203 57.9026 44.5789 57.1765 44.8906 56.4309C44.9361 56.31 45.0452 56.2256 45.1738 56.21C45.3206 56.1788 45.4726 56.1827 45.6167 56.2204C45.7622 56.2581 45.8947 56.3386 45.9935 56.4516C46.1026 56.5789 46.1428 56.7517 46.1013 56.9154H46.1052ZM41.0053 57.1895C41.2028 57.0648 41.3859 56.9206 41.5535 56.7569C41.7964 56.5322 42.0159 56.2841 42.2082 56.0152C42.3199 55.8554 42.4303 55.6787 42.5394 55.4878C42.6408 55.315 42.7239 55.1306 42.7863 54.9396C42.8382 54.7863 42.8603 54.6253 42.8512 54.4655C42.846 54.3343 42.7707 54.2148 42.6551 54.1524C42.5096 54.0641 42.3433 54.1368 42.1549 54.3719C41.9445 54.6447 41.7678 54.9409 41.6263 55.254C41.46 55.606 41.321 55.971 41.208 56.3438C41.117 56.6192 41.0495 56.9024 41.0053 57.1882V57.1895Z"/><path fill="#fff" d="M49.7046 61.0187C49.967 60.7862 50.2139 60.5355 50.4425 60.2705C50.7166 59.9601 50.9712 59.634 51.2063 59.2924C51.4076 59.0079 51.5843 58.7065 51.7337 58.3909C51.8545 58.1233 51.8571 57.9505 51.7376 57.8726C51.5739 57.8284 51.4011 57.8297 51.2388 57.8765C50.9984 57.9219 50.7179 57.9791 50.3957 58.0505C50.0736 58.122 49.7319 58.1934 49.3695 58.2675C49.0227 58.3402 48.6694 58.3818 48.3147 58.3922C48.0069 58.4052 47.699 58.3714 47.4015 58.2896C47.1495 58.2259 46.9378 58.0583 46.817 57.8297C46.7494 57.6972 46.7001 57.5556 46.6689 57.4088C46.6273 57.2153 46.6143 57.0166 46.6286 56.8191C46.6468 56.5749 46.6962 56.3333 46.7767 56.1008C46.8767 55.8137 47.0144 55.5422 47.1898 55.2941C47.4847 54.8641 47.8198 54.464 48.1926 54.1003C48.5602 53.7379 48.9616 53.4106 49.3916 53.1248C49.8008 52.852 50.2411 52.626 50.701 52.4519C51.1335 52.2869 51.5895 52.1882 52.0519 52.1609C52.2831 52.1375 52.5131 52.2025 52.6975 52.3428C52.8404 52.4545 52.9404 52.6117 52.9794 52.7883C53.0132 52.9507 52.9794 53.1196 52.8872 53.2573C52.7716 53.4132 52.5793 53.495 52.3871 53.469C51.9597 53.469 51.5375 53.5573 51.1478 53.7314C50.7425 53.9055 50.3593 54.1263 50.006 54.39C49.667 54.6433 49.35 54.9239 49.059 55.2304C48.8096 55.4876 48.5875 55.7669 48.394 56.0683C48.2589 56.2605 48.1679 56.4801 48.1277 56.7113C48.1095 56.8828 48.1887 56.9672 48.3641 56.9646C48.7603 56.9529 49.1539 56.8906 49.5358 56.7814C49.9774 56.6632 50.4269 56.5567 50.8841 56.4619C51.3076 56.371 51.7389 56.3229 52.1727 56.3177C52.5352 56.3034 52.8924 56.4164 53.1781 56.6398C53.3704 56.8061 53.4795 57.0477 53.4782 57.3023C53.4834 57.618 53.4289 57.9323 53.3197 58.2285C53.1911 58.5922 53.0275 58.9443 52.8326 59.2768C52.6248 59.6392 52.4053 59.9847 52.1753 60.3108C51.9454 60.6368 51.7155 60.933 51.4856 61.1967C51.3102 61.4058 51.1192 61.602 50.9127 61.7813C50.8374 61.9332 50.6776 62.0242 50.5087 62.0125C50.3269 62.0099 50.1502 61.9566 49.9969 61.8579C49.8436 61.7644 49.7189 61.6319 49.6358 61.4734C49.5527 61.3227 49.5812 61.1344 49.7046 61.0148V61.0187Z"/><path fill="#000" d="M29.9053 28.1881L20.1343 28.3297C19.8641 28.3336 19.6472 28.4816 19.6498 28.6622C19.6524 28.8428 19.8732 28.9843 20.1434 28.9805L29.9144 28.8389C30.1846 28.835 30.4003 28.6856 30.399 28.5063C30.3964 28.3271 30.1755 28.1842 29.9053 28.1881Z"/><path fill="#000" d="M33.5803 2.07839L33.4309 2.04721L33.857 0L35.2261 0.285778L35.1975 0.420874L33.9778 0.166271L33.579 2.07968L33.5803 2.07839ZM33.779 1.03659L34.8871 1.26781L34.8585 1.40291L33.7505 1.17169L33.779 1.03659Z"/><path fill="#000" d="M35.217 2.44589L35.5989 0.933866L35.7444 0.970238L35.3625 2.48226L35.217 2.44589ZM35.7652 0.584437C35.7327 0.576643 35.7068 0.55716 35.6899 0.528582C35.673 0.500004 35.6678 0.470127 35.6756 0.438951C35.6834 0.406476 35.7029 0.380496 35.7314 0.363609C35.76 0.346722 35.7912 0.341526 35.8237 0.350619C35.8587 0.359712 35.8847 0.377897 35.9003 0.405176C35.9172 0.432455 35.9211 0.463632 35.9133 0.496107C35.9055 0.528582 35.8873 0.55456 35.8587 0.571447C35.8302 0.589633 35.799 0.59353 35.7639 0.584437H35.7652Z"/><path fill="#000" d="M35.973 2.64482L36.5693 0.509277L36.7134 0.549546L36.1172 2.68509L35.973 2.64482Z"/><path fill="#000" d="M37.2916 3.05412C37.15 3.00735 37.033 2.93461 36.9434 2.83459C36.8538 2.73457 36.794 2.61636 36.7655 2.48126C36.7369 2.34617 36.746 2.20588 36.794 2.06039C36.8421 1.9123 36.9174 1.7928 37.0188 1.70187C37.1201 1.61094 37.237 1.54989 37.3695 1.52261C37.5007 1.49403 37.6384 1.50312 37.78 1.54989C37.9216 1.59665 38.0385 1.66939 38.1294 1.77071C38.2203 1.87204 38.2801 1.98894 38.3074 2.12274C38.3346 2.25654 38.3255 2.39683 38.2775 2.54491C38.2294 2.6904 38.1554 2.80991 38.0541 2.90214C37.9527 2.99436 37.8358 3.05542 37.7033 3.084C37.5708 3.11257 37.4331 3.10348 37.2916 3.05672V3.05412ZM37.3331 2.92682C37.4474 2.96319 37.5578 2.97098 37.6657 2.9489C37.7735 2.92682 37.8683 2.87616 37.9501 2.79822C38.032 2.72028 38.093 2.61896 38.1333 2.49685C38.1736 2.37215 38.184 2.25394 38.1632 2.14352C38.1424 2.03311 38.0956 1.93699 38.0216 1.85515C37.9475 1.77331 37.854 1.71486 37.7397 1.67719C37.6254 1.64082 37.5163 1.63302 37.4085 1.6564C37.3019 1.67978 37.2071 1.72915 37.124 1.80579C37.0408 1.88243 36.9798 1.98375 36.9395 2.10845C36.8993 2.23186 36.8902 2.34877 36.9109 2.46048C36.9317 2.57219 36.9798 2.66832 37.0525 2.75015C37.1253 2.83199 37.2188 2.89045 37.3331 2.92812V2.92682Z"/><path fill="#000" d="M38.823 3.59544C38.7022 3.54867 38.5957 3.48762 38.5048 3.41228C38.4138 3.33694 38.3489 3.2603 38.3125 3.18495L38.419 3.09792C38.4567 3.16807 38.5151 3.23691 38.5944 3.30706C38.6736 3.3772 38.7684 3.43306 38.8763 3.47463C39.0282 3.53308 39.1478 3.54997 39.2348 3.52529C39.3205 3.50061 39.3803 3.44735 39.4114 3.36551C39.4348 3.30576 39.4348 3.2525 39.414 3.20444C39.3933 3.15638 39.3569 3.11221 39.3062 3.07194C39.2556 3.03167 39.1984 2.9914 39.1335 2.95373C39.0698 2.91476 39.0062 2.87579 38.9425 2.83423C38.8789 2.79266 38.8243 2.74719 38.7775 2.69783C38.7308 2.64717 38.6996 2.59131 38.684 2.52896C38.6684 2.46661 38.6762 2.39387 38.7074 2.31203C38.736 2.23799 38.7814 2.17824 38.8451 2.13407C38.9087 2.0899 38.988 2.06652 39.0841 2.06132C39.1802 2.05613 39.2893 2.07691 39.4114 2.12498C39.5024 2.16005 39.5894 2.20811 39.6712 2.26916C39.7531 2.33022 39.8154 2.39387 39.8557 2.45882L39.7492 2.54585C39.7063 2.4757 39.6492 2.41595 39.5816 2.36659C39.5141 2.31723 39.44 2.27696 39.3621 2.24708C39.2205 2.19252 39.1075 2.17953 39.0205 2.20551C38.9334 2.23149 38.8763 2.28475 38.8464 2.36269C38.823 2.42374 38.8217 2.4796 38.8412 2.52896C38.862 2.57832 38.897 2.62379 38.9477 2.66536C38.9984 2.70692 39.0555 2.74719 39.1192 2.78616C39.1828 2.82513 39.2465 2.8641 39.3101 2.90567C39.3738 2.94724 39.4283 2.9927 39.4751 3.04077C39.5219 3.09013 39.5543 3.14469 39.5699 3.20574C39.5855 3.26679 39.579 3.33694 39.5478 3.41617C39.5167 3.49671 39.4686 3.55776 39.4024 3.60063C39.3361 3.6435 39.253 3.66558 39.1555 3.66558C39.0568 3.66558 38.9451 3.6422 38.8204 3.59544H38.823Z"/><path fill="#000" d="M40.3311 4.21934C40.1947 4.15829 40.0869 4.07385 40.0076 3.96474C39.9284 3.85562 39.8816 3.73222 39.8673 3.59583C39.853 3.45813 39.8764 3.32044 39.9388 3.18015C40.0024 3.03856 40.0882 2.92684 40.1999 2.84631C40.3103 2.76577 40.4337 2.71901 40.5675 2.70342C40.7013 2.68783 40.8364 2.71121 40.9728 2.77226C41.1092 2.83332 41.217 2.91775 41.2975 3.02817C41.3781 3.13858 41.4248 3.26068 41.4378 3.39578C41.4521 3.53217 41.4274 3.66987 41.3638 3.81276C41.3014 3.95305 41.2157 4.06346 41.1053 4.1453C40.9949 4.22714 40.8728 4.2752 40.7377 4.28949C40.6026 4.30378 40.4675 4.28039 40.3311 4.21934ZM40.3856 4.09594C40.4947 4.144 40.6039 4.16348 40.7143 4.15179C40.8234 4.1401 40.9234 4.09983 41.013 4.03099C41.1027 3.96214 41.1741 3.86861 41.2261 3.74911C41.2793 3.6296 41.3014 3.51269 41.2923 3.40098C41.2832 3.28926 41.2456 3.18924 41.1806 3.09961C41.1157 3.01128 41.0286 2.94243 40.9195 2.89307C40.8104 2.84501 40.7013 2.82552 40.5922 2.83721C40.4831 2.8489 40.3843 2.88917 40.2934 2.95672C40.2025 3.02427 40.131 3.1191 40.0778 3.2386C40.0258 3.35681 40.0037 3.47242 40.0128 3.58543C40.0219 3.69845 40.0596 3.79977 40.1232 3.8881C40.1869 3.97643 40.2739 4.04528 40.383 4.09334L40.3856 4.09594Z"/><path fill="#000" d="M41.4807 4.74375L42.2835 3.1343C42.3406 3.01869 42.4212 2.94205 42.5225 2.90438C42.6251 2.86671 42.7381 2.8797 42.8628 2.94205C42.9148 2.96803 42.9616 3.0005 43.0044 3.04077C43.0473 3.08104 43.0759 3.12391 43.0941 3.17067L42.9901 3.24601C42.9772 3.20574 42.9538 3.17067 42.9226 3.13949C42.8914 3.10832 42.855 3.08234 42.8122 3.06026C42.7264 3.01739 42.6498 3.0083 42.5823 3.03428C42.5147 3.06026 42.4576 3.11871 42.4108 3.21094L42.2939 3.44606L42.264 3.51101L41.6158 4.81L41.482 4.74375H41.4807ZM41.8626 3.33564L41.9198 3.22133L42.7537 3.63701L42.6966 3.75132L41.8626 3.33564Z"/><path fill="#000" d="M42.3251 5.17664L43.0603 3.801L43.1915 3.87115L42.4563 5.24678L42.3251 5.17664ZM43.0954 3.53211L43.628 3.4165L43.8176 3.51783L43.2383 3.60746L43.0954 3.53082V3.53211Z"/><path fill="#000" d="M43.3669 5.76901C43.2669 5.71055 43.1902 5.6443 43.1357 5.56896C43.0811 5.49492 43.0526 5.41698 43.0474 5.33515C43.0435 5.25461 43.0629 5.17537 43.1071 5.10003C43.1474 5.03118 43.1993 4.97792 43.2643 4.94155C43.3292 4.90388 43.4085 4.88959 43.5033 4.89738C43.5981 4.90518 43.7072 4.94545 43.8307 5.01819L44.3256 5.30787L44.2671 5.40789L43.7748 5.11951C43.6358 5.03768 43.5228 5.0065 43.4371 5.02469C43.3513 5.04287 43.2851 5.09094 43.2396 5.16887C43.1889 5.25461 43.1812 5.34294 43.2162 5.43257C43.2513 5.5222 43.3279 5.60144 43.4462 5.67158C43.5592 5.73783 43.6709 5.76901 43.7787 5.76251C43.8865 5.75732 43.9891 5.71575 44.084 5.64041L44.0684 5.74952C43.9748 5.82616 43.8683 5.86773 43.7475 5.87423C43.6267 5.88072 43.4994 5.84435 43.3656 5.76641L43.3669 5.76901ZM43.8579 6.0431L44.0372 5.73653L44.0593 5.68717L44.3554 5.18186C44.4295 5.05586 44.4516 4.94155 44.4217 4.83633C44.3918 4.73111 44.3126 4.64018 44.1814 4.56354C44.0891 4.50899 43.993 4.47391 43.8943 4.45962C43.7956 4.44534 43.7033 4.44534 43.6176 4.46222L43.6072 4.33232C43.7098 4.31154 43.8177 4.31154 43.932 4.33362C44.0463 4.35571 44.1541 4.39727 44.258 4.45703C44.4243 4.55445 44.5282 4.67136 44.5685 4.80905C44.6087 4.94675 44.5802 5.09743 44.4814 5.2637L43.9813 6.11714L43.8579 6.04439V6.0431Z"/><path fill="#000" d="M44.801 7.3251L46.0324 5.57666L46.1493 5.6598L45.8558 6.07807L45.6791 6.28591L45.5466 6.52492L44.9218 7.41213L44.7997 7.3264L44.801 7.3251ZM45.7674 7.31211C45.6557 7.23287 45.5726 7.13545 45.518 7.01984C45.4648 6.90423 45.4453 6.77952 45.4609 6.64443C45.4765 6.51063 45.531 6.37684 45.6245 6.24304C45.7181 6.10925 45.8259 6.01312 45.9467 5.95337C46.0675 5.89361 46.1922 5.87023 46.3195 5.88062C46.4468 5.89231 46.5663 5.93778 46.6793 6.01702C46.8001 6.10145 46.8885 6.20537 46.9456 6.32618C47.0028 6.44828 47.0236 6.57688 47.0093 6.71328C46.995 6.84967 46.943 6.98087 46.8534 7.10817C46.7638 7.23547 46.6572 7.3277 46.5338 7.38745C46.4104 7.44721 46.2818 7.47059 46.148 7.4576C46.0142 7.44461 45.8869 7.39655 45.7661 7.31211H45.7674ZM45.8376 7.1965C45.935 7.26535 46.0389 7.30432 46.1493 7.31471C46.2585 7.3251 46.365 7.30562 46.4676 7.25496C46.5702 7.2056 46.6585 7.12765 46.7326 7.02114C46.8079 6.91332 46.8521 6.80421 46.8638 6.69119C46.8755 6.57948 46.8586 6.47296 46.8118 6.37294C46.7651 6.27292 46.6923 6.18849 46.5949 6.11964C46.4975 6.05079 46.3935 6.01182 46.2844 6.00143C46.1753 5.99234 46.0701 6.01182 45.9688 6.05988C45.8675 6.10924 45.7791 6.18718 45.7025 6.295C45.6284 6.40022 45.5843 6.51063 45.5713 6.62364C45.5583 6.73666 45.5752 6.84318 45.6206 6.9419C45.6661 7.04062 45.7389 7.12506 45.8363 7.1939L45.8376 7.1965Z"/><path fill="#000" d="M47.0768 8.29028C46.9859 8.21883 46.9196 8.14219 46.8768 8.06035C46.8339 7.97852 46.8157 7.89798 46.8222 7.81615C46.8287 7.73561 46.8599 7.66027 46.9144 7.59142C46.9638 7.52907 47.0236 7.4836 47.0924 7.45632C47.1612 7.42904 47.2418 7.42515 47.3353 7.44723C47.4288 7.46931 47.5302 7.52387 47.6419 7.6135L48.0913 7.97073L48.0186 8.06165L47.5717 7.70703C47.4457 7.607 47.3379 7.55894 47.2509 7.56544C47.1638 7.57193 47.0911 7.6096 47.0352 7.67975C46.9729 7.75769 46.9534 7.84342 46.9755 7.93695C46.9976 8.03048 47.0625 8.12011 47.1703 8.20584C47.273 8.28768 47.3782 8.33314 47.4873 8.34354C47.5951 8.35263 47.7016 8.32665 47.8068 8.2656L47.7757 8.37081C47.6717 8.43317 47.56 8.46044 47.4405 8.45005C47.321 8.43966 47.1989 8.3864 47.0781 8.28898L47.0768 8.29028ZM47.5237 8.63061L47.7445 8.35263L47.7731 8.30716L48.1381 7.84862C48.229 7.73431 48.2667 7.6239 48.2524 7.51608C48.2381 7.40826 48.1719 7.30694 48.0523 7.21211C47.9679 7.14456 47.8783 7.0978 47.7835 7.06793C47.6873 7.03935 47.5964 7.02636 47.5094 7.03155L47.5185 6.90035C47.6224 6.89386 47.7302 6.90945 47.8393 6.94842C47.9497 6.98609 48.051 7.04195 48.1446 7.11729C48.2953 7.23809 48.381 7.36799 48.4018 7.50958C48.4226 7.64987 48.3719 7.79666 48.2524 7.94734L47.6367 8.72154L47.525 8.63191L47.5237 8.63061Z"/><path fill="#000" d="M48.0952 9.1126L49.1201 7.93701L49.2279 8.03184L48.9474 8.35399L48.9681 8.30852C49.0838 8.24227 49.2033 8.21889 49.3254 8.23578C49.4475 8.25267 49.5683 8.31242 49.6852 8.41504L49.5891 8.52545C49.5891 8.52545 49.58 8.51766 49.5761 8.51246C49.5722 8.50727 49.5683 8.50337 49.5631 8.49947C49.4332 8.38516 49.2942 8.3371 49.15 8.35529C49.0045 8.37347 48.8694 8.45401 48.7421 8.5995L48.2082 9.21132L48.0952 9.1126Z"/><path fill="#000" d="M49.1643 10.0907C49.0799 10.0115 49.0201 9.92833 48.9851 9.8439C48.9487 9.75946 48.9383 9.67633 48.9526 9.59709C48.9669 9.51655 49.0032 9.44511 49.0643 9.38146C49.1189 9.323 49.1825 9.28403 49.2539 9.26195C49.3254 9.23987 49.4059 9.24377 49.4969 9.27364C49.5865 9.30352 49.6839 9.36717 49.7878 9.46589L50.2035 9.86079L50.123 9.94522L49.7086 9.55293C49.5917 9.44251 49.4891 9.38535 49.4007 9.38405C49.3124 9.38405 49.2384 9.41523 49.176 9.48018C49.1072 9.55293 49.0799 9.63606 49.0942 9.73219C49.1085 9.82701 49.1643 9.92314 49.2643 10.0167C49.3592 10.1076 49.4605 10.1622 49.5683 10.1803C49.6748 10.1998 49.7839 10.1829 49.8931 10.131L49.8541 10.2336C49.7463 10.2869 49.6319 10.3037 49.5137 10.283C49.3942 10.2622 49.2786 10.1985 49.1669 10.092L49.1643 10.0907ZM49.58 10.4687L49.8242 10.2102L49.8567 10.1673L50.2594 9.74258C50.3594 9.63736 50.4075 9.52954 50.4023 9.42043C50.3971 9.31131 50.3399 9.20479 50.2295 9.10087C50.1515 9.02683 50.0658 8.97098 49.9736 8.9346C49.8814 8.89823 49.7904 8.87745 49.7034 8.87355L49.7229 8.74365C49.8268 8.74625 49.932 8.77093 50.0385 8.819C50.1451 8.86576 50.2412 8.93071 50.3282 9.01254C50.4685 9.14504 50.5425 9.28273 50.5503 9.42562C50.5581 9.56721 50.4958 9.7088 50.3633 9.8491L49.6826 10.5661L49.5787 10.4674L49.58 10.4687Z"/><path fill="#000" d="M50.6465 11.5609L52.2715 10.0527L52.3728 10.1618L50.7478 11.67L50.6465 11.5609Z"/><path fill="#000" d="M51.4336 12.4548C51.3582 12.3665 51.3076 12.2794 51.2803 12.1911C51.253 12.1028 51.2504 12.0196 51.2725 11.9417C51.2946 11.8637 51.3388 11.7962 51.4063 11.739C51.4661 11.6871 51.5336 11.6546 51.6064 11.6403C51.6791 11.626 51.7596 11.6377 51.8467 11.6767C51.9337 11.7157 52.0233 11.7884 52.1169 11.8975L52.491 12.3327L52.4026 12.408L52.0311 11.9755C51.9259 11.8534 51.8298 11.7871 51.7427 11.7767C51.6557 11.7663 51.5778 11.791 51.5089 11.8495C51.4336 11.9144 51.3972 11.9949 51.4011 12.0911C51.405 12.1872 51.4518 12.2872 51.5414 12.3924C51.6271 12.4925 51.722 12.5574 51.8259 12.5873C51.9298 12.6172 52.0402 12.612 52.1545 12.5717L52.1052 12.6691C51.9921 12.7107 51.8765 12.7159 51.7609 12.6834C51.6453 12.6509 51.5362 12.5756 51.4349 12.4574L51.4336 12.4548ZM51.8077 12.8731L52.0779 12.6418L52.1143 12.6029L52.5585 12.221C52.6689 12.1261 52.7274 12.0248 52.7339 11.9157C52.7404 11.8066 52.6936 11.6949 52.5949 11.5793C52.5247 11.4974 52.4455 11.4338 52.3572 11.387C52.2688 11.3403 52.1818 11.3117 52.0948 11.2987L52.1272 11.1714C52.2312 11.1844 52.3325 11.2207 52.4338 11.2779C52.5351 11.3351 52.6235 11.4104 52.7014 11.5013C52.8274 11.6481 52.8872 11.7923 52.8807 11.9339C52.8742 12.0755 52.7975 12.2106 52.6507 12.3353L51.8999 12.9796L51.8064 12.8705L51.8077 12.8731Z"/><path fill="#000" d="M53.0145 14.4383C52.9326 14.3279 52.9002 14.2214 52.9171 14.1175C52.9339 14.0135 52.9963 13.9226 53.1015 13.8447L54.2966 12.9575L54.3862 13.077L53.2041 13.9551C53.1236 14.0148 53.0768 14.0798 53.0638 14.1525C53.0508 14.224 53.0716 14.298 53.1275 14.3734C53.1859 14.4513 53.2574 14.4994 53.3418 14.5162L53.2951 14.6293C53.2405 14.6202 53.1898 14.5981 53.1418 14.563C53.0937 14.5279 53.0521 14.4864 53.0158 14.4383H53.0145ZM53.7484 13.0068L53.851 12.9302L54.407 13.6784L54.3044 13.755L53.7484 13.0068Z"/><path fill="#000" d="M53.7498 15.4812C53.6666 15.3578 53.6199 15.2279 53.6108 15.0941C53.6017 14.9603 53.6277 14.8304 53.6887 14.707C53.7498 14.5836 53.8433 14.4783 53.9706 14.3926C54.0992 14.3056 54.2317 14.2575 54.3694 14.2484C54.5058 14.2393 54.6344 14.264 54.7565 14.3225C54.8773 14.3809 54.9799 14.4731 55.063 14.5965C55.1462 14.72 55.1929 14.8499 55.202 14.9849C55.2111 15.12 55.1864 15.2486 55.1254 15.372C55.0656 15.4941 54.9708 15.5994 54.8409 15.6864C54.7136 15.7721 54.5811 15.8202 54.4447 15.8306C54.3083 15.841 54.1784 15.8163 54.0563 15.7565C53.9342 15.6968 53.8316 15.6046 53.7485 15.4812H53.7498ZM53.8615 15.4058C53.9277 15.5045 54.0109 15.5786 54.1096 15.6279C54.2083 15.6773 54.3135 15.6955 54.4265 15.6838C54.5396 15.6721 54.6487 15.6305 54.7565 15.5591C54.8656 15.4851 54.9461 15.3993 54.9981 15.2993C55.0501 15.1993 55.0721 15.0954 55.063 14.9849C55.0553 14.8745 55.0176 14.7706 54.9513 14.6719C54.8851 14.5732 54.8019 14.4991 54.7032 14.4511C54.6045 14.403 54.4993 14.3835 54.3876 14.3939C54.2759 14.403 54.1641 14.4446 54.055 14.5186C53.9472 14.5914 53.868 14.6771 53.816 14.7784C53.7641 14.8797 53.742 14.9849 53.7498 15.0941C53.7576 15.2032 53.7939 15.3071 53.8615 15.4058Z"/><path fill="#000" d="M56.766 17.404C56.8283 17.5131 56.8595 17.6197 56.8634 17.7249C56.866 17.8301 56.8374 17.9288 56.7777 18.0223C56.7179 18.1159 56.6244 18.199 56.4971 18.2705L55.7034 18.7186L55.6294 18.5887L56.4127 18.1458C56.5646 18.06 56.6608 17.9561 56.6984 17.8366C56.7361 17.7171 56.7166 17.5898 56.6413 17.4573C56.5828 17.3547 56.5114 17.2793 56.4257 17.2287C56.3399 17.178 56.2477 17.1559 56.1464 17.1598C56.0463 17.1637 55.9411 17.1975 55.832 17.2585L55.1085 17.6677L55.0344 17.5378L55.8177 17.0949C55.9697 17.0091 56.0658 16.9052 56.1035 16.7857C56.1412 16.6662 56.1217 16.5389 56.0463 16.4064C55.9879 16.3038 55.9164 16.2284 55.832 16.1778C55.7463 16.1271 55.6541 16.105 55.5527 16.1089C55.4527 16.1128 55.3475 16.1466 55.2384 16.2077L54.5148 16.6168L54.4408 16.4869L55.7982 15.7192L55.8684 15.8439L55.4943 16.0557L55.5255 16.0141C55.6541 15.9946 55.7749 16.0141 55.8892 16.0726C56.0035 16.131 56.0983 16.2271 56.1723 16.3583C56.249 16.4934 56.2789 16.6272 56.2633 16.7584C56.2477 16.8896 56.1788 17.0065 56.0567 17.1066L56.0502 17.052C56.1866 17.0221 56.3204 17.0377 56.449 17.0975C56.5776 17.1572 56.6828 17.2598 56.7647 17.4027L56.766 17.404Z"/><path fill="#000" d="M56.1164 19.6432C56.0671 19.538 56.0424 19.4405 56.0398 19.3483C56.0372 19.2561 56.0567 19.1755 56.0995 19.1054C56.1424 19.0365 56.2022 18.9833 56.2827 18.9456C56.3554 18.9118 56.4282 18.8976 56.5022 18.9041C56.5763 18.9105 56.6503 18.943 56.723 19.0041C56.7958 19.0638 56.8633 19.16 56.9244 19.2899L57.1673 19.8094L57.0621 19.8588L56.8205 19.3418C56.7516 19.195 56.6776 19.1054 56.5957 19.0729C56.5139 19.0391 56.4334 19.0417 56.3515 19.0794C56.2619 19.121 56.2047 19.1898 56.1827 19.2834C56.1606 19.3769 56.1788 19.486 56.2372 19.6107C56.2931 19.7302 56.3671 19.8172 56.4594 19.8744C56.5516 19.9316 56.6594 19.9549 56.7802 19.9471L56.7062 20.0277C56.5853 20.0381 56.4736 20.0121 56.371 19.9484C56.2684 19.8861 56.184 19.7835 56.1177 19.6432H56.1164ZM56.3645 20.1472L56.6867 19.9965L56.7334 19.9679L57.2634 19.7198C57.3946 19.6588 57.4791 19.5756 57.5141 19.473C57.5492 19.3691 57.5349 19.2496 57.4713 19.1119C57.4258 19.0145 57.3673 18.9313 57.2946 18.8638C57.2219 18.7949 57.1452 18.7443 57.066 18.7092L57.1322 18.5962C57.2284 18.6365 57.3167 18.6988 57.3985 18.7819C57.4804 18.8651 57.5466 18.9599 57.5973 19.069C57.6791 19.2444 57.6973 19.399 57.6531 19.5341C57.609 19.6692 57.4985 19.7783 57.3232 19.8588L56.4269 20.2771L56.3658 20.1472H56.3645Z"/><path fill="#000" d="M57.1543 22.1063C57.1036 21.9699 57.0893 21.8361 57.1127 21.7036C57.1348 21.5711 57.1907 21.4529 57.279 21.3477C57.3673 21.2425 57.4855 21.1632 57.631 21.11C57.7791 21.0554 57.9194 21.0398 58.0545 21.0619C58.1896 21.084 58.3078 21.1386 58.4104 21.2256C58.513 21.3113 58.5897 21.423 58.6403 21.5594C58.6884 21.688 58.7014 21.8153 58.6793 21.9413C58.6572 22.0673 58.6027 22.1804 58.5156 22.2817C58.4273 22.383 58.3065 22.4622 58.1506 22.5194C57.9986 22.5752 57.8571 22.5934 57.722 22.5752C57.5882 22.5571 57.4713 22.5064 57.3738 22.4246C57.2764 22.3427 57.2024 22.2362 57.1543 22.1063ZM57.2842 22.0686C57.3258 22.1804 57.3881 22.2713 57.4726 22.3414C57.557 22.4116 57.6544 22.4544 57.7674 22.4713C57.8804 22.4882 57.9973 22.4739 58.1182 22.4298C58.2416 22.3843 58.3403 22.3193 58.413 22.2336C58.4871 22.1479 58.5325 22.0518 58.5507 21.9439C58.5689 21.8361 58.5585 21.7257 58.5169 21.614C58.4754 21.5023 58.413 21.4114 58.3286 21.3412C58.2442 21.2711 58.1467 21.2282 58.035 21.21C57.9233 21.1931 57.8064 21.2074 57.683 21.2529C57.5622 21.297 57.4635 21.3633 57.3894 21.449C57.3154 21.5348 57.2686 21.6322 57.2491 21.74C57.2309 21.8478 57.2413 21.9582 57.2829 22.0699L57.2842 22.0686ZM57.3868 22.7025L57.8662 22.5259L58.1311 22.457L58.3754 22.3349L59.4652 21.9322L59.5172 22.0725L57.4375 22.8389L57.3868 22.7012V22.7025Z"/><path fill="#000" d="M57.8013 24.0338C57.7558 23.8831 57.748 23.7403 57.7779 23.6052C57.8078 23.4701 57.8701 23.3532 57.965 23.2518C58.0598 23.1518 58.1806 23.0791 58.3274 23.0349C58.4768 22.9894 58.6171 22.9816 58.7483 23.0089C58.8807 23.0362 58.9951 23.0947 59.0925 23.1843C59.1899 23.2739 59.2601 23.3856 59.3003 23.5207C59.3406 23.6558 59.3458 23.787 59.3159 23.9143C59.286 24.0416 59.2224 24.152 59.1276 24.2482C59.0327 24.3443 58.9106 24.4144 58.7625 24.4599C58.7573 24.4612 58.7509 24.4625 58.7431 24.4638C58.7366 24.4638 58.7288 24.4664 58.721 24.469L58.3235 23.1505L58.4352 23.1167L58.8093 24.3586L58.7379 24.3183C58.8548 24.2845 58.9522 24.2287 59.0288 24.1507C59.1055 24.0728 59.1574 23.9819 59.1847 23.8805C59.2107 23.7792 59.2081 23.6714 59.173 23.5597C59.1393 23.4493 59.0834 23.3584 59.0054 23.2869C58.9262 23.2155 58.834 23.17 58.7262 23.1479C58.6184 23.1258 58.5053 23.1336 58.3871 23.1687L58.3612 23.1765C58.239 23.2129 58.139 23.2726 58.0611 23.3558C57.9831 23.4389 57.9325 23.535 57.9091 23.6467C57.8857 23.7584 57.8922 23.8741 57.9286 23.9962C57.9572 24.091 58.0013 24.1754 58.0611 24.2482C58.1208 24.3209 58.1936 24.3755 58.2819 24.4105L58.2131 24.5223C58.113 24.482 58.0286 24.4183 57.9572 24.3326C57.8857 24.2469 57.8338 24.1468 57.8 24.0325L57.8013 24.0338Z"/><path fill="#000" d="M58.4235 26.4552C58.3937 26.3123 58.3988 26.1785 58.4404 26.0499C58.482 25.9226 58.5534 25.8122 58.656 25.7212C58.7587 25.6303 58.886 25.5679 59.0379 25.5368C59.1912 25.5043 59.3341 25.5082 59.464 25.5498C59.5939 25.5913 59.703 25.6628 59.7927 25.7628C59.8823 25.8628 59.942 25.9836 59.9719 26.1265C60.0005 26.2616 59.9953 26.3889 59.955 26.5097C59.9161 26.6305 59.8446 26.7357 59.7433 26.8228C59.642 26.9098 59.5108 26.9709 59.3484 27.0059C59.1912 27.0397 59.047 27.0371 58.9158 26.9994C58.7859 26.9618 58.6781 26.8955 58.5924 26.8007C58.5067 26.7059 58.4495 26.5903 58.4209 26.4539L58.4235 26.4552ZM58.5573 26.4357C58.582 26.5526 58.6314 26.6513 58.7041 26.7331C58.7769 26.815 58.8678 26.8708 58.9769 26.9046C59.086 26.9371 59.2029 26.941 59.3302 26.9137C59.4588 26.8864 59.5653 26.8358 59.6511 26.7617C59.7368 26.6877 59.7953 26.5993 59.8303 26.4954C59.8654 26.3915 59.8693 26.2811 59.8446 26.1642C59.8199 26.0473 59.7706 25.9486 59.6978 25.8667C59.6251 25.7849 59.5342 25.7277 59.4263 25.6952C59.3185 25.6628 59.2003 25.6589 59.0717 25.6862C58.9444 25.7134 58.8392 25.7641 58.7522 25.8381C58.6664 25.9122 58.6067 26.0018 58.5716 26.1057C58.5378 26.2096 58.5326 26.3201 58.5573 26.437V26.4357ZM58.5677 27.0774L59.0678 26.9722L59.3393 26.9423L59.5991 26.8565L60.7357 26.6162L60.7669 26.763L58.5976 27.2229L58.5677 27.08V27.0774Z"/><path fill="#000" d="M58.7859 28.4558C58.7625 28.2999 58.7755 28.1583 58.8249 28.0284C58.8743 27.8998 58.9522 27.792 59.06 27.7063C59.1678 27.6206 59.2977 27.566 59.4497 27.5439C59.603 27.5205 59.7433 27.5322 59.8706 27.579C59.9979 27.6258 60.1031 27.6998 60.1862 27.8024C60.2694 27.905 60.3226 28.0258 60.3434 28.1661C60.3642 28.3064 60.3512 28.4363 60.3019 28.5571C60.2538 28.6779 60.1758 28.7793 60.068 28.8611C59.9602 28.9429 59.8303 28.9949 59.6757 29.0183C59.6705 29.0183 59.6628 29.0196 59.6563 29.0196C59.6498 29.0196 59.642 29.0196 59.6342 29.0209L59.4302 27.6582L59.5458 27.6413L59.7381 28.9234L59.6731 28.8728C59.7939 28.8572 59.8979 28.8156 59.9849 28.7494C60.0732 28.6831 60.1369 28.6013 60.1785 28.5039C60.2187 28.4077 60.2304 28.3012 60.2135 28.1843C60.1966 28.07 60.1538 27.9726 60.0862 27.8907C60.0187 27.8089 59.9329 27.7505 59.8303 27.7128C59.7277 27.6764 59.6147 27.6673 59.4926 27.6855L59.4653 27.6894C59.3393 27.7089 59.2315 27.7531 59.1432 27.8245C59.0535 27.8946 58.9899 27.9843 58.9509 28.0908C58.9119 28.1973 58.9015 28.3142 58.9197 28.4402C58.934 28.5389 58.9665 28.6286 59.0146 28.7091C59.0626 28.7897 59.1276 28.8533 59.2094 28.9014L59.125 29.0014C59.0327 28.9468 58.9574 28.8715 58.8989 28.7767C58.8418 28.6818 58.8041 28.5753 58.7859 28.4571V28.4558Z"/><path fill="#000" d="M58.9951 30.1962C58.9808 30.0455 59.0016 29.9078 59.0574 29.7831C59.1133 29.6584 59.1977 29.5571 59.3107 29.4765C59.4238 29.3973 59.5563 29.3492 59.7082 29.3349C59.8628 29.3206 60.0031 29.3414 60.1291 29.3986C60.2551 29.4557 60.3564 29.5402 60.4344 29.6519C60.5123 29.7636 60.5578 29.8948 60.5721 30.0455C60.5837 30.1702 60.5721 30.2858 60.5331 30.3923C60.4954 30.4988 60.4318 30.5885 60.3421 30.6612L60.2512 30.5586C60.3253 30.4949 60.3772 30.4209 60.4071 30.3338C60.437 30.2468 60.4474 30.1546 60.4383 30.0585C60.4266 29.9377 60.3889 29.8311 60.3253 29.7402C60.2616 29.6493 60.1785 29.5817 60.0746 29.5363C59.9719 29.4908 59.8537 29.4752 59.7238 29.4869C59.5939 29.4986 59.4809 29.5376 59.3887 29.6012C59.2965 29.6649 59.2263 29.748 59.1808 29.8493C59.1354 29.9506 59.1185 30.0624 59.1302 30.1832C59.1393 30.2806 59.1666 30.3689 59.212 30.4482C59.2575 30.5274 59.3224 30.591 59.4069 30.6391L59.3367 30.7573C59.2354 30.7028 59.1562 30.6274 59.099 30.53C59.0419 30.4326 59.0068 30.3209 58.9951 30.1962Z"/><path fill="#000" d="M59.0834 31.2033L60.6409 31.1137L60.65 31.263L59.0925 31.3527L59.0834 31.2033ZM61.0241 31.1656C61.0215 31.1318 61.0319 31.102 61.0552 31.0773C61.0773 31.0526 61.1046 31.0383 61.1371 31.037C61.1709 31.0344 61.2007 31.0448 61.2254 31.0682C61.2501 31.0903 61.2644 31.1188 61.2657 31.1526C61.2683 31.189 61.2579 31.2189 61.2371 31.2423C61.215 31.2669 61.1877 31.2799 61.154 31.2812C61.1202 31.2838 61.0903 31.2734 61.0656 31.2513C61.041 31.2293 61.0267 31.2007 61.0254 31.1656H61.0241Z"/><path fill="#000" d="M59.121 32.3748C59.1171 32.2449 59.134 32.1241 59.1691 32.0111C59.2042 31.8981 59.2496 31.8097 59.3055 31.7461L59.4263 31.8123C59.3756 31.8734 59.3341 31.9539 59.299 32.0553C59.2652 32.1553 59.2496 32.2631 59.2522 32.3787C59.2561 32.5424 59.286 32.6593 59.3419 32.7294C59.3977 32.7996 59.4692 32.8333 59.5562 32.832C59.6198 32.8307 59.6692 32.8113 59.7056 32.7723C59.742 32.7333 59.7679 32.684 59.7874 32.6229C59.8056 32.5606 59.8199 32.493 59.8316 32.419C59.842 32.3449 59.855 32.2709 59.8693 32.1968C59.8835 32.1228 59.9043 32.054 59.9329 31.9916C59.9615 31.9292 60.0017 31.8786 60.0537 31.8409C60.1057 31.8032 60.1745 31.7825 60.2628 31.7799C60.3421 31.7773 60.4148 31.7981 60.4798 31.8396C60.5447 31.8812 60.598 31.9461 60.6383 32.0332C60.6785 32.1202 60.7019 32.2293 60.7045 32.3605C60.7071 32.4579 60.6954 32.5567 60.6707 32.6554C60.6447 32.7541 60.611 32.8359 60.5668 32.8983L60.446 32.832C60.4941 32.7645 60.5278 32.6905 60.5486 32.6086C60.5681 32.5268 60.5772 32.4437 60.5746 32.3592C60.5707 32.2072 60.5395 32.0981 60.4824 32.028C60.4252 31.9591 60.3538 31.9254 60.2706 31.9267C60.2044 31.928 60.1537 31.9474 60.1148 31.9864C60.0771 32.0241 60.0485 32.0747 60.029 32.1371C60.0095 32.1994 59.994 32.267 59.9836 32.341C59.9732 32.4151 59.9602 32.4891 59.9459 32.5632C59.9316 32.6372 59.9108 32.706 59.8835 32.7684C59.8563 32.8308 59.8173 32.8814 59.7679 32.9191C59.7186 32.9568 59.6497 32.9775 59.5653 32.9801C59.4796 32.9827 59.4042 32.9607 59.3393 32.9152C59.2743 32.8697 59.2224 32.8022 59.1847 32.7112C59.147 32.6203 59.1262 32.5086 59.1223 32.3748H59.121Z"/><path fill="#000" d="M59.1418 33.4076H60.7019V33.5583H59.1418V33.4076ZM61.0812 33.4842C61.0812 33.4505 61.0929 33.4219 61.1176 33.3972C61.141 33.3738 61.1696 33.3608 61.2008 33.3608C61.2345 33.3608 61.2631 33.3725 61.2878 33.3972C61.3112 33.4206 61.3242 33.4505 61.3242 33.4842C61.3242 33.5206 61.3125 33.5492 61.2904 33.5726C61.267 33.596 61.2384 33.6063 61.2046 33.6063C61.1709 33.6063 61.1423 33.5947 61.1176 33.5726C61.0942 33.5492 61.0812 33.5206 61.0812 33.4842Z"/><path fill="#000" d="M59.1094 34.7924C59.1146 34.643 59.1535 34.5118 59.225 34.3975C59.2964 34.2832 59.3938 34.1949 59.5159 34.1299C59.6381 34.065 59.7758 34.0364 59.929 34.0416C60.0849 34.0468 60.22 34.0858 60.3356 34.1598C60.4512 34.2326 60.5409 34.3287 60.6045 34.4469C60.6682 34.5651 60.6967 34.7002 60.6915 34.8496C60.6863 34.999 60.6474 35.1315 60.5759 35.2458C60.5045 35.3614 60.4084 35.4497 60.2863 35.5134C60.1655 35.577 60.0278 35.6056 59.8719 35.6004C59.7186 35.5952 59.5835 35.5562 59.4666 35.4848C59.3497 35.4134 59.2588 35.3172 59.1964 35.1977C59.1328 35.0782 59.1042 34.9431 59.1094 34.7937V34.7924ZM59.2432 34.7976C59.2393 34.9171 59.2626 35.025 59.3133 35.1224C59.364 35.2198 59.4393 35.2977 59.5367 35.3549C59.6342 35.4121 59.7472 35.4432 59.8771 35.4471C60.0083 35.4523 60.1239 35.4289 60.2252 35.3783C60.3252 35.3276 60.4045 35.2562 60.4629 35.1626C60.5214 35.0691 60.5525 34.9626 60.5564 34.8431C60.5603 34.7236 60.537 34.6158 60.4863 34.5196C60.4356 34.4235 60.3616 34.3456 60.2642 34.2871C60.168 34.2287 60.0537 34.1975 59.9225 34.1923C59.7926 34.1871 59.6783 34.2105 59.5757 34.2624C59.4744 34.3131 59.3938 34.3858 59.3367 34.4781C59.2782 34.5703 59.2471 34.6768 59.2432 34.7963V34.7976Z"/><path fill="#000" d="M60.5538 36.929C60.5421 37.0563 60.507 37.1641 60.4499 37.2537C60.3927 37.3434 60.3122 37.4096 60.2083 37.4525C60.1056 37.4954 59.9809 37.5096 59.8367 37.4967L58.9301 37.4096L58.9443 37.2615L59.8393 37.3473C60.0134 37.3642 60.1511 37.333 60.2511 37.2524C60.3511 37.1732 60.4083 37.0537 60.4239 36.8952C60.4356 36.7744 60.4213 36.6666 60.3797 36.5731C60.3382 36.4795 60.2758 36.4042 60.1914 36.3496C60.1069 36.2951 60.0017 36.2613 59.877 36.2496L59.0496 36.1704L59.0638 36.021L60.6161 36.1691L60.6019 36.312L60.1706 36.2704L60.22 36.2535C60.3382 36.3133 60.4278 36.4003 60.4875 36.5159C60.5473 36.6315 60.5694 36.7692 60.5551 36.9277L60.5538 36.929Z"/><path fill="#000" d="M58.7417 38.627C58.7664 38.4711 58.8209 38.3399 58.9067 38.2308C58.9924 38.1217 59.0989 38.0438 59.2275 37.9931C59.3561 37.9438 59.4964 37.9308 59.6484 37.9541C59.8017 37.9775 59.9316 38.0308 60.0394 38.1139C60.1459 38.1958 60.2251 38.2984 60.2745 38.4218C60.3239 38.5439 60.3382 38.6751 60.3161 38.8154C60.294 38.9557 60.242 39.0752 60.1602 39.1765C60.0784 39.2778 59.9731 39.3506 59.8458 39.396C59.7185 39.4415 59.5782 39.4532 59.425 39.4285C59.4185 39.4285 59.4133 39.4259 59.4055 39.4233C59.399 39.4207 59.3912 39.4194 59.3834 39.4181L59.5951 38.0568L59.7107 38.075L59.5107 39.3558L59.4639 39.2882C59.5834 39.309 59.6952 39.3012 59.7991 39.2635C59.903 39.2259 59.9887 39.1674 60.0563 39.0869C60.1238 39.0063 60.1667 38.9089 60.1849 38.792C60.2031 38.6777 60.1914 38.5712 60.1511 38.4737C60.1108 38.3763 60.0472 38.2932 59.9601 38.2282C59.8731 38.162 59.7679 38.1191 59.6458 38.1009L59.6198 38.097C59.4938 38.0775 59.3782 38.0879 59.2717 38.1295C59.1652 38.1698 59.0781 38.236 59.008 38.3257C58.9378 38.4153 58.8937 38.5231 58.8742 38.6491C58.8586 38.7478 58.8625 38.8427 58.8846 38.9336C58.9067 39.0245 58.9495 39.1051 59.0132 39.1765L58.9028 39.2466C58.83 39.1674 58.7807 39.0726 58.7547 38.9648C58.7287 38.8569 58.7235 38.7439 58.743 38.6257L58.7417 38.627Z"/><path fill="#000" d="M58.465 40.1375C58.491 40.0102 58.5352 39.8959 58.5949 39.7932C58.6547 39.6906 58.7196 39.6153 58.7885 39.5659L58.8911 39.6581C58.8287 39.7062 58.769 39.7751 58.7118 39.8647C58.656 39.9543 58.6157 40.0556 58.5923 40.1687C58.5586 40.3284 58.5611 40.4492 58.5988 40.5298C58.6365 40.6103 58.6988 40.661 58.7846 40.6779C58.8469 40.6908 58.9002 40.6831 58.9431 40.6545C58.9859 40.6259 59.0249 40.583 59.0561 40.5272C59.0885 40.4713 59.1184 40.4077 59.1457 40.3388C59.173 40.2687 59.2029 40.1998 59.2327 40.131C59.2639 40.0621 59.3003 39.9998 59.3418 39.9465C59.3834 39.892 59.4341 39.853 59.4938 39.827C59.5536 39.801 59.625 39.7984 59.7108 39.8153C59.7887 39.8309 59.8549 39.8673 59.9082 39.9231C59.9615 39.979 59.9978 40.0543 60.0186 40.1479C60.0394 40.2414 60.0355 40.3531 60.0082 40.4817C59.9887 40.5778 59.955 40.6701 59.9069 40.761C59.8588 40.8519 59.8069 40.9234 59.7497 40.974L59.6471 40.8818C59.7095 40.8272 59.7588 40.7623 59.7978 40.6869C59.8355 40.6116 59.8627 40.5324 59.8809 40.4505C59.9121 40.3024 59.9069 40.1881 59.8666 40.1076C59.8264 40.0271 59.7653 39.9777 59.6835 39.9608C59.6185 39.9478 59.564 39.9543 59.5185 39.9829C59.473 40.0115 59.4341 40.053 59.4003 40.1089C59.3678 40.1648 59.3367 40.2284 59.3094 40.2973C59.2821 40.3661 59.2522 40.4362 59.2223 40.5051C59.1912 40.5739 59.1561 40.6363 59.1145 40.6908C59.073 40.7454 59.0249 40.7857 58.9677 40.8117C58.9106 40.8376 58.8404 40.8415 58.756 40.8246C58.6716 40.8078 58.604 40.7688 58.5508 40.7103C58.4975 40.6519 58.4637 40.5739 58.4468 40.4765C58.43 40.3791 58.4364 40.2661 58.4624 40.1349L58.465 40.1375Z"/></svg>