<?xml version="1.0" encoding="UTF-8"?><svg id="Capa_1" xmlns="http://www.w3.org/2000/svg" xmlns:xlink="http://www.w3.org/1999/xlink" viewBox="0 0 808.94 850.8"><defs><style>.cls-1{fill:#888586;}.cls-2{fill:#373334;}.cls-3{fill:#ddd;}.cls-4{fill:#cbcaca;}.cls-5{fill:#e9e9e9;}.cls-6{fill:#f0f0f0;}.cls-7{fill:#c7c6c6;}.cls-8{fill:#8d8a8b;}.cls-9{fill:#f4f4f4;}.cls-10{fill:#fff;}.cls-11{fill:#242021;}.cls-12{fill:#2b2728;}.cls-13{fill:#433f40;}.cls-14{fill:#6e6b6c;}.cls-15{fill:#b4b3b3;}.cls-16{fill:#bebdbd;}.cls-17{fill:#fafafa;}.cls-18{fill:#585556;}.cls-19{fill:#797677;}.cls-20{fill:#dbdbdb;}.cls-21{fill:#a6a5a5;}.cls-22{fill:#696667;}.cls-23{fill:#4c494a;}.cls-24{fill:#838081;}.cls-25{fill:#cecdcd;}.cls-26{fill:#383435;}.cls-27{fill:#423e3f;}.cls-28{fill:#f6f6f6;}.cls-29{fill:#6a6768;}.cls-30{opacity:.5;}.cls-31{fill:#aaa9a9;}.cls-32{fill:#9b9a9a;}.cls-33{fill:#686566;}.cls-34{fill:#656263;}.cls-35{fill:#d7d6d6;}.cls-36{fill:#403c3d;}.cls-37{fill:#989797;}.cls-38{fill:#535051;}.cls-39{fill:#e2e2e2;}.cls-40{fill:#f5f5f5;}.cls-41{fill:#969595;}.cls-42{fill:#8e8b8c;}.cls-43{fill:#858283;}.cls-44{fill:#3c3839;}.cls-45{fill:#c5c4c4;}.cls-46{fill:#cccbcb;}.cls-47{fill:#2c2829;}.cls-48{fill:#d0cfcf;}.cls-49{fill:#282425;}.cls-50{fill:#b1b0b0;}.cls-51{fill:#767374;}.cls-52{fill:#6c696a;}.cls-53{fill:#322e2f;}.cls-54{fill:#c8c7c7;}.cls-55{fill:#636061;}.cls-56{fill:#d2d1d1;}.cls-57{fill:#b2b1b1;}.cls-58{fill:#8f8c8d;}.cls-59{fill:#4e4b4c;}.cls-60{fill:#6d6a6b;}.cls-61{fill:#8a8788;}.cls-62{fill:#2e2a2b;}.cls-63{fill:#afaeae;}.cls-64{fill:#b7b6b6;}.cls-65{fill:#a8a7a7;}.cls-66{fill:#e0e0e0;}.cls-67{fill:#5b5859;}.cls-68{fill:#545152;}.cls-69{fill:#3d393a;}.cls-70{fill:#575455;}.cls-71{fill:#3f3b3c;}.cls-72{fill:#898687;}.cls-73{fill:#6b6869;}.cls-74{fill:#777475;}.cls-75{fill:#524f50;}.cls-76{fill:#5c595a;}.cls-77{fill:#676465;}.cls-78{fill:#413d3e;}.cls-79{fill:#a7a6a6;}.cls-80{fill:#dedede;}.cls-81{fill:#666364;}.cls-82{fill:#a09f9f;}.cls-83{fill:#c4c3c3;}.cls-84{fill:#a2a1a1;}.cls-85{fill:#625f60;}.cls-86{fill:#878485;}.cls-87{fill:#4a4748;}.cls-88{fill:#979696;}.cls-89{fill:#999898;}.cls-90{fill:#514e4f;}.cls-91{fill:#393536;}.cls-92{fill:#807d7e;}.cls-93{fill:#e1e1e1;}.cls-94{fill:#aeadad;}.cls-95{fill:#827f80;}.cls-96{fill:#e6e6e6;}.cls-97{fill:#3b3738;}.cls-98{fill:#bab9b9;}.cls-99{fill:#e7e7e7;}.cls-100{fill:#6f6c6d;}.cls-101{fill:#2a2627;}.cls-102{fill:#919090;}.cls-103{fill:#b0afaf;}.cls-104{fill:#9d9c9c;}.cls-105{fill:#726f70;}.cls-106{fill:#b8b7b7;}.cls-107{fill:#cdcccc;}.cls-108{fill:#353132;}.cls-109{fill:#acabab;}.cls-110{fill:#555253;}.cls-111{fill:#4d4a4b;}.cls-112{fill:#9f9e9e;}.cls-113{fill:#dadada;}.cls-114{fill:#454142;}.cls-115{fill:#cfcece;}.cls-116{fill:#eaeaea;}.cls-117{fill:#757273;}.cls-118{fill:#c9c8c8;}.cls-119{fill:#a5a4a4;}.cls-120{fill:#b3b2b2;}.cls-121{fill:#8c898a;}.cls-122{fill:#7c797a;}.cls-123{fill:#fdfdfd;}.cls-124{fill:#e4e4e4;}.cls-125{fill:#464243;}.cls-126{fill:#5d5a5b;}.cls-127{fill:#bcbbbb;}.cls-128{fill:#bbbaba;}.cls-129{fill:#fbfbfb;}.cls-130{fill:#716e6f;}.cls-131{fill:#f9f9f9;}.cls-132{fill:#dad9d9;}.cls-133{fill:#737071;}.cls-134{fill:#e5e5e5;}.cls-135{fill:#d5d4d4;}.cls-136{fill:#817e7f;}.cls-137{fill:#7e7b7c;}.cls-138{fill:#262223;}.cls-139{fill:#312d2e;}.cls-140{fill:#bdbcbc;}.cls-141{fill:#a4a3a3;}.cls-142{clip-path:url(#clippath);}.cls-143{fill:#b9b8b8;}.cls-144{fill:#7d7a7b;}.cls-145{fill:#595657;}.cls-146{fill:#ebebeb;}.cls-147{fill:#504d4e;}.cls-148{fill:#8b8889;}.cls-149{fill:#908d8e;}.cls-150{fill:none;}.cls-151{fill:#dcdcdc;}.cls-152{fill:#787576;}.cls-153{fill:#c2c1c1;}.cls-154{fill:#3e3a3b;}.cls-155{fill:#918e8f;}.cls-156{fill:#474344;}.cls-157{fill:#959494;}.cls-158{fill:#e8e8e8;}.cls-159{fill:#615e5f;}.cls-160{fill:#d8d7d7;}.cls-161{fill:#939292;}.cls-162{fill:#444041;}.cls-163{fill:#929191;}.cls-164{fill:#868384;}.cls-165{fill:#d1d0d0;}.cls-166{fill:#292526;}.cls-167{fill:#f7f7f7;}.cls-168{fill:#efefef;}.cls-169{fill:#c3c2c2;}.cls-170{fill:#494647;}.cls-171{fill:#b5b4b4;}.cls-172{fill:#5e5b5c;}.cls-173{fill:#d3d2d2;}.cls-174{fill:#605d5e;}.cls-175{fill:#a1a0a0;}.cls-176{fill:#3a3637;}.cls-177{fill:#332f30;}.cls-178{fill:#484546;}.cls-179{fill:#252122;}.cls-180{fill:#9a9999;}.cls-181{fill:#d6d5d5;}.cls-182{fill:#f1f1f1;}.cls-183{fill:#302c2d;}.cls-184{fill:#bfbebe;}.cls-185{fill:#adacac;}.cls-186{fill:#7a7778;}.cls-187{fill:#b6b5b5;}.cls-188{fill:#f3f3f3;}.cls-189{fill:#747172;}.cls-190{fill:#c6c5c5;}.cls-191{fill:#a9a8a8;}.cls-192{fill:#272324;}.cls-193{fill:#363233;}.cls-194{fill:#f9b36b;}.cls-195{fill:#7b7879;}.cls-196{fill:#d9d8d8;}.cls-197{fill:#d4d3d3;}.cls-198{fill:#f8f8f8;}.cls-199{fill:#343031;}.cls-200{fill:#eee;}.cls-201{fill:#565354;}.cls-202{fill:#9e9d9d;}.cls-203{fill:#cac9c9;}.cls-204{fill:#9c9b9b;}.cls-205{fill:#231f20;}.cls-206{fill:#4b4849;}.cls-207{fill:#5f5c5d;}.cls-208{fill:#ececec;}.cls-209{fill:#2f2b2c;}.cls-210{fill:#848182;}.cls-211{fill:#c1c0c0;}.cls-212{fill:#5a5758;}.cls-213{fill:#484445;}.cls-214{fill:#f2f2f2;}.cls-215{fill:#abaaaa;}.cls-216{fill:#a3a2a2;}.cls-217{fill:#646162;}.cls-218{fill:#7f7c7d;}.cls-219{fill:#949393;}.cls-220{fill:#c0bfbf;}.cls-221{fill:#2d292a;}.cls-222{fill:#fefefe;}.cls-223{fill:#e3e3e3;}.cls-224{fill:#706d6e;}.cls-225{fill:#fcfcfc;}.cls-226{fill:#ededed;}.cls-227{fill:#4f4c4d;}.cls-228{fill:#dfdfdf;}</style><clipPath id="clippath"><ellipse class="cls-150" cx="404.47" cy="830.41" rx="292.45" ry="20.38"/></clipPath></defs><g><g><rect id="Rectángulo_1" class="cls-194" x="168.43" y="256.37" width="419.49" height="419.49" rx="208.01" ry="208.01"/><g id="Grupo_1"><path id="Trazado_1" d="M259.91,406.91c1.57-1.17,3.05-2.45,4.45-3.82,1.67-1.6,3.24-3.29,4.71-5.07,1.25-1.49,2.37-3.08,3.35-4.76,.8-1.42,.89-2.38,.26-2.88-.9-.33-1.87-.4-2.8-.21-1.36,.14-2.94,.33-4.76,.57s-3.75,.48-5.8,.7c-1.96,.24-3.93,.31-5.91,.21-1.72-.07-3.41-.4-5.02-.99-1.36-.46-2.47-1.48-3.03-2.8-.32-.77-.53-1.58-.63-2.4-.14-1.09-.12-2.2,.06-3.29,.21-1.35,.6-2.67,1.15-3.92,.69-1.55,1.58-2.99,2.67-4.29,1.83-2.25,3.88-4.32,6.12-6.17,2.21-1.84,4.59-3.47,7.11-4.86,2.4-1.33,4.94-2.38,7.58-3.14,2.48-.72,5.06-1.05,7.64-.99,1.29-.03,2.54,.44,3.5,1.3,.74,.69,1.22,1.62,1.36,2.62,.12,.91-.13,1.83-.7,2.56-.72,.82-1.82,1.18-2.88,.95-2.37-.2-4.76,.1-7.01,.89-2.33,.78-4.56,1.84-6.64,3.14-2,1.24-3.89,2.64-5.65,4.2-1.5,1.31-2.87,2.76-4.08,4.34-.84,1.01-1.44,2.18-1.77,3.45-.18,.93,.22,1.44,1.2,1.52,2.21,.12,4.42-.04,6.59-.47,2.51-.47,5.05-.85,7.64-1.16,2.39-.31,4.81-.38,7.22-.21,2.02,.09,3.94,.88,5.44,2.25,.99,1.01,1.48,2.41,1.36,3.82-.12,1.76-.56,3.48-1.3,5.07-.89,1.96-1.96,3.84-3.19,5.6-1.33,1.91-2.7,3.73-4.13,5.44-1.32,1.6-2.73,3.14-4.2,4.6-1.07,1.08-2.22,2.08-3.45,2.98-.49,.81-1.42,1.24-2.35,1.1-1.02-.1-1.99-.48-2.8-1.1-.81-.59-1.44-1.38-1.83-2.3-.38-.86-.16-1.86,.56-2.47Z"/><path id="Trazado_2" d="M292.65,352.41c-1.24,.38-2.57,.25-3.71-.36-.91-.47-1.6-1.28-1.93-2.25-.28-.92-.15-1.91,.36-2.72,.79-1.08,1.97-1.79,3.29-1.99,1.36-.45,2.84-.35,4.13,.27,.91,.47,1.58,1.31,1.83,2.3,.19,1.01-.06,2.06-.7,2.87-.79,1.05-1.97,1.73-3.27,1.88Zm-2.51,57.45c0-5.79-.09-10.98-.26-15.58-.17-4.6-.36-8.82-.57-12.66-.21-3.83-.39-7.37-.53-10.61s-.21-6.43-.21-9.57c-.05-.93,.38-1.83,1.16-2.35,.74-.51,1.61-.79,2.51-.78,.9,0,1.79,.24,2.56,.7,.77,.43,1.26,1.22,1.3,2.1,.28,3.48,.51,7.3,.7,11.45,.19,4.15,.4,8.32,.62,12.5,.21,4.2,.44,8.26,.7,12.18,.26,3.92,.49,7.46,.7,10.61,.19,1.17-.27,2.35-1.2,3.08-.88,.59-1.92,.91-2.98,.89-1.06,0-2.1-.19-3.08-.58-.96-.38-1.44-.85-1.44-1.41v.03Z"/><path id="Trazado_3" d="M356.47,408.35c.21-4.89,.21-9.84,0-14.85-.16-4.55-.6-9.1-1.31-13.6-.48-3.36-1.34-6.65-2.56-9.81-1.05-2.51-2.3-3.7-3.76-3.55-.91,.07-1.97,1.13-3.19,3.19-1.53,2.76-2.77,5.67-3.71,8.68-1.43,4.37-2.64,8.81-3.61,13.31-1.15,5.16-2.11,10.92-2.88,17.26-.13,.97-.8,1.79-1.73,2.1-1.04,.42-2.18,.55-3.29,.37-1.13-.15-2.2-.56-3.14-1.2-.88-.56-1.33-1.59-1.15-2.61,.36-1.88,.6-3.79,.7-5.7,.18-2.55,.3-5.33,.36-8.37s.1-6.19,.11-9.46c0-3.27-.04-6.28-.11-9.04-.07-2.76-.19-5.08-.36-6.96-.07-1.16-.22-2.32-.47-3.45-.16-.87,.24-1.74,.99-2.19,.8-.56,1.74-.87,2.72-.89,.97-.04,1.93,.16,2.8,.57,.85,.4,1.4,1.26,1.4,2.2,.07,1.25,.11,2.4,.11,3.45v3.19c0,1.08,.02,2.25,.05,3.5,.03,1.26,.08,2.72,.15,4.39,.49-1.4,1.05-3.25,1.67-5.54,.63-2.32,1.47-4.58,2.51-6.75,1.01-2.14,2.41-4.08,4.13-5.7,1.81-1.64,4.21-2.47,6.64-2.3,1.15,.01,2.29,.25,3.35,.7,1.26,.56,2.35,1.42,3.19,2.51,1.22,1.58,2.2,3.32,2.93,5.17,1.12,2.83,1.98,5.75,2.56,8.74,.77,3.59,1.47,7.95,2.1,13.07s1.19,11.21,1.67,18.25c.06,1.08-.48,2.1-1.4,2.67-.91,.58-1.95,.93-3.03,.99-1.03,.08-2.07-.08-3.03-.47-.84-.23-1.42-1-1.42-1.87Z"/><path id="Trazado_4" d="M374.03,373.75c.84-2.87,2.07-5.62,3.66-8.16,1.62-2.58,3.77-4.79,6.31-6.48,.88-.56,1.86-.95,2.88-1.15,.76-.15,1.55-.13,2.3,.05,.57,.13,1.1,.42,1.51,.83,.31,.27,.47,.69,.42,1.1,2.62-.07,5.22,.49,7.58,1.63,2.09,1.05,3.89,2.57,5.28,4.45,1.46,2.03,2.51,4.32,3.09,6.75,.68,2.82,.98,5.73,.89,8.63-.07,3.6-.44,7.18-1.1,10.72-.59,3.31-1.65,6.51-3.14,9.52-1.31,2.67-3.18,5.03-5.49,6.9-2.29,1.81-5.13,2.8-8.05,2.8-2.39,.11-4.76-.45-6.85-1.62-2.03-1.19-3.77-2.79-5.13-4.71-1.48-2.1-2.65-4.41-3.45-6.85-.88-2.63-1.5-5.35-1.83-8.11-.35-2.79-.42-5.6-.21-8.41,.17-2.67,.61-5.32,1.32-7.9Zm16.32-6.59c-2.25-.05-4.4,.95-5.8,2.72-1.59,2-2.7,4.35-3.24,6.85-.68,2.93-.98,5.93-.89,8.94,.04,3.02,.46,6.03,1.25,8.95,.64,2.48,1.7,4.83,3.14,6.95,1.02,1.7,2.83,2.75,4.81,2.8,1.93,0,3.77-.83,5.02-2.3,1.51-1.73,2.66-3.73,3.4-5.91,.91-2.56,1.54-5.21,1.88-7.9,.37-2.67,.53-5.36,.47-8.06,.1-3.43-.81-6.81-2.61-9.72-1.76-2.29-4.55-3.54-7.43-3.31h0Z"/><path id="Trazado_5" d="M446.43,377.98c-.4,0-.81,.04-1.2,.11-.52,.07-1.34,.19-2.46,.36s-2.65,.43-4.6,.78c-.81,.19-1.64-.15-2.1-.83-.5-.73-.81-1.58-.89-2.46-.11-.91-.06-1.83,.15-2.72,.07-.68,.46-1.28,1.05-1.63l9.73-1.88-.21-23.01c-.2-.87,.18-1.78,.95-2.25,.75-.52,1.65-.79,2.56-.78,.92,0,1.81,.26,2.56,.78,.76,.52,1.17,1.43,1.04,2.35,0,.91,.02,2.39,.05,4.45,.03,2.06,.1,4.22,.21,6.49,.1,2.27,.19,4.43,.26,6.48,.07,2.06,.11,3.54,.11,4.45l15.06-2.3c.88-.05,1.72,.34,2.25,1.04,.52,.7,.85,1.53,.94,2.4,.11,.85,0,1.71-.32,2.51-.25,.7-.81,1.24-1.51,1.46l-16,3.03c.07,7.6,.3,14.07,.7,19.41,.4,5.34,.55,9.54,.47,12.61-.05,1.04-.68,1.97-1.63,2.4-.89,.36-1.88,.41-2.8,.16-.96-.24-1.85-.68-2.61-1.31-.67-.44-1.07-1.19-1.04-1.99-.07-1.87-.14-4.12-.21-6.75-.07-2.63-.14-5.33-.21-8.11-.07-2.8-.13-5.54-.15-8.21s-.07-5.02-.14-7.04Z"/><path id="Trazado_6" d="M510.25,381.34c-2.16,4.85-4.84,9.44-8,13.7-2.42,3.27-5.21,6.26-8.32,8.89-2.31,1.98-4.91,3.6-7.71,4.81-1.89,.87-3.94,1.33-6.02,1.36-1.99,.05-3.89-.84-5.12-2.4-1.22-1.6-2.06-3.46-2.46-5.44-.46-2.15-.66-4.34-.58-6.54,.04-1.87,.18-3.75,.42-5.6-.97-.42-1.77-1.13-2.3-2.04-.41-.8-.64-1.67-.7-2.56-.11-.66,.04-1.34,.42-1.88,.34-.41,.77-.73,1.25-.94,.46-.2,.96-.33,1.46-.37,.42-.02,.84-.07,1.25-.15,1.26-4.39,2.46-8.13,3.61-11.21,1.08-2.97,2.58-5.77,4.45-8.32,1.17-1.68,2.66-3.11,4.39-4.2,1.43-.9,3-1.56,4.65-1.93,1.39-.32,2.83-.3,4.2,.05,1.13,.26,2.17,.84,2.98,1.67,1.34,1.49,2.21,3.35,2.51,5.33,.27,2,.11,4.03-.48,5.96-.65,2.13-1.59,4.15-2.8,6.02-1.24,1.97-2.72,3.78-4.39,5.39-.95,.94-1.94,1.83-2.98,2.67-1.08,.87-2.18,1.69-3.29,2.46s-2.21,1.47-3.29,2.1c-1.08,.63-2.08,1.15-2.98,1.57-.34,1.34-.58,2.7-.7,4.08-.14,1.28-.17,2.58-.11,3.87,.03,1,.21,1.99,.53,2.94,.27,.77,.7,1.18,1.25,1.25,1.42,.08,2.83-.23,4.08-.89,1.95-.98,3.72-2.29,5.23-3.87,2.25-2.29,4.3-4.78,6.12-7.43,2.56-3.7,4.88-7.56,6.96-11.55,.31-.65,.95-1.08,1.67-1.1,.83-.1,1.67-.01,2.46,.27,.8,.27,1.49,.78,1.99,1.46,.51,.76,.63,1.72,.33,2.59Zm-28.45-.83c1.15-.6,2.24-1.32,3.24-2.14,1.45-1.13,2.79-2.41,3.98-3.82,.7-.84,1.4-1.77,2.1-2.8,.64-.92,1.19-1.9,1.62-2.94,.36-.83,.56-1.71,.58-2.61,.04-.73-.33-1.43-.95-1.83-.77-.56-1.72-.22-2.87,.99-1.29,1.42-2.42,2.98-3.35,4.66-1.07,1.88-2.01,3.84-2.8,5.86-.64,1.5-1.16,3.05-1.56,4.63h0Z"/></g><g id="Grupo_2"><path id="Trazado_7" d="M224.88,444.41c-1.62,.49-3.37,.32-4.86-.48-1.19-.62-2.1-1.68-2.54-2.95-.36-1.2-.19-2.5,.48-3.57,1.03-1.41,2.59-2.35,4.32-2.61,1.78-.59,3.72-.47,5.42,.34,1.2,.61,2.07,1.71,2.4,3.02,.25,1.33-.07,2.7-.89,3.77-1.04,1.38-2.6,2.28-4.32,2.47Zm-3.29,75.25c0-7.59-.11-14.39-.34-20.42-.23-6.03-.48-11.56-.76-16.58-.27-5.03-.5-9.66-.7-13.91s-.29-8.43-.27-12.54c-.07-1.22,.5-2.39,1.51-3.08,.97-.67,2.12-1.03,3.29-1.03,1.19,0,2.35,.33,3.36,.96,1,.56,1.65,1.59,1.72,2.74,.36,4.57,.68,9.57,.95,15.01s.55,10.89,.83,16.38c.28,5.48,.57,10.81,.89,15.97,.32,5.16,.61,9.8,.89,13.91,.25,1.53-.36,3.08-1.58,4.04-1.15,.78-2.52,1.18-3.91,1.16-1.38,.01-2.76-.24-4.04-.76-1.19-.48-1.81-1.11-1.81-1.88l-.02,.04Z"/><path id="Trazado_8" d="M283.54,520.67c.27-6.39,.27-12.88,0-19.46-.22-5.97-.79-11.92-1.72-17.82-.63-4.41-1.76-8.73-3.36-12.88-1.37-3.27-3-4.82-4.9-4.66-1.19,.09-2.59,1.49-4.2,4.2-2,3.62-3.63,7.43-4.87,11.38-1.88,5.74-3.45,11.58-4.73,17.48-1.5,6.76-2.76,14.3-3.77,22.62-.17,1.27-1.05,2.33-2.26,2.75-1.37,.55-2.86,.72-4.32,.48-1.47-.2-2.88-.74-4.11-1.58-1.15-.73-1.74-2.08-1.51-3.43,.47-2.47,.76-4.96,.89-7.47,.23-3.33,.39-6.99,.48-10.96,.09-3.97,.14-8.11,.14-12.4s-.05-8.24-.14-11.85c-.09-3.61-.25-6.65-.48-9.11-.09-1.52-.3-3.04-.62-4.53-.2-1.14,.32-2.28,1.3-2.88,1.05-.73,2.29-1.13,3.57-1.16,1.28-.05,2.55,.2,3.7,.76,1.12,.52,1.84,1.64,1.85,2.88,.09,1.64,.14,3.15,.13,4.53v4.2c0,1.4,.02,2.93,.07,4.6,.05,1.66,.12,3.58,.21,5.76,.64-1.83,1.37-4.25,2.19-7.27,.83-3.04,1.93-6,3.29-8.84,1.32-2.81,3.16-5.34,5.42-7.47,2.37-2.15,5.51-3.24,8.7-3.01,1.51,.01,3,.31,4.39,.89,1.65,.74,3.09,1.87,4.2,3.29,1.59,2.07,2.88,4.36,3.83,6.79,1.47,3.7,2.59,7.53,3.36,11.44,1,4.71,1.92,10.42,2.74,17.13,.82,6.71,1.55,14.68,2.19,23.92,.08,1.42-.64,2.76-1.85,3.5-1.19,.76-2.56,1.21-3.97,1.3-1.36,.1-2.72-.11-3.98-.62-1.13-.3-1.9-1.34-1.87-2.5Z"/><path id="Trazado_9" d="M323.21,515.14c2.05-1.54,3.99-3.21,5.82-5,2.19-2.09,4.24-4.31,6.17-6.65,1.64-1.95,3.11-4.04,4.39-6.24,1.05-1.87,1.16-3.12,.34-3.77-1.16-.42-2.42-.52-3.64-.28-1.78,.19-3.86,.44-6.24,.76-2.37,.32-4.91,.64-7.61,.95-2.57,.32-5.16,.41-7.75,.28-2.25-.09-4.47-.53-6.58-1.3-1.79-.61-3.24-1.96-3.98-3.71-.42-1.01-.69-2.06-.83-3.15-.18-1.44-.16-2.89,.07-4.32,.28-1.77,.79-3.5,1.51-5.14,.9-2.02,2.08-3.91,3.5-5.6,2.4-2.95,5.09-5.66,8.01-8.09,2.9-2.42,6.02-4.55,9.32-6.37,3.15-1.74,6.48-3.12,9.93-4.11,3.25-.94,6.63-1.38,10.01-1.3,1.69-.03,3.33,.58,4.59,1.71,.97,.9,1.6,2.11,1.79,3.43,.14,1.2-.2,2.42-.96,3.36-.94,1.07-2.38,1.54-3.77,1.23-3.11-.26-6.24,.13-9.18,1.16-3.05,1.03-5.97,2.41-8.7,4.11-2.62,1.64-5.1,3.5-7.41,5.56-1.97,1.71-3.76,3.62-5.35,5.69-1.1,1.32-1.89,2.87-2.33,4.53-.23,1.23,.3,1.9,1.58,1.99,2.89,.16,5.8-.05,8.64-.62,3.29-.59,6.63-1.1,10.01-1.51,3.14-.4,6.3-.49,9.46-.27,2.65,.11,5.17,1.16,7.13,2.95,1.3,1.32,1.96,3.15,1.79,5-.15,2.3-.73,4.56-1.71,6.65-1.17,2.57-2.58,5.02-4.2,7.33-1.74,2.51-3.54,4.89-5.42,7.13-1.75,2.1-3.6,4.12-5.55,6.03-1.41,1.42-2.92,2.73-4.53,3.91-.65,1.05-1.86,1.62-3.08,1.44-1.32-.13-2.58-.63-3.63-1.44-1.06-.77-1.88-1.82-2.4-3.02-.52-1.15-.21-2.5,.76-3.31Z"/><path id="Trazado_10" d="M363.78,490.15c-1.06,.56-2.35,.51-3.36-.14-.91-.72-1.46-1.79-1.51-2.95-.1-1.56,.21-3.12,.89-4.53,.89-1.9,2.2-3.56,3.84-4.87-.18-1.55-.25-3.1-.2-4.66,.03-1.33,.15-2.66,.34-3.98,.11-1.55,.71-3.02,1.72-4.2,.76-.81,1.78-1.35,2.88-1.51,1.03-.14,2.08,.03,3.02,.48,.84,.35,1.55,.98,1.99,1.78,1.19-1,2.76-2.21,4.73-3.63,1.97-1.42,4.09-2.79,6.38-4.11,2.24-1.3,4.61-2.38,7.06-3.22,2.22-.79,4.57-1.16,6.92-1.09,2.77-.05,5.38,1.32,6.92,3.63,1.46,2.39,2.33,5.09,2.54,7.88,.27,3.07,.11,6.16-.48,9.18-.45,2.63-1.15,5.21-2.1,7.71-1.91,4.44-4.27,8.66-7.05,12.61-2.74,3.92-5.71,7.66-8.91,11.21-2.76,3.08-5.71,5.99-8.84,8.7-2.14,1.93-4.49,3.61-7.01,5l.13,42.08c-.13,1.34-.89,2.53-2.05,3.22-1.07,.59-2.28,.9-3.5,.9-1.16,.02-2.3-.29-3.29-.9-.86-.45-1.45-1.3-1.58-2.26l.53-72.32Zm9.46,16.72c2.14-.79,4.1-2,5.76-3.57,2.29-2.02,4.42-4.22,6.38-6.58,2.24-2.69,4.31-5.53,6.17-8.5,1.85-2.89,3.47-5.91,4.86-9.04,1.19-2.62,2.04-5.39,2.54-8.22,.46-2.11,.25-4.32-.62-6.31-.55-1-1.81-1.24-3.77-.7-2.35,.73-4.59,1.79-6.65,3.15-2.64,1.69-5.14,3.59-7.47,5.69-2.36,2.08-4.5,4.4-6.37,6.92l-.83,27.15Z"/><path id="Trazado_11" d="M421.03,448.03c-1.62,.49-3.37,.32-4.87-.48-1.19-.62-2.1-1.68-2.54-2.95-.37-1.2-.19-2.5,.48-3.57,1.03-1.41,2.59-2.35,4.32-2.61,1.78-.59,3.72-.47,5.42,.34,1.2,.61,2.07,1.71,2.4,3.02,.26,1.33-.07,2.7-.89,3.77-1.04,1.38-2.6,2.27-4.31,2.47Zm-3.29,75.25c0-7.59-.11-14.39-.34-20.42-.23-6.03-.48-11.56-.75-16.58-.28-5.03-.51-9.66-.7-13.91-.19-4.25-.28-8.43-.27-12.54-.07-1.22,.5-2.39,1.51-3.08,.96-.68,2.12-1.03,3.29-1.03,1.19,0,2.35,.33,3.36,.96,1,.56,1.65,1.59,1.72,2.74,.36,4.57,.68,9.57,.96,15.01,.28,5.43,.55,10.89,.82,16.38,.28,5.48,.57,10.81,.89,15.97,.32,5.16,.61,9.8,.89,13.91,.25,1.53-.36,3.08-1.58,4.04-1.15,.78-2.52,1.18-3.91,1.16-1.38,.01-2.76-.24-4.04-.76-1.21-.48-1.83-1.11-1.83-1.88v.04Z"/><path id="Trazado_12" d="M444.28,519.88c-.19-2.1-.39-4.8-.62-8.08-.22-3.29-.48-6.88-.76-10.76-.27-3.89-.57-7.88-.89-11.99-.32-4.11-.67-8.06-1.03-11.85-.36-3.79-.71-7.24-1.03-10.35-.32-3.11-.62-5.57-.89-7.41-.08-1.06,.53-2.05,1.51-2.47,1.1-.48,2.3-.69,3.5-.62,1.32,.05,2.61,.4,3.77,1.03,1.06,.5,1.89,1.38,2.33,2.47l.95,15.22c2.62-4.45,5.8-8.55,9.46-12.2,4.09-4.16,8.87-7.6,14.12-10.14,.85-.88,2.14-1.18,3.29-.76,1.18,.41,2.21,1.18,2.94,2.19,.78,1.04,1.27,2.27,1.4,3.57,.16,1.24-.27,2.48-1.16,3.36-2.26,1.1-4.44,2.36-6.52,3.77-2.26,1.52-4.41,3.19-6.44,5-2.02,1.79-3.92,3.72-5.69,5.76-1.66,1.91-3.13,3.97-4.38,6.17-1.06,1.87-1.84,3.87-2.33,5.96-.6,2.57-.99,5.18-1.16,7.81-.23,2.97-.33,6.4-.28,10.28,.05,3.88,.21,8.33,.48,13.36,.09,1.18-.44,2.32-1.4,3.02-.95,.65-2.07,1.01-3.22,1.03-1.23,.05-2.46-.21-3.57-.75-1.11-.52-1.97-1.45-2.4-2.61Z"/><path id="Trazado_13" d="M517.58,486.7c-1.58,5.61-3.52,11.1-5.82,16.45-1.73,4.13-4.06,7.99-6.92,11.44-2.22,2.73-5.12,4.84-8.41,6.1-3.35,1.1-6.95,1.2-10.35,.27-2.44-.53-4.45-2.26-5.35-4.59-1.06-2.86-1.44-5.94-1.09-8.97,.37-4.01,1.19-7.97,2.47-11.79,1.42-4.43,3.14-8.75,5.14-12.95,2.05-4.31,4.39-8.48,7.01-12.48,2.37-3.67,5.08-7.12,8.09-10.28,2.41-2.6,5.24-4.77,8.36-6.45,2.39-1.37,5.22-1.74,7.88-1.03,2.64,.73,4.77,2.69,5.69,5.28,1.25,3.85,1.89,7.87,1.91,11.91,.23,5.26,.34,12.03,.34,20.32s.36,18.41,1.09,30.36c-.11,1.26-.83,2.38-1.92,3.01-1.1,.64-2.36,.97-3.63,.96-1.28,.01-2.55-.27-3.71-.82-1.05-.45-1.82-1.37-2.1-2.47,.09-1.37,.23-3.31,.41-5.82s.34-5.32,.48-8.41c.14-3.11,.27-6.4,.41-9.87,.14-3.47,.14-6.87,.01-10.18Zm-4.53-22.47c-2.32,.69-4.36,2.11-5.82,4.04-2.26,2.61-4.28,5.43-6.03,8.41-2.03,3.42-3.84,6.97-5.42,10.62-1.53,3.48-2.86,7.05-3.98,10.69-.89,2.82-1.53,5.71-1.92,8.64-.27,2.42,.05,3.91,.96,4.46,1.46,.93,3.1,.57,4.9-1.1,2.17-2.08,4.04-4.45,5.55-7.05,2.03-3.38,3.84-6.89,5.42-10.51,1.67-3.75,3.13-7.6,4.38-11.51,1.09-3.33,1.9-6.75,2.4-10.21,.5-2.15,.35-4.4-.44-6.47h0Z"/></g><path id="Rectángulo_2" d="M293.15,580.38l289.06-28.2c14.4-1.4,27.19,9.01,28.58,23.27l12.8,131.18c1.39,14.25-9.15,26.95-23.55,28.35l-289.06,28.2c-14.4,1.4-27.19-9.01-28.58-23.27l-12.8-131.18c-1.39-14.25,9.15-26.95,23.55-28.35Z"/><g id="Grupo_3"><path id="Trazado_14" class="cls-10" d="M361.4,697.93c-.27-6.72-.84-13.54-1.7-20.45-.75-6.25-1.87-12.45-3.36-18.57-1.05-4.57-2.61-9.02-4.66-13.24-1.72-3.34-3.59-4.82-5.59-4.46-1.24,.2-2.58,1.79-4.03,4.76-1.79,3.98-3.17,8.12-4.12,12.38-1.47,6.19-2.62,12.46-3.44,18.77-.99,7.24-1.65,15.27-1.98,24.09-.07,1.34-.9,2.53-2.14,3.07-1.39,.7-2.94,1.01-4.49,.89-1.56-.08-3.08-.53-4.44-1.3-1.27-.67-2.01-2.03-1.88-3.46,.28-2.63,.37-5.28,.29-7.92-.05-3.53-.2-7.38-.46-11.56s-.57-8.53-.94-13.05-.77-8.66-1.18-12.44c-.41-3.78-.84-6.96-1.3-9.54-.22-1.59-.58-3.16-1.05-4.7-.32-1.18,.13-2.43,1.12-3.14,1.04-.86,2.3-1.4,3.64-1.54,1.34-.17,2.7,0,3.96,.47,1.23,.45,2.08,1.56,2.2,2.86,.24,1.72,.42,3.3,.54,4.74l.37,4.39c.12,1.49,.26,3.09,.47,4.82s.43,3.73,.72,6.03c.51-1.97,1.07-4.58,1.67-7.82,.61-3.27,1.51-6.47,2.69-9.58,1.14-3.06,2.85-5.89,5.04-8.32,2.3-2.46,5.51-3.88,8.88-3.93,1.58-.12,3.17,.06,4.69,.55,1.79,.63,3.4,1.69,4.68,3.09,1.85,2.04,3.41,4.32,4.62,6.8,1.86,3.76,3.38,7.69,4.53,11.73,1.46,4.86,2.92,10.78,4.37,17.76s2.91,15.29,4.39,24.93c.2,1.48-.43,2.96-1.64,3.84-1.19,.91-2.59,1.5-4.07,1.71-1.41,.22-2.86,.12-4.22-.31-1.17-.22-2.05-1.19-2.16-2.37Z"/><path id="Trazado_15" class="cls-10" d="M378.78,647.19c.83-4.05,2.2-7.97,4.09-11.65,1.91-3.74,4.59-7.03,7.87-9.65,1.14-.87,2.44-1.52,3.83-1.92,1.03-.28,2.11-.35,3.17-.19,.81,.11,1.57,.45,2.18,.98,.46,.35,.72,.89,.7,1.47,3.6-.39,7.24,.08,10.63,1.36,2.99,1.2,5.66,3.09,7.78,5.52,2.24,2.62,3.95,5.66,5.02,8.93,1.26,3.81,2.01,7.77,2.21,11.78,.32,4.96,.23,9.94-.28,14.89-.43,4.62-1.51,9.15-3.22,13.46-1.5,3.83-3.81,7.29-6.77,10.13-2.96,2.74-6.75,4.41-10.76,4.73-3.28,.43-6.62-.07-9.62-1.45-2.92-1.39-5.51-3.4-7.59-5.87-2.29-2.72-4.15-5.77-5.54-9.04-1.52-3.52-2.68-7.19-3.45-10.95-.8-3.8-1.22-7.68-1.25-11.57-.04-3.68,.29-7.36,1-10.97Zm21.71-10.94c-3.11,.18-5.95,1.82-7.68,4.41-1.96,2.94-3.22,6.3-3.68,9.8-.6,4.11-.67,8.28-.2,12.41,.4,4.16,1.33,8.25,2.75,12.17,1.16,3.34,2.89,6.46,5.1,9.22,1.59,2.23,4.22,3.49,6.96,3.34,2.66-.2,5.09-1.57,6.65-3.74,1.88-2.55,3.24-5.45,4-8.52,.96-3.63,1.52-7.34,1.69-11.09,.21-3.72,.11-7.44-.28-11.14-.26-4.73-1.89-9.28-4.7-13.09-2.67-2.98-6.67-4.4-10.62-3.77h0Z"/><path id="Trazado_16" class="cls-10" d="M523.36,647.18c-2.42,6.92-5.58,13.56-9.45,19.79-2.96,4.78-6.46,9.21-10.43,13.2-2.95,2.99-6.33,5.52-10.04,7.51-2.5,1.41-5.27,2.28-8.13,2.56-2.74,.29-5.45-.72-7.33-2.73-1.86-2.07-3.23-4.53-4.01-7.2-.87-2.9-1.39-5.9-1.54-8.93-.16-2.58-.18-5.17-.07-7.76-1.37-.47-2.56-1.36-3.4-2.54-.66-1.05-1.11-2.22-1.3-3.45-.23-.89-.1-1.84,.36-2.64,.42-.6,.97-1.1,1.62-1.44,.61-.34,1.28-.57,1.97-.68,.58-.08,1.15-.2,1.71-.36,1.22-6.19,2.45-11.49,3.68-15.89,1.15-4.21,2.89-8.24,5.17-11.96,1.43-2.43,3.32-4.55,5.57-6.25,1.86-1.41,3.96-2.5,6.19-3.2,1.86-.59,3.83-.73,5.75-.41,1.59,.23,3.08,.91,4.3,1.96,2.02,1.9,3.43,4.36,4.07,7.05,.6,2.72,.61,5.54,.03,8.26-.63,3-1.68,5.89-3.12,8.6-1.48,2.85-3.31,5.51-5.43,7.92-1.19,1.41-2.46,2.75-3.8,4.02-1.39,1.32-2.81,2.58-4.25,3.76-1.45,1.18-2.88,2.26-4.3,3.25-1.42,.99-2.72,1.82-3.93,2.49-.33,1.88-.51,3.79-.54,5.7-.04,1.78,.06,3.57,.3,5.34,.16,1.37,.52,2.71,1.05,3.97,.47,1.03,1.1,1.55,1.87,1.59,1.96-.05,3.87-.64,5.52-1.69,2.56-1.58,4.84-3.58,6.73-5.92,2.84-3.41,5.37-7.07,7.57-10.93,3.1-5.39,5.86-10.98,8.26-16.72,.35-.93,1.19-1.58,2.18-1.7,1.13-.24,2.3-.21,3.41,.08,1.12,.29,2.14,.91,2.9,1.78,.84,.98,1.15,2.31,.83,3.57Zm-39.26,2.11c1.52-.96,2.93-2.07,4.22-3.33,1.87-1.73,3.56-3.64,5.04-5.71,.86-1.23,1.71-2.59,2.55-4.06,.78-1.33,1.42-2.75,1.9-4.22,.4-1.18,.57-2.42,.5-3.65-.04-1.01-.62-1.93-1.51-2.41-1.12-.68-2.4-.12-3.85,1.69-1.62,2.1-2.98,4.38-4.07,6.79-1.28,2.71-2.35,5.52-3.22,8.39-.7,2.12-1.22,4.3-1.56,6.5h0Z"/><path id="Trazado_17" class="cls-10" d="M551.07,678.77c2.02-1.79,3.92-3.72,5.68-5.76,2.11-2.39,4.07-4.9,5.88-7.53,1.55-2.19,2.91-4.51,4.06-6.94,.93-2.06,.95-3.39,.03-3.99-1.26-.34-2.59-.33-3.84,.03-1.85,.35-4.01,.79-6.49,1.34s-5.11,1.1-7.9,1.67c-2.67,.56-5.39,.88-8.12,.96-2.37,.1-4.74-.16-7.03-.79-1.94-.49-3.57-1.78-4.5-3.54-.52-1.02-.9-2.11-1.14-3.24-.32-1.49-.42-3.02-.31-4.54,.14-1.88,.52-3.74,1.14-5.53,.77-2.21,1.83-4.3,3.18-6.21,2.27-3.31,4.85-6.39,7.72-9.19,2.83-2.79,5.92-5.31,9.23-7.51,3.15-2.1,6.54-3.84,10.08-5.18,3.33-1.27,6.84-2.03,10.4-2.24,1.78-.18,3.55,.32,4.97,1.4,1.1,.86,1.87,2.07,2.17,3.43,.26,1.25,0,2.55-.71,3.61-.89,1.2-2.37,1.83-3.85,1.63-3.29,0-6.54,.68-9.54,2.02-3.12,1.34-6.07,3.04-8.79,5.07-2.61,1.95-5.05,4.11-7.29,6.47-1.92,1.98-3.63,4.13-5.12,6.45-1.04,1.48-1.74,3.17-2.05,4.95-.14,1.32,.47,1.97,1.82,1.95,3.05-.09,6.08-.57,9.02-1.41,3.4-.91,6.86-1.73,10.38-2.46,3.26-.7,6.58-1.07,9.92-1.11,2.79-.11,5.54,.76,7.74,2.48,1.48,1.28,2.32,3.14,2.31,5.1,.04,2.43-.38,4.85-1.22,7.13-.99,2.8-2.25,5.51-3.75,8.07-1.6,2.79-3.29,5.45-5.06,7.96-1.77,2.51-3.54,4.79-5.31,6.82-1.35,1.61-2.82,3.12-4.41,4.5-.58,1.17-1.81,1.87-3.11,1.78-1.4-.02-2.76-.43-3.94-1.19-1.18-.72-2.14-1.74-2.78-2.96-.64-1.16-.42-2.61,.53-3.53Z"/></g><path id="Trazado_18" d="M398.65,426.03l-75.22,1.09c-2.08,.03-3.75,1.17-3.73,2.56s1.72,2.48,3.8,2.45l75.22-1.09c2.08-.03,3.74-1.18,3.73-2.56-.02-1.38-1.72-2.48-3.8-2.45Z"/></g><g><path d="M426.94,225.03l-1.15-.24,3.28-15.76,10.54,2.2-.22,1.04-9.39-1.96-3.07,14.73Zm1.53-8.02l8.53,1.78-.22,1.04-8.53-1.78,.22-1.04Z"/><path d="M439.54,227.86l2.94-11.64,1.12,.28-2.94,11.64-1.12-.28Zm4.22-14.33c-.25-.06-.45-.21-.58-.43-.13-.22-.17-.45-.11-.69,.06-.25,.21-.45,.43-.58s.46-.17,.71-.1c.27,.07,.47,.21,.59,.42,.13,.21,.16,.45,.1,.7-.06,.25-.2,.45-.42,.58-.22,.14-.46,.17-.73,.1Z"/><path d="M445.36,229.39l4.59-16.44,1.11,.31-4.59,16.44-1.11-.31Z"/><path d="M455.51,232.54c-1.09-.36-1.99-.92-2.68-1.69-.69-.77-1.15-1.68-1.37-2.72s-.15-2.12,.22-3.24c.37-1.14,.95-2.06,1.73-2.76s1.68-1.17,2.7-1.38c1.01-.22,2.07-.15,3.16,.21s1.99,.92,2.69,1.7c.7,.78,1.16,1.68,1.37,2.71,.21,1.03,.14,2.11-.23,3.25-.37,1.12-.94,2.04-1.72,2.75-.78,.71-1.68,1.18-2.7,1.4-1.02,.22-2.08,.15-3.17-.21Zm.32-.98c.88,.28,1.73,.34,2.56,.17,.83-.17,1.56-.56,2.19-1.16,.63-.6,1.1-1.38,1.41-2.32,.31-.96,.39-1.87,.23-2.72-.16-.85-.52-1.59-1.09-2.22-.57-.63-1.29-1.08-2.17-1.37-.88-.28-1.72-.34-2.55-.16-.82,.18-1.55,.56-2.19,1.15-.64,.59-1.11,1.37-1.42,2.33-.31,.95-.38,1.85-.22,2.71,.16,.86,.53,1.6,1.09,2.23,.56,.63,1.28,1.08,2.16,1.37Z"/><path d="M467.3,236.71c-.93-.36-1.75-.83-2.45-1.41-.7-.58-1.2-1.17-1.48-1.75l.82-.67c.29,.54,.74,1.07,1.35,1.61s1.34,.97,2.17,1.29c1.17,.45,2.09,.58,2.76,.39,.66-.19,1.12-.6,1.36-1.23,.18-.46,.18-.87,.02-1.24-.16-.37-.44-.71-.83-1.02-.39-.31-.83-.62-1.33-.91-.49-.3-.98-.6-1.47-.92-.49-.32-.91-.67-1.27-1.05-.36-.39-.6-.82-.72-1.3-.12-.48-.06-1.04,.18-1.67,.22-.57,.57-1.03,1.06-1.37,.49-.34,1.1-.52,1.84-.56s1.58,.12,2.52,.49c.7,.27,1.37,.64,2,1.11s1.11,.96,1.42,1.46l-.82,.67c-.33-.54-.77-1-1.29-1.38s-1.09-.69-1.69-.92c-1.09-.42-1.96-.52-2.63-.32s-1.11,.61-1.34,1.21c-.18,.47-.19,.9-.04,1.28,.16,.38,.43,.73,.82,1.05,.39,.32,.83,.63,1.32,.93,.49,.3,.98,.6,1.47,.92,.49,.32,.91,.67,1.27,1.04,.36,.38,.61,.8,.73,1.27,.12,.47,.07,1.01-.17,1.62-.24,.62-.61,1.09-1.12,1.42-.51,.33-1.15,.5-1.9,.5-.76,0-1.62-.18-2.58-.54Z"/><path d="M478.91,241.51c-1.05-.47-1.88-1.12-2.49-1.96s-.97-1.79-1.08-2.84c-.11-1.06,.07-2.12,.55-3.2,.49-1.09,1.15-1.95,2.01-2.57,.85-.62,1.8-.98,2.83-1.1s2.07,.06,3.12,.53c1.05,.47,1.88,1.12,2.5,1.97s.98,1.79,1.08,2.83c.11,1.05-.08,2.11-.57,3.21-.48,1.08-1.14,1.93-1.99,2.56s-1.79,1-2.83,1.11c-1.04,.11-2.08-.07-3.13-.54Zm.42-.95c.84,.37,1.68,.52,2.53,.43,.84-.09,1.61-.4,2.3-.93s1.24-1.25,1.64-2.17c.41-.92,.58-1.82,.51-2.68s-.36-1.63-.86-2.32c-.5-.68-1.17-1.21-2.01-1.59-.84-.37-1.68-.52-2.52-.43-.84,.09-1.6,.4-2.3,.92s-1.25,1.25-1.66,2.17c-.4,.91-.57,1.8-.5,2.67,.07,.87,.36,1.65,.85,2.33,.49,.68,1.16,1.21,2,1.58Z"/><path d="M487.76,245.55l6.18-12.39c.44-.89,1.06-1.48,1.84-1.77,.79-.29,1.66-.19,2.62,.29,.4,.2,.76,.45,1.09,.76s.55,.64,.69,1l-.8,.58c-.1-.31-.28-.58-.52-.82s-.52-.44-.85-.61c-.66-.33-1.25-.4-1.77-.2s-.96,.65-1.32,1.36l-.9,1.81-.23,.5-4.99,10-1.03-.51Zm2.94-10.84l.44-.88,6.42,3.2-.44,.88-6.42-3.2Z"/><path d="M494.26,248.88l5.66-10.59,1.01,.54-5.66,10.59-1.01-.54Zm5.93-12.66l4.1-.89,1.46,.78-4.46,.69-1.1-.59Z"/><path d="M502.28,253.44c-.77-.45-1.36-.96-1.78-1.54-.42-.57-.64-1.17-.68-1.8-.03-.62,.12-1.23,.46-1.81,.31-.53,.71-.94,1.21-1.22,.5-.29,1.11-.4,1.84-.34,.73,.06,1.57,.37,2.52,.93l3.81,2.23-.45,.77-3.79-2.22c-1.07-.63-1.94-.87-2.6-.73-.66,.14-1.17,.51-1.52,1.11-.39,.66-.45,1.34-.18,2.03,.27,.69,.86,1.3,1.77,1.84,.87,.51,1.73,.75,2.56,.7,.83-.04,1.62-.36,2.35-.94l-.12,.84c-.72,.59-1.54,.91-2.47,.96-.93,.05-1.91-.23-2.94-.83Zm3.78,2.11l1.38-2.36,.17-.38,2.28-3.89c.57-.97,.74-1.85,.51-2.66-.23-.81-.84-1.51-1.85-2.1-.71-.42-1.45-.69-2.21-.8s-1.47-.11-2.13,.02l-.08-1c.79-.16,1.62-.16,2.5,.01s1.71,.49,2.51,.95c1.28,.75,2.08,1.65,2.39,2.71s.09,2.22-.67,3.5l-3.85,6.57-.95-.56Z"/><path d="M513.32,265.42l9.48-13.46,.9,.64-2.26,3.22-1.36,1.6-1.02,1.84-4.81,6.83-.94-.66Zm7.44-.1c-.86-.61-1.5-1.36-1.92-2.25-.41-.89-.56-1.85-.44-2.89,.12-1.03,.54-2.06,1.26-3.09,.72-1.03,1.55-1.77,2.48-2.23s1.89-.64,2.87-.56c.98,.09,1.9,.44,2.77,1.05,.93,.65,1.61,1.45,2.05,2.38,.44,.94,.6,1.93,.49,2.98s-.51,2.06-1.2,3.04c-.69,.98-1.51,1.69-2.46,2.15-.95,.46-1.94,.64-2.97,.54-1.03-.1-2.01-.47-2.94-1.12Zm.54-.89c.75,.53,1.55,.83,2.4,.91,.84,.08,1.66-.07,2.45-.46,.79-.38,1.47-.98,2.04-1.8,.58-.83,.92-1.67,1.01-2.54,.09-.86-.04-1.68-.4-2.45-.36-.77-.92-1.42-1.67-1.95-.75-.53-1.55-.83-2.39-.91-.84-.07-1.65,.08-2.43,.45-.78,.38-1.46,.98-2.05,1.81-.57,.81-.91,1.66-1.01,2.53s.03,1.69,.38,2.45c.35,.76,.91,1.41,1.66,1.94Z"/><path d="M530.84,272.85c-.7-.55-1.21-1.14-1.54-1.77-.33-.63-.47-1.25-.42-1.88,.05-.62,.29-1.2,.71-1.73,.38-.48,.84-.83,1.37-1.04,.53-.21,1.15-.24,1.87-.07s1.5,.59,2.36,1.28l3.46,2.75-.56,.7-3.44-2.73c-.97-.77-1.8-1.14-2.47-1.09s-1.23,.34-1.66,.88c-.48,.6-.63,1.26-.46,1.98,.17,.72,.67,1.41,1.5,2.07,.79,.63,1.6,.98,2.44,1.06,.83,.07,1.65-.13,2.46-.6l-.24,.81c-.8,.48-1.66,.69-2.58,.61s-1.86-.49-2.79-1.24Zm3.44,2.62l1.7-2.14,.22-.35,2.81-3.53c.7-.88,.99-1.73,.88-2.56-.11-.83-.62-1.61-1.54-2.34-.65-.52-1.34-.88-2.07-1.11-.74-.22-1.44-.32-2.11-.28l.07-1.01c.8-.05,1.63,.07,2.47,.37,.85,.29,1.63,.72,2.35,1.3,1.16,.93,1.82,1.93,1.98,3.02,.16,1.08-.23,2.21-1.15,3.37l-4.74,5.96-.86-.69Z"/><path d="M538.68,279.18l7.89-9.05,.83,.73-2.16,2.48,.16-.35c.89-.51,1.81-.69,2.75-.56s1.87,.59,2.77,1.38l-.74,.85s-.07-.06-.1-.1c-.03-.04-.06-.07-.1-.1-1-.88-2.07-1.25-3.18-1.11-1.12,.14-2.16,.76-3.14,1.88l-4.11,4.71-.87-.76Z"/><path d="M546.91,286.71c-.65-.61-1.11-1.25-1.38-1.9-.28-.65-.36-1.29-.25-1.9,.11-.62,.39-1.17,.86-1.66,.42-.45,.91-.75,1.46-.92s1.17-.14,1.87,.09c.69,.23,1.44,.72,2.24,1.48l3.2,3.04-.62,.65-3.19-3.02c-.9-.85-1.69-1.29-2.37-1.3-.68,0-1.25,.24-1.73,.74-.53,.56-.74,1.2-.63,1.94,.11,.73,.54,1.47,1.31,2.19,.73,.7,1.51,1.12,2.34,1.26,.82,.15,1.66,.02,2.5-.38l-.3,.79c-.83,.41-1.71,.54-2.62,.38-.92-.16-1.81-.65-2.67-1.47Zm3.2,2.91l1.88-1.99,.25-.33,3.1-3.27c.77-.81,1.14-1.64,1.1-2.48-.04-.84-.48-1.66-1.33-2.46-.6-.57-1.26-1-1.97-1.28-.71-.28-1.41-.44-2.08-.47l.15-1c.8,.02,1.61,.21,2.43,.58,.82,.36,1.56,.86,2.23,1.49,1.08,1.02,1.65,2.08,1.71,3.18,.06,1.09-.42,2.18-1.44,3.26l-5.24,5.52-.8-.76Z"/><path d="M558.32,298.03l12.51-11.61,.78,.84-12.51,11.61-.78-.84Z"/><path d="M564.38,304.91c-.58-.68-.97-1.35-1.18-2.03-.21-.68-.23-1.32-.06-1.92,.17-.6,.51-1.12,1.03-1.56,.46-.4,.98-.65,1.54-.76,.56-.11,1.18-.02,1.85,.28s1.36,.86,2.08,1.7l2.88,3.35-.68,.58-2.86-3.33c-.81-.94-1.55-1.45-2.22-1.53-.67-.08-1.27,.11-1.8,.56-.58,.5-.86,1.12-.83,1.86,.03,.74,.39,1.51,1.08,2.32,.66,.77,1.39,1.27,2.19,1.5,.8,.23,1.65,.19,2.53-.12l-.38,.75c-.87,.32-1.76,.36-2.65,.11-.89-.25-1.73-.83-2.51-1.74Zm2.88,3.22l2.08-1.78,.28-.3,3.42-2.94c.85-.73,1.3-1.51,1.35-2.35s-.31-1.7-1.07-2.59c-.54-.63-1.15-1.12-1.83-1.48-.68-.36-1.35-.58-2.02-.68l.25-.98c.8,.1,1.58,.38,2.36,.82s1.46,1.02,2.06,1.72c.97,1.13,1.43,2.24,1.38,3.33-.05,1.09-.64,2.13-1.77,3.09l-5.78,4.96-.72-.84Z"/><path d="M576.55,320.18c-.63-.85-.88-1.67-.75-2.47,.13-.8,.61-1.5,1.42-2.1l9.2-6.83,.69,.92-9.1,6.76c-.62,.46-.98,.96-1.08,1.52-.1,.55,.06,1.12,.49,1.7,.45,.6,1,.97,1.65,1.1l-.36,.87c-.42-.07-.81-.24-1.18-.51-.37-.27-.69-.59-.97-.96Zm5.65-11.02l.79-.59,4.28,5.76-.79,.59-4.28-5.76Z"/><path d="M582.21,328.21c-.64-.95-1-1.95-1.07-2.98s.13-2.03,.6-2.98c.47-.95,1.19-1.76,2.17-2.42,.99-.67,2.01-1.04,3.07-1.11,1.05-.07,2.04,.12,2.98,.57,.93,.45,1.72,1.16,2.36,2.11,.64,.95,1,1.95,1.07,2.99s-.12,2.03-.59,2.98c-.46,.94-1.19,1.75-2.19,2.42-.98,.66-2,1.03-3.05,1.11-1.05,.08-2.05-.11-2.99-.57-.94-.46-1.73-1.17-2.37-2.12Zm.86-.58c.51,.76,1.15,1.33,1.91,1.71,.76,.38,1.57,.52,2.44,.43,.87-.09,1.71-.41,2.54-.96,.84-.57,1.46-1.23,1.86-2,.4-.77,.57-1.57,.5-2.42-.06-.85-.35-1.65-.86-2.41-.51-.76-1.15-1.33-1.91-1.7-.76-.37-1.57-.52-2.43-.44-.86,.07-1.72,.39-2.56,.96-.83,.56-1.44,1.22-1.84,2-.4,.78-.57,1.59-.51,2.43,.06,.84,.34,1.64,.86,2.4Z"/><path d="M605.43,343.01c.48,.84,.72,1.66,.75,2.47,.02,.81-.2,1.57-.66,2.29-.46,.72-1.18,1.36-2.16,1.91l-6.11,3.45-.57-1,6.03-3.41c1.17-.66,1.91-1.46,2.2-2.38,.29-.92,.14-1.9-.44-2.92-.45-.79-1-1.37-1.66-1.76s-1.37-.56-2.15-.53c-.77,.03-1.58,.29-2.42,.76l-5.57,3.15-.57-1,6.03-3.41c1.17-.66,1.91-1.46,2.2-2.38s.14-1.9-.44-2.92c-.45-.79-1-1.37-1.65-1.76-.66-.39-1.37-.56-2.15-.53-.77,.03-1.58,.29-2.42,.76l-5.57,3.15-.57-1,10.45-5.91,.54,.96-2.88,1.63,.24-.32c.99-.15,1.92,0,2.8,.45s1.61,1.19,2.18,2.2c.59,1.04,.82,2.07,.7,3.08-.12,1.01-.65,1.91-1.59,2.68l-.05-.42c1.05-.23,2.08-.11,3.07,.35,.99,.46,1.8,1.25,2.43,2.35Z"/><path d="M600.43,360.25c-.38-.81-.57-1.56-.59-2.27-.02-.71,.13-1.33,.46-1.87,.33-.53,.79-.94,1.41-1.23,.56-.26,1.12-.37,1.69-.32,.57,.05,1.14,.3,1.7,.77,.56,.46,1.08,1.2,1.55,2.2l1.87,4-.81,.38-1.86-3.98c-.53-1.13-1.1-1.82-1.73-2.07-.63-.26-1.25-.24-1.88,.05-.69,.32-1.13,.85-1.3,1.57-.17,.72-.03,1.56,.42,2.52,.43,.92,1,1.59,1.71,2.03,.71,.44,1.54,.62,2.47,.56l-.57,.62c-.93,.08-1.79-.12-2.58-.61-.79-.48-1.44-1.27-1.95-2.35Zm1.91,3.88l2.48-1.16,.36-.22,4.08-1.91c1.01-.47,1.66-1.11,1.93-1.9,.27-.8,.16-1.72-.33-2.78-.35-.75-.8-1.39-1.36-1.91-.56-.53-1.15-.92-1.76-1.19l.51-.87c.74,.31,1.42,.79,2.05,1.43,.63,.64,1.14,1.37,1.53,2.21,.63,1.35,.77,2.54,.43,3.58-.34,1.04-1.19,1.88-2.54,2.5l-6.9,3.22-.47-1Z"/><path d="M608.42,379.21c-.39-1.05-.5-2.08-.32-3.1,.17-1.02,.6-1.93,1.28-2.74,.68-.81,1.59-1.42,2.71-1.83,1.14-.42,2.22-.54,3.26-.37s1.95,.59,2.74,1.26c.79,.66,1.38,1.52,1.77,2.57,.37,.99,.47,1.97,.3,2.94s-.59,1.84-1.26,2.62c-.68,.78-1.61,1.39-2.81,1.83-1.17,.43-2.26,.57-3.3,.43-1.03-.14-1.93-.53-2.68-1.16-.75-.63-1.32-1.45-1.69-2.45Zm1-.29c.32,.86,.8,1.56,1.45,2.1,.65,.54,1.4,.87,2.27,1s1.77,.02,2.7-.32c.95-.35,1.71-.85,2.27-1.51,.57-.66,.92-1.4,1.06-2.23s.06-1.68-.26-2.54-.8-1.56-1.45-2.1c-.65-.54-1.4-.87-2.26-1.01-.86-.13-1.76-.02-2.71,.33-.93,.34-1.69,.85-2.26,1.51-.57,.66-.93,1.41-1.08,2.24-.14,.83-.06,1.68,.26,2.54Zm.79,4.88l3.69-1.36,2.04-.53,1.88-.94,8.39-3.1,.4,1.08-16.01,5.9-.39-1.06Z"/><path d="M613.4,394.05c-.35-1.16-.41-2.26-.18-3.3,.23-1.04,.71-1.94,1.44-2.72,.73-.77,1.66-1.33,2.79-1.67,1.15-.35,2.23-.41,3.24-.2,1.02,.21,1.9,.66,2.65,1.35s1.29,1.55,1.6,2.59c.31,1.04,.35,2.05,.12,3.03-.23,.98-.72,1.83-1.45,2.57s-1.67,1.28-2.81,1.63c-.04,.01-.09,.02-.15,.03-.05,0-.11,.02-.17,.04l-3.06-10.15,.86-.26,2.88,9.56-.55-.31c.9-.26,1.65-.69,2.24-1.29,.59-.6,.99-1.3,1.2-2.08,.2-.78,.18-1.61-.09-2.47-.26-.85-.69-1.55-1.29-2.1-.61-.55-1.32-.9-2.15-1.07-.83-.17-1.7-.11-2.61,.16l-.2,.06c-.94,.28-1.71,.74-2.31,1.38-.6,.64-.99,1.38-1.17,2.24-.18,.86-.13,1.75,.15,2.69,.22,.73,.56,1.38,1.02,1.94,.46,.56,1.02,.98,1.7,1.25l-.53,.86c-.77-.31-1.42-.8-1.97-1.46s-.95-1.43-1.21-2.31Z"/><path d="M618.19,412.69c-.23-1.1-.19-2.13,.13-3.12,.32-.98,.87-1.83,1.66-2.53,.79-.7,1.77-1.18,2.94-1.42,1.18-.25,2.28-.22,3.28,.1,1,.32,1.84,.87,2.53,1.64s1.15,1.7,1.38,2.8c.22,1.04,.18,2.02-.13,2.95-.3,.93-.85,1.74-1.63,2.41-.78,.67-1.79,1.14-3.04,1.41-1.21,.26-2.32,.24-3.33-.05-1-.29-1.83-.8-2.49-1.53-.66-.73-1.1-1.62-1.32-2.67Zm1.03-.15c.19,.9,.57,1.66,1.13,2.29s1.26,1.06,2.1,1.32c.84,.25,1.74,.28,2.72,.07,.99-.21,1.81-.6,2.47-1.17,.66-.57,1.11-1.25,1.38-2.05s.3-1.65,.11-2.55-.57-1.66-1.13-2.29c-.56-.63-1.26-1.07-2.09-1.32s-1.74-.28-2.73-.07c-.98,.21-1.79,.6-2.46,1.17-.66,.57-1.12,1.26-1.39,2.06-.26,.8-.3,1.65-.11,2.55Zm.08,4.94l3.85-.81,2.09-.23,2-.66,8.75-1.85,.24,1.13-16.7,3.54-.23-1.1Z"/><path d="M620.98,428.09c-.18-1.2-.08-2.29,.3-3.29,.38-.99,.98-1.82,1.81-2.48s1.83-1.08,3-1.25c1.18-.18,2.26-.09,3.24,.27,.98,.36,1.79,.93,2.43,1.72s1.05,1.72,1.21,2.8c.16,1.08,.06,2.08-.32,3.01-.37,.93-.97,1.71-1.8,2.34-.83,.63-1.83,1.03-3.02,1.21-.04,0-.1,.01-.15,.01-.05,0-.11,0-.17,.01l-1.57-10.49,.89-.13,1.48,9.87-.5-.39c.93-.12,1.73-.44,2.4-.95,.68-.51,1.17-1.14,1.49-1.89,.31-.74,.4-1.56,.27-2.46-.13-.88-.46-1.63-.98-2.26s-1.18-1.08-1.97-1.37c-.79-.28-1.66-.35-2.6-.21l-.21,.03c-.97,.15-1.8,.49-2.48,1.04-.69,.54-1.18,1.23-1.48,2.05-.3,.82-.38,1.72-.24,2.69,.11,.76,.36,1.45,.73,2.07s.87,1.11,1.5,1.48l-.65,.77c-.71-.42-1.29-1-1.74-1.73-.44-.73-.73-1.55-.87-2.46Z"/><path d="M622.59,441.49c-.11-1.16,.05-2.22,.48-3.18,.43-.96,1.08-1.74,1.95-2.36,.87-.61,1.89-.98,3.06-1.09,1.19-.11,2.27,.05,3.24,.49,.97,.44,1.75,1.09,2.35,1.95,.6,.86,.95,1.87,1.06,3.03,.09,.96,0,1.85-.3,2.67-.29,.82-.78,1.51-1.47,2.07l-.7-.79c.57-.49,.97-1.06,1.2-1.73,.23-.67,.31-1.38,.24-2.12-.09-.93-.38-1.75-.87-2.45-.49-.7-1.13-1.22-1.93-1.57-.79-.35-1.7-.47-2.7-.38s-1.87,.39-2.58,.88c-.71,.49-1.25,1.13-1.6,1.91-.35,.78-.48,1.64-.39,2.57,.07,.75,.28,1.43,.63,2.04,.35,.61,.85,1.1,1.5,1.47l-.54,.91c-.78-.42-1.39-1-1.83-1.75-.44-.75-.71-1.61-.8-2.57Z"/><path d="M623.27,449.24l11.99-.69,.07,1.15-11.99,.69-.07-1.15Zm14.94-.29c-.02-.26,.06-.49,.24-.68,.17-.19,.38-.3,.63-.31,.26-.02,.49,.06,.68,.24,.19,.17,.3,.39,.31,.65,.02,.28-.06,.51-.22,.69-.17,.19-.38,.29-.64,.3-.26,.02-.49-.06-.68-.23-.19-.17-.3-.39-.31-.66Z"/><path d="M623.56,458.26c-.03-1,.1-1.93,.37-2.8,.27-.87,.62-1.55,1.05-2.04l.93,.51c-.39,.47-.71,1.09-.98,1.87-.26,.77-.38,1.6-.36,2.49,.03,1.26,.26,2.16,.69,2.7,.43,.54,.98,.8,1.65,.79,.49-.01,.87-.16,1.15-.46s.48-.68,.63-1.15c.14-.48,.25-1,.34-1.57,.08-.57,.18-1.14,.29-1.71,.11-.57,.27-1.1,.49-1.58s.53-.87,.93-1.16c.4-.29,.93-.45,1.61-.47,.61-.02,1.17,.14,1.67,.46,.5,.32,.91,.82,1.22,1.49s.49,1.51,.51,2.52c.02,.75-.07,1.51-.26,2.27-.2,.76-.46,1.39-.8,1.87l-.93-.51c.37-.52,.63-1.09,.79-1.72,.15-.63,.22-1.27,.2-1.92-.03-1.17-.27-2.01-.71-2.55-.44-.53-.99-.79-1.63-.78-.51,.01-.9,.16-1.2,.46-.29,.29-.51,.68-.66,1.16-.15,.48-.27,1-.35,1.57-.08,.57-.18,1.14-.29,1.71-.11,.57-.27,1.1-.48,1.58-.21,.48-.51,.87-.89,1.16-.38,.29-.91,.45-1.56,.47-.66,.02-1.24-.15-1.74-.5-.5-.35-.9-.87-1.19-1.57-.29-.7-.45-1.56-.48-2.59Z"/><path d="M623.72,466.21h12.01v1.16h-12.01s0-1.16,0-1.16Zm14.93,.59c0-.26,.09-.48,.28-.67,.18-.18,.4-.28,.64-.28,.26,0,.48,.09,.67,.28,.18,.18,.28,.41,.28,.67,0,.28-.09,.5-.26,.68-.18,.18-.4,.26-.66,.26-.26,0-.48-.09-.67-.26-.18-.18-.28-.4-.28-.68Z"/><path d="M623.47,476.87c.04-1.15,.34-2.16,.89-3.04s1.3-1.56,2.24-2.06,2-.72,3.18-.68c1.2,.04,2.24,.34,3.13,.91,.89,.56,1.58,1.3,2.07,2.21s.71,1.95,.67,3.1-.34,2.17-.89,3.05c-.55,.89-1.29,1.57-2.23,2.06-.93,.49-1.99,.71-3.19,.67-1.18-.04-2.22-.34-3.12-.89-.9-.55-1.6-1.29-2.08-2.21-.49-.92-.71-1.96-.67-3.11Zm1.03,.04c-.03,.92,.15,1.75,.54,2.5s.97,1.35,1.72,1.79c.75,.44,1.62,.68,2.62,.71,1.01,.04,1.9-.14,2.68-.53,.77-.39,1.38-.94,1.83-1.66s.69-1.54,.72-2.46c.03-.92-.15-1.75-.54-2.49s-.96-1.34-1.71-1.79c-.74-.45-1.62-.69-2.63-.73-1-.04-1.88,.14-2.67,.54-.78,.39-1.4,.95-1.84,1.66-.45,.71-.69,1.53-.72,2.45Z"/><path d="M634.59,493.32c-.09,.98-.36,1.81-.8,2.5-.44,.69-1.06,1.2-1.86,1.53-.79,.33-1.75,.44-2.86,.34l-6.98-.67,.11-1.14,6.89,.66c1.34,.13,2.4-.11,3.17-.73,.77-.61,1.21-1.53,1.33-2.75,.09-.93-.02-1.76-.34-2.48-.32-.72-.8-1.3-1.45-1.72-.65-.42-1.46-.68-2.42-.77l-6.37-.61,.11-1.15,11.95,1.14-.11,1.1-3.32-.32,.38-.13c.91,.46,1.6,1.13,2.06,2.02,.46,.89,.63,1.95,.52,3.17Z"/><path d="M620.64,506.39c.19-1.2,.61-2.21,1.27-3.05,.66-.84,1.48-1.44,2.47-1.83,.99-.38,2.07-.48,3.24-.3,1.18,.18,2.18,.59,3.01,1.23,.82,.63,1.43,1.42,1.81,2.37,.38,.94,.49,1.95,.32,3.03-.17,1.08-.57,2-1.2,2.78-.63,.78-1.44,1.34-2.42,1.69-.98,.35-2.06,.44-3.24,.25-.05,0-.09-.02-.15-.04-.05-.02-.11-.03-.17-.04l1.63-10.48,.89,.14-1.54,9.86-.36-.52c.92,.16,1.78,.1,2.58-.19,.8-.29,1.46-.74,1.98-1.36,.52-.62,.85-1.37,.99-2.27,.14-.88,.05-1.7-.26-2.45s-.8-1.39-1.47-1.89c-.67-.51-1.48-.84-2.42-.98l-.2-.03c-.97-.15-1.86-.07-2.68,.25-.82,.31-1.49,.82-2.03,1.51-.54,.69-.88,1.52-1.03,2.49-.12,.76-.09,1.49,.08,2.19,.17,.7,.5,1.32,.99,1.87l-.85,.54c-.56-.61-.94-1.34-1.14-2.17-.2-.83-.24-1.7-.09-2.61Z"/><path d="M618.51,518.02c.2-.98,.54-1.86,1-2.65s.96-1.37,1.49-1.75l.79,.71c-.48,.37-.94,.9-1.38,1.59-.43,.69-.74,1.47-.92,2.34-.26,1.23-.24,2.16,.05,2.78,.29,.62,.77,1.01,1.43,1.14,.48,.1,.89,.04,1.22-.18,.33-.22,.63-.55,.87-.98,.25-.43,.48-.92,.69-1.45,.21-.54,.44-1.07,.67-1.6,.24-.53,.52-1.01,.84-1.42,.32-.42,.71-.72,1.17-.92,.46-.2,1.01-.22,1.67-.09,.6,.12,1.11,.4,1.52,.83,.41,.43,.69,1.01,.85,1.73s.13,1.58-.08,2.57c-.15,.74-.41,1.45-.78,2.15-.37,.7-.77,1.25-1.21,1.64l-.79-.71c.48-.42,.86-.92,1.16-1.5,.29-.58,.5-1.19,.64-1.82,.24-1.14,.2-2.02-.11-2.64-.31-.62-.78-1-1.41-1.13-.5-.1-.92-.05-1.27,.17s-.65,.54-.91,.97c-.25,.43-.49,.92-.7,1.45-.21,.53-.44,1.07-.67,1.6-.24,.53-.51,1.01-.83,1.43s-.69,.73-1.13,.93-.98,.23-1.63,.1-1.17-.43-1.58-.88c-.41-.45-.67-1.05-.8-1.8s-.08-1.62,.12-2.63Z"/></g></g><g><path d="M8.54,12.02c-2.16,.52-3.98,.33-5.47-.54-1.49-.87-2.44-1.98-2.85-3.31C-.2,6.83-.02,5.5,.75,4.16,1.52,2.83,3.14,1.85,5.61,1.23c2.57-.62,4.6-.49,6.09,.38,1.49,.87,2.39,2,2.7,3.39,.31,1.39-.03,2.8-1,4.24-.98,1.44-2.6,2.36-4.85,2.77ZM1.76,96.61c.41-8.53,.69-16.18,.85-22.96s.23-12.99,.23-18.64-.05-10.86-.15-15.64c-.1-4.78-.15-9.48-.15-14.1,0-1.54,.56-2.7,1.69-3.47,1.13-.77,2.39-1.16,3.78-1.16s2.64,.36,3.78,1.08c1.13,.72,1.75,1.75,1.85,3.08,.31,5.96,.46,12.12,.46,18.49s-.03,12.61-.08,18.72c-.05,6.11-.08,11.97-.08,17.57s.2,10.55,.62,14.87c.2,2.16-.36,3.75-1.69,4.78-1.34,1.03-2.85,1.57-4.55,1.62-1.69,.05-3.24-.28-4.62-1s-2.03-1.8-1.93-3.24Z"/><path d="M34.3,33.13l-8.32,4.47c-1.13,.52-2.18,.41-3.16-.31-.98-.72-1.69-1.7-2.16-2.93s-.57-2.52-.31-3.85c.25-1.33,1.05-2.47,2.39-3.39l11.86-7.09,.15-8.47c.72-1.85,1.75-2.9,3.08-3.16,1.33-.26,2.62-.15,3.85,.31,1.23,.46,2.26,1.13,3.08,2,.82,.87,1.13,1.57,.92,2.08,4.62-2.36,9.63-4.55,15.02-6.55,5.39-2,10.48-3.24,15.25-3.7s8.96,.05,12.56,1.54c3.59,1.49,5.96,4.49,7.09,9.01,1.13,4.83,.82,9.48-.92,13.95-1.75,4.47-4.31,8.63-7.7,12.48-3.39,3.85-7.29,7.4-11.71,10.63-4.42,3.24-8.68,6.06-12.79,8.48-4.11,2.41-7.76,4.39-10.94,5.93-3.19,1.54-5.24,2.57-6.16,3.08l.31,28.51c-.21,1.23-.82,2.16-1.85,2.77-1.03,.62-2.18,.92-3.47,.92s-2.49-.26-3.62-.77c-1.13-.51-1.85-1.28-2.16-2.31l-.31-63.64Zm11.56,21.57c5.75-2.05,11.15-4.67,16.18-7.86,5.03-3.18,9.32-6.6,12.87-10.25,3.54-3.65,6.16-7.32,7.86-11.02,1.69-3.7,2.08-7.09,1.16-10.17-.52-1.75-2.31-2.59-5.39-2.54-3.08,.05-6.6,.69-10.55,1.93-3.96,1.23-7.96,2.85-12.02,4.85-4.06,2-7.37,4.03-9.94,6.09l-.15,28.97Z"/><path d="M108.92,97.07c-.21-2.36-.44-5.39-.69-9.09-.26-3.7-.54-7.73-.85-12.1-.31-4.36-.64-8.86-1-13.48-.36-4.62-.75-9.06-1.16-13.33-.41-4.26-.8-8.14-1.16-11.63-.36-3.49-.69-6.26-1-8.32,0-1.33,.56-2.26,1.69-2.77,1.13-.51,2.44-.74,3.93-.69,1.49,.05,2.9,.44,4.24,1.16,1.33,.72,2.21,1.64,2.62,2.77l1.08,17.1c2.57-4.52,6.11-9.09,10.63-13.71,4.52-4.62,9.81-8.42,15.87-11.4,1.13-1.03,2.36-1.31,3.7-.85,1.33,.46,2.44,1.29,3.31,2.47,.87,1.18,1.39,2.52,1.54,4.01,.15,1.49-.28,2.75-1.31,3.78-2.36,1.13-4.8,2.54-7.32,4.24-2.52,1.69-4.93,3.57-7.24,5.62-2.31,2.06-4.44,4.21-6.39,6.47-1.95,2.26-3.6,4.57-4.93,6.93-1.13,1.95-2,4.19-2.62,6.7-.62,2.52-1.05,5.45-1.31,8.78-.26,3.34-.36,7.19-.31,11.56,.05,4.37,.23,9.38,.54,15.02,0,1.54-.52,2.67-1.54,3.39-1.03,.72-2.23,1.1-3.62,1.16-1.39,.05-2.72-.23-4.01-.85-1.29-.62-2.18-1.59-2.7-2.93Z"/><path d="M157.19,44.38c1.23-4.21,3.03-8.22,5.39-12.02,2.36-3.8,5.44-6.98,9.25-9.55,1.54-.92,2.95-1.49,4.24-1.7,1.28-.2,2.41-.18,3.39,.08,.98,.26,1.72,.67,2.23,1.23,.51,.57,.72,1.11,.62,1.62,4.31,0,8.04,.8,11.17,2.39,3.13,1.59,5.73,3.78,7.78,6.55,2.05,2.77,3.57,6.09,4.55,9.94,.98,3.85,1.41,8.09,1.31,12.71-.1,5.34-.64,10.61-1.62,15.79-.98,5.19-2.52,9.86-4.62,14.02-2.11,4.16-4.8,7.55-8.09,10.17-3.29,2.62-7.24,3.98-11.86,4.08-3.8,.1-7.16-.69-10.09-2.39-2.93-1.69-5.45-4.01-7.55-6.93-2.11-2.93-3.8-6.29-5.09-10.09-1.29-3.8-2.18-7.78-2.7-11.94-.52-4.16-.62-8.29-.31-12.4,.31-4.11,.98-7.96,2-11.56Zm24.04-9.71c-3.49,0-6.34,1.34-8.55,4.01-2.21,2.67-3.8,6.04-4.78,10.09-.98,4.06-1.41,8.45-1.31,13.17,.1,4.73,.72,9.12,1.85,13.17,1.13,4.06,2.67,7.47,4.62,10.25,1.95,2.77,4.31,4.16,7.09,4.16s5.34-1.13,7.4-3.39c2.05-2.26,3.72-5.16,5.01-8.71,1.28-3.54,2.21-7.42,2.77-11.63,.56-4.21,.79-8.17,.69-11.86-.21-6.26-1.49-11.04-3.85-14.33-2.36-3.29-6.01-4.93-10.94-4.93Z"/><path d="M210.08,99.08c.82-1.33,2.23-3.54,4.24-6.63,2-3.08,4.18-6.44,6.55-10.09,2.36-3.64,4.72-7.27,7.09-10.86,2.36-3.59,4.31-6.57,5.86-8.94l-19.57-29.58c-.21-.92-.08-2.08,.39-3.47s1.13-2.59,2-3.62c.87-1.03,1.87-1.72,3-2.08,1.13-.36,2.31,.03,3.54,1.16,5.24,8.63,9.55,15.38,12.94,20.26,3.39,4.88,5.14,7.32,5.24,7.32,.31-.41,.87-1.23,1.69-2.47,.82-1.23,2.03-3,3.62-5.32,1.59-2.31,3.59-5.26,6.01-8.86,2.41-3.59,5.32-7.96,8.71-13.1,.62-1.03,1.49-1.57,2.62-1.62,1.13-.05,2.23,.23,3.31,.85,1.08,.62,1.95,1.52,2.62,2.7,.67,1.18,.9,2.44,.69,3.78-.21,.21-.31,.46-.31,.77l-22.03,33.44,21.42,28.97c.41,1.44,.31,2.85-.31,4.24-.62,1.39-1.46,2.54-2.54,3.47s-2.21,1.51-3.39,1.77c-1.18,.26-2.13-.03-2.85-.85l-19.72-27.43-22.03,32.97c-.92,.51-2,.74-3.24,.69-1.23-.05-2.34-.36-3.31-.92-.98-.57-1.72-1.41-2.23-2.54-.52-1.13-.52-2.47,0-4.01Z"/><path d="M286.69,12.94c-2.16,.52-3.98,.33-5.47-.54-1.49-.87-2.44-1.98-2.85-3.31-.41-1.33-.23-2.67,.54-4.01,.77-1.33,2.39-2.31,4.85-2.93,2.57-.62,4.6-.49,6.09,.38,1.49,.87,2.39,2,2.7,3.39,.31,1.39-.03,2.8-1,4.24-.98,1.44-2.6,2.36-4.85,2.77Zm-3.7,84.59c0-8.53-.13-16.18-.39-22.96-.26-6.78-.54-12.99-.85-18.64-.31-5.65-.57-10.86-.77-15.64-.21-4.78-.31-9.48-.31-14.1,0-1.54,.56-2.7,1.69-3.47,1.13-.77,2.36-1.16,3.7-1.16s2.59,.36,3.78,1.08c1.18,.72,1.82,1.75,1.93,3.08,.41,5.14,.77,10.76,1.08,16.87,.31,6.11,.62,12.25,.92,18.41,.31,6.16,.64,12.15,1,17.95,.36,5.8,.69,11.02,1,15.64,.1,2.16-.49,3.67-1.77,4.55-1.29,.87-2.75,1.31-4.39,1.31s-3.16-.28-4.55-.85c-1.39-.56-2.08-1.26-2.08-2.08Z"/><path d="M302.45,30.2c-.52-1.85-.13-3.24,1.16-4.16,1.28-.92,2.77-1.44,4.47-1.54,1.69-.1,3.26,.21,4.7,.92,1.44,.72,2.1,1.85,2,3.39,.1,.31,.15,1.34,.15,3.08v6.16c0,2.36,.02,4.88,.08,7.55,.05,2.67,.13,5.16,.23,7.47,.1,2.31,.2,4.29,.31,5.93,.1,1.64,.26,2.57,.46,2.77,1.44-6.68,2.82-12.22,4.16-16.64,1.33-4.42,2.64-8.01,3.93-10.79,1.28-2.77,2.54-4.88,3.78-6.32,1.23-1.44,2.41-2.47,3.54-3.08,1.13-.62,2.21-.92,3.24-.92h3.08c2.36,.21,4.29,1.36,5.78,3.47,1.49,2.11,2.7,4.7,3.62,7.78s1.64,6.37,2.16,9.86c.51,3.49,1.03,6.73,1.54,9.71,1.13-2.47,2.29-5.49,3.47-9.09,1.18-3.59,2.54-7.04,4.08-10.32,1.54-3.29,3.34-6.09,5.39-8.4,2.05-2.31,4.47-3.41,7.24-3.31,2.16,.1,4.13,.9,5.93,2.39,1.8,1.49,3,3.21,3.62,5.16,.82,1.64,1.67,4.06,2.54,7.24,.87,3.18,1.69,7.32,2.47,12.4,.77,5.08,1.46,11.17,2.08,18.26,.62,7.09,1.08,15.41,1.39,24.96,.62,1.85,.33,3.26-.85,4.24-1.18,.98-2.62,1.51-4.32,1.62-1.69,.1-3.34-.23-4.93-1-1.59-.77-2.44-2.03-2.54-3.78,.51-5.86,.69-12.12,.54-18.8-.15-6.68-.59-12.84-1.31-18.49-.72-5.65-1.64-10.27-2.77-13.87-1.13-3.59-2.41-5.24-3.85-4.93-.92,.21-2.11,1.93-3.54,5.16-1.44,3.24-2.9,7.24-4.39,12.02-1.49,4.78-2.9,10.02-4.24,15.72-1.34,5.7-2.36,11.07-3.08,16.1-.31,1.34-1.13,2.29-2.47,2.85-1.34,.57-2.7,.77-4.08,.62-1.39-.15-2.65-.67-3.78-1.54-1.13-.87-1.64-2.03-1.54-3.47,.51-2.36,.82-5.14,.92-8.32,.1-3.18,.05-6.52-.15-10.02-.21-3.49-.54-6.93-1-10.32-.46-3.39-1-6.45-1.62-9.17-.62-2.72-1.26-4.98-1.93-6.78-.67-1.8-1.31-2.8-1.93-3-2.06-.82-4.5,3.49-7.32,12.94-2.83,9.45-5.37,24.4-7.63,44.84-.31,1.44-1.21,2.42-2.7,2.93-1.49,.51-3.03,.67-4.62,.46-1.59-.21-3-.69-4.24-1.46-1.23-.77-1.69-1.72-1.39-2.85l-5.86-65.64Z"/><path d="M440.08,61.17c-2.06,7.09-4.24,13.25-6.55,18.49-2.31,5.24-4.91,9.53-7.78,12.87-2.88,3.34-6.03,5.62-9.48,6.86-3.44,1.23-7.32,1.33-11.63,.31-2.88-.72-4.88-2.44-6.01-5.16-1.13-2.72-1.54-6.09-1.23-10.09s1.23-8.42,2.77-13.25c1.54-4.83,3.47-9.68,5.78-14.56,2.31-4.88,4.93-9.55,7.86-14.02,2.93-4.47,5.96-8.32,9.09-11.56,3.13-3.24,6.27-5.65,9.4-7.24,3.13-1.59,6.09-1.98,8.86-1.16,3.08,.92,5.21,2.9,6.39,5.93,1.18,3.03,1.9,7.5,2.16,13.41,.25,5.91,.38,13.51,.38,22.8s.41,20.67,1.23,34.13c-.21,1.54-.92,2.67-2.16,3.39-1.23,.72-2.59,1.08-4.08,1.08s-2.88-.31-4.16-.92c-1.29-.62-2.08-1.54-2.39-2.77,.1-1.54,.26-3.72,.46-6.55,.21-2.82,.39-5.98,.54-9.48,.15-3.49,.31-7.19,.46-11.09,.15-3.9,.18-7.7,.08-11.4Zm-5.09-25.27c-2.06,.41-4.24,1.93-6.55,4.55s-4.57,5.78-6.78,9.48c-2.21,3.7-4.24,7.68-6.09,11.94-1.85,4.26-3.34,8.27-4.47,12.02-1.13,3.75-1.85,6.99-2.16,9.71-.31,2.72,.05,4.39,1.08,5.01,1.64,1.03,3.49,.62,5.55-1.23,2.05-1.85,4.13-4.49,6.24-7.94,2.1-3.44,4.14-7.37,6.09-11.79,1.95-4.42,3.59-8.73,4.93-12.94,1.33-4.21,2.24-8.04,2.7-11.48,.46-3.44,.28-5.88-.54-7.32Z"/><path d="M457.22,30.2c-.52-1.85-.13-3.24,1.16-4.16,1.28-.92,2.77-1.44,4.47-1.54,1.69-.1,3.26,.21,4.7,.92,1.44,.72,2.1,1.85,2,3.39,.1,.31,.15,1.34,.15,3.08v6.16c0,2.36,.02,4.88,.08,7.55,.05,2.67,.13,5.16,.23,7.47,.1,2.31,.2,4.29,.31,5.93,.1,1.64,.26,2.57,.46,2.77,1.44-6.68,2.82-12.22,4.16-16.64,1.33-4.42,2.64-8.01,3.93-10.79,1.28-2.77,2.54-4.88,3.78-6.32,1.23-1.44,2.41-2.47,3.54-3.08,1.13-.62,2.21-.92,3.24-.92h3.08c2.36,.21,4.29,1.36,5.78,3.47,1.49,2.11,2.7,4.7,3.62,7.78s1.64,6.37,2.16,9.86c.51,3.49,1.03,6.73,1.54,9.71,1.13-2.47,2.28-5.49,3.47-9.09,1.18-3.59,2.54-7.04,4.08-10.32,1.54-3.29,3.34-6.09,5.39-8.4,2.05-2.31,4.47-3.41,7.24-3.31,2.16,.1,4.13,.9,5.93,2.39,1.8,1.49,3,3.21,3.62,5.16,.82,1.64,1.67,4.06,2.54,7.24,.87,3.18,1.7,7.32,2.47,12.4,.77,5.08,1.46,11.17,2.08,18.26,.62,7.09,1.08,15.41,1.39,24.96,.62,1.85,.33,3.26-.85,4.24-1.18,.98-2.62,1.51-4.31,1.62-1.7,.1-3.34-.23-4.93-1-1.59-.77-2.44-2.03-2.54-3.78,.51-5.86,.69-12.12,.54-18.8-.15-6.68-.59-12.84-1.31-18.49-.72-5.65-1.64-10.27-2.77-13.87-1.13-3.59-2.42-5.24-3.85-4.93-.92,.21-2.11,1.93-3.54,5.16-1.44,3.24-2.9,7.24-4.39,12.02-1.49,4.78-2.9,10.02-4.24,15.72-1.34,5.7-2.36,11.07-3.08,16.1-.31,1.34-1.13,2.29-2.47,2.85-1.34,.57-2.7,.77-4.08,.62-1.39-.15-2.65-.67-3.77-1.54-1.13-.87-1.64-2.03-1.54-3.47,.51-2.36,.82-5.14,.92-8.32,.1-3.18,.05-6.52-.15-10.02-.21-3.49-.54-6.93-1-10.32-.46-3.39-1-6.45-1.62-9.17-.62-2.72-1.26-4.98-1.93-6.78-.67-1.8-1.31-2.8-1.93-3-2.06-.82-4.49,3.49-7.32,12.94-2.83,9.45-5.37,24.4-7.63,44.84-.31,1.44-1.21,2.42-2.7,2.93-1.49,.51-3.03,.67-4.62,.46-1.59-.21-3-.69-4.24-1.46-1.23-.77-1.7-1.72-1.39-2.85l-5.86-65.64Z"/><path d="M611.35,57.17c-3.7,8.01-7.63,14.74-11.79,20.19-4.16,5.45-8.24,9.81-12.25,13.1-4.01,3.29-7.78,5.65-11.33,7.09-3.54,1.44-6.5,2.11-8.86,2-3.29-.1-5.81-1.28-7.55-3.54-1.75-2.26-2.95-4.93-3.62-8.01-.67-3.08-.95-6.29-.85-9.63,.1-3.34,.31-6.09,.62-8.24-1.64-.82-2.77-1.82-3.39-3-.62-1.18-.98-2.44-1.08-3.78-.1-1.23,.1-2.16,.62-2.77,.51-.62,1.13-1.08,1.85-1.39,.72-.31,1.44-.49,2.16-.54,.72-.05,1.33-.13,1.85-.23,1.85-6.47,3.62-11.99,5.32-16.56,1.69-4.57,3.88-8.65,6.55-12.25,1.95-2.67,4.11-4.72,6.47-6.16,2.36-1.44,4.65-2.39,6.86-2.85,2.21-.46,4.26-.44,6.16,.08,1.9,.52,3.36,1.34,4.39,2.47,2.05,2.36,3.29,4.98,3.7,7.86,.41,2.88,.18,5.8-.69,8.78-.87,2.98-2.23,5.93-4.08,8.86-1.85,2.93-4.01,5.57-6.47,7.94-1.34,1.34-2.8,2.65-4.39,3.93-1.59,1.29-3.21,2.49-4.85,3.62-1.64,1.13-3.26,2.16-4.85,3.08-1.59,.92-3.06,1.69-4.39,2.31-.52,1.95-.87,3.96-1.08,6.01-.21,2.06-.26,3.96-.15,5.7,.1,1.75,.36,3.19,.77,4.31,.41,1.13,1.03,1.75,1.85,1.85,1.64,.21,3.65-.23,6.01-1.31,2.36-1.08,4.93-2.98,7.7-5.7,2.77-2.72,5.78-6.37,9.01-10.94,3.23-4.57,6.65-10.25,10.25-17.03,.41-.92,1.23-1.46,2.47-1.62,1.23-.15,2.44-.02,3.62,.39,1.18,.41,2.16,1.13,2.93,2.16,.77,1.03,.95,2.31,.54,3.85Zm-41.91-1.23c1.13-.51,2.72-1.56,4.78-3.16,2.05-1.59,4.01-3.47,5.85-5.62,1.03-1.23,2.05-2.59,3.08-4.08,1.03-1.49,1.82-2.93,2.39-4.31,.56-1.39,.85-2.67,.85-3.85s-.46-2.08-1.39-2.7c-1.13-.82-2.54-.33-4.24,1.46-1.69,1.8-3.34,4.08-4.93,6.86-1.59,2.77-2.98,5.65-4.16,8.63-1.18,2.98-1.93,5.24-2.23,6.78Z"/><path d="M660.69,96.77c.31-7.19,.31-14.48,0-21.88s-.95-14.07-1.93-20.03c-.98-5.96-2.23-10.79-3.77-14.48-1.54-3.7-3.39-5.44-5.55-5.24-1.34,.1-2.9,1.67-4.7,4.7-1.8,3.03-3.62,7.3-5.47,12.79-1.85,5.5-3.62,12.05-5.32,19.65-1.69,7.6-3.11,16.08-4.24,25.42-.21,1.44-1.05,2.47-2.54,3.08-1.49,.62-3.11,.79-4.85,.54-1.75-.26-3.29-.85-4.62-1.77-1.34-.92-1.9-2.21-1.69-3.85,.41-1.85,.74-4.65,1-8.4,.26-3.75,.44-7.86,.54-12.33,.1-4.47,.15-9.11,.15-13.94s-.05-9.27-.15-13.33c-.1-4.06-.28-7.47-.54-10.25-.26-2.77-.49-4.47-.69-5.09-.21-1.33,.28-2.41,1.46-3.24,1.18-.82,2.52-1.26,4.01-1.31,1.49-.05,2.87,.23,4.16,.85,1.28,.62,1.98,1.69,2.08,3.24,.1,1.85,.15,3.54,.15,5.09v4.7c0,1.59,.02,3.31,.08,5.16,.05,1.85,.13,4.01,.23,6.47,.72-2.05,1.54-4.78,2.47-8.17,.92-3.39,2.16-6.7,3.7-9.94,1.54-3.24,3.57-6.03,6.09-8.4,2.52-2.36,5.78-3.49,9.78-3.39,1.64,0,3.29,.33,4.93,1,1.64,.67,3.21,1.9,4.7,3.7,1.49,1.8,2.93,4.34,4.32,7.63,1.39,3.29,2.64,7.58,3.77,12.87,1.13,5.29,2.16,11.71,3.08,19.26,.92,7.55,1.74,16.51,2.47,26.89,0,1.75-.69,3.06-2.08,3.93-1.39,.87-2.88,1.36-4.47,1.46-1.59,.1-3.08-.13-4.47-.69s-2.08-1.46-2.08-2.7Z"/><path d="M694.01,50.54c-.41,0-1,.05-1.77,.15-.77,.1-1.98,.28-3.62,.54-1.64,.26-3.9,.64-6.78,1.16-1.34,.21-2.37-.2-3.08-1.23-.72-1.03-1.16-2.23-1.31-3.62-.15-1.39-.08-2.72,.23-4.01,.31-1.28,.82-2.08,1.54-2.39l14.33-2.77-.31-33.9c-.21-1.44,.25-2.54,1.39-3.31,1.13-.77,2.39-1.16,3.77-1.16s2.64,.39,3.78,1.16c1.13,.77,1.64,1.93,1.54,3.47,0,1.34,.02,3.52,.08,6.55,.05,3.03,.15,6.22,.31,9.55,.15,3.34,.28,6.52,.38,9.55,.1,3.03,.15,5.21,.15,6.55l22.19-3.39c1.44,0,2.54,.52,3.31,1.54,.77,1.03,1.23,2.21,1.39,3.54,.15,1.34,0,2.57-.46,3.7-.46,1.13-1.21,1.85-2.23,2.16l-23.57,4.47c.1,11.2,.44,20.72,1,28.58,.56,7.86,.79,14.05,.69,18.57-.31,1.85-1.11,3.03-2.39,3.54-1.29,.51-2.65,.59-4.08,.23-1.44-.36-2.72-1-3.85-1.93-1.13-.92-1.64-1.9-1.54-2.93-.1-2.77-.21-6.09-.31-9.94-.1-3.85-.21-7.83-.31-11.94-.1-4.11-.18-8.14-.23-12.1-.05-3.95-.13-7.42-.23-10.4Z"/><path d="M788.81,57.17c-3.7,8.01-7.63,14.74-11.79,20.19-4.16,5.45-8.24,9.81-12.25,13.1-4.01,3.29-7.78,5.65-11.33,7.09-3.54,1.44-6.5,2.11-8.86,2-3.29-.1-5.81-1.28-7.55-3.54-1.75-2.26-2.95-4.93-3.62-8.01-.67-3.08-.95-6.29-.85-9.63,.1-3.34,.31-6.09,.62-8.24-1.64-.82-2.77-1.82-3.39-3-.62-1.18-.98-2.44-1.08-3.78-.1-1.23,.1-2.16,.62-2.77,.51-.62,1.13-1.08,1.85-1.39,.72-.31,1.44-.49,2.16-.54,.72-.05,1.33-.13,1.85-.23,1.85-6.47,3.62-11.99,5.32-16.56,1.69-4.57,3.88-8.65,6.55-12.25,1.95-2.67,4.11-4.72,6.47-6.16,2.36-1.44,4.65-2.39,6.86-2.85,2.21-.46,4.26-.44,6.16,.08,1.9,.52,3.36,1.34,4.39,2.47,2.05,2.36,3.29,4.98,3.7,7.86,.41,2.88,.18,5.8-.69,8.78-.87,2.98-2.23,5.93-4.08,8.86-1.85,2.93-4.01,5.57-6.47,7.94-1.34,1.34-2.8,2.65-4.39,3.93-1.59,1.29-3.21,2.49-4.85,3.62-1.64,1.13-3.26,2.16-4.85,3.08-1.59,.92-3.06,1.69-4.39,2.31-.52,1.95-.87,3.96-1.08,6.01-.21,2.06-.26,3.96-.15,5.7,.1,1.75,.36,3.19,.77,4.31,.41,1.13,1.03,1.75,1.85,1.85,1.64,.21,3.65-.23,6.01-1.31,2.36-1.08,4.93-2.98,7.7-5.7,2.77-2.72,5.78-6.37,9.01-10.94,3.23-4.57,6.65-10.25,10.25-17.03,.41-.92,1.23-1.46,2.47-1.62,1.23-.15,2.44-.02,3.62,.39,1.18,.41,2.16,1.13,2.93,2.16,.77,1.03,.95,2.31,.54,3.85Zm-41.91-1.23c1.13-.51,2.72-1.56,4.78-3.16,2.05-1.59,4.01-3.47,5.85-5.62,1.03-1.23,2.05-2.59,3.08-4.08,1.03-1.49,1.82-2.93,2.39-4.31,.56-1.39,.85-2.67,.85-3.85s-.46-2.08-1.39-2.7c-1.13-.82-2.54-.33-4.24,1.46-1.69,1.8-3.34,4.08-4.93,6.86-1.59,2.77-2.98,5.65-4.16,8.63-1.18,2.98-1.93,5.24-2.23,6.78Z"/><path d="M807.19,5.39c-.52,8.53-.82,16.18-.92,22.96-.1,6.78-.15,13-.15,18.64s.05,10.86,.15,15.64c.1,4.78,.15,9.48,.15,14.1,0,1.54-.57,2.7-1.69,3.47-1.13,.77-2.39,1.16-3.78,1.16s-2.65-.36-3.77-1.08c-1.13-.72-1.75-1.75-1.85-3.08-.31-5.96-.46-12.12-.46-18.49s.02-12.61,.08-18.72c.05-6.11,.08-11.97,.08-17.57s-.21-10.55-.62-14.87c-.21-2.16,.36-3.75,1.69-4.78,1.33-1.03,2.85-1.56,4.55-1.62,1.7-.05,3.24,.31,4.62,1.08s2.03,1.82,1.93,3.16Zm-6.78,84.59c2.16-.41,3.98-.2,5.47,.62,1.49,.82,2.44,1.9,2.85,3.24,.41,1.34,.23,2.67-.54,4.01-.77,1.34-2.39,2.31-4.85,2.93-2.57,.62-4.6,.49-6.09-.39-1.49-.87-2.39-2-2.7-3.39-.31-1.39,0-2.77,.92-4.16s2.57-2.34,4.93-2.85Z"/></g><g class="cls-30"><g class="cls-142"><rect class="cls-10" x="112.02" y="810.03" width="584.91" height="40.77"/><ellipse class="cls-10" cx="404.47" cy="830.41" rx="207.3" ry="17.67"/><ellipse class="cls-222" cx="404.47" cy="830.41" rx="206.37" ry="17.59"/><ellipse class="cls-123" cx="404.47" cy="830.41" rx="205.45" ry="17.51"/><ellipse class="cls-225" cx="404.47" cy="830.41" rx="204.52" ry="17.43"/><ellipse class="cls-129" cx="404.47" cy="830.41" rx="203.6" ry="17.35"/><ellipse class="cls-17" cx="404.47" cy="830.41" rx="202.67" ry="17.27"/><ellipse class="cls-131" cx="404.47" cy="830.41" rx="201.75" ry="17.19"/><ellipse class="cls-198" cx="404.47" cy="830.41" rx="200.82" ry="17.11"/><ellipse class="cls-167" cx="404.47" cy="830.41" rx="199.89" ry="17.03"/><ellipse class="cls-28" cx="404.47" cy="830.41" rx="198.97" ry="16.96"/><ellipse class="cls-40" cx="404.47" cy="830.41" rx="198.04" ry="16.88"/><ellipse class="cls-9" cx="404.47" cy="830.41" rx="197.12" ry="16.8"/><ellipse class="cls-188" cx="404.47" cy="830.41" rx="196.19" ry="16.72"/><ellipse class="cls-214" cx="404.47" cy="830.41" rx="195.27" ry="16.64"/><ellipse class="cls-182" cx="404.47" cy="830.41" rx="194.34" ry="16.56"/><ellipse class="cls-6" cx="404.47" cy="830.41" rx="193.42" ry="16.48"/><ellipse class="cls-168" cx="404.47" cy="830.41" rx="192.49" ry="16.4"/><ellipse class="cls-200" cx="404.47" cy="830.41" rx="191.57" ry="16.32"/><ellipse class="cls-226" cx="404.47" cy="830.41" rx="190.64" ry="16.25"/><ellipse class="cls-208" cx="404.47" cy="830.41" rx="189.71" ry="16.17"/><ellipse class="cls-146" cx="404.47" cy="830.41" rx="188.79" ry="16.09"/><ellipse class="cls-116" cx="404.47" cy="830.41" rx="187.86" ry="16.01"/><ellipse class="cls-5" cx="404.47" cy="830.41" rx="186.94" ry="15.93"/><ellipse class="cls-158" cx="404.47" cy="830.41" rx="186.01" ry="15.85"/><ellipse class="cls-99" cx="404.47" cy="830.41" rx="185.09" ry="15.77"/><ellipse class="cls-96" cx="404.47" cy="830.41" rx="184.16" ry="15.69"/><ellipse class="cls-134" cx="404.47" cy="830.41" rx="183.24" ry="15.61"/><ellipse class="cls-124" cx="404.47" cy="830.41" rx="182.31" ry="15.54"/><ellipse class="cls-223" cx="404.47" cy="830.41" rx="181.39" ry="15.46"/><ellipse class="cls-39" cx="404.47" cy="830.41" rx="180.46" ry="15.38"/><ellipse class="cls-93" cx="404.47" cy="830.41" rx="179.53" ry="15.3"/><ellipse class="cls-66" cx="404.47" cy="830.41" rx="178.61" ry="15.22"/><ellipse class="cls-228" cx="404.47" cy="830.41" rx="177.68" ry="15.14"/><ellipse class="cls-80" cx="404.47" cy="830.41" rx="176.76" ry="15.06"/><ellipse class="cls-3" cx="404.47" cy="830.41" rx="175.83" ry="14.98"/><ellipse class="cls-151" cx="404.47" cy="830.41" rx="174.91" ry="14.91"/><ellipse class="cls-20" cx="404.47" cy="830.41" rx="173.98" ry="14.83"/><ellipse class="cls-113" cx="404.47" cy="830.41" rx="173.06" ry="14.75"/><ellipse class="cls-132" cx="404.47" cy="830.41" rx="172.13" ry="14.67"/><ellipse class="cls-196" cx="404.47" cy="830.41" rx="171.21" ry="14.59"/><ellipse class="cls-160" cx="404.47" cy="830.41" rx="170.28" ry="14.51"/><ellipse class="cls-35" cx="404.47" cy="830.41" rx="169.35" ry="14.43"/><ellipse class="cls-181" cx="404.47" cy="830.41" rx="168.43" ry="14.35"/><ellipse class="cls-135" cx="404.47" cy="830.41" rx="167.5" ry="14.27"/><ellipse class="cls-197" cx="404.47" cy="830.41" rx="166.58" ry="14.2"/><ellipse class="cls-173" cx="404.47" cy="830.41" rx="165.65" ry="14.12"/><ellipse class="cls-56" cx="404.47" cy="830.41" rx="164.73" ry="14.04"/><ellipse class="cls-165" cx="404.47" cy="830.41" rx="163.8" ry="13.96"/><ellipse class="cls-48" cx="404.47" cy="830.41" rx="162.88" ry="13.88"/><ellipse class="cls-115" cx="404.47" cy="830.41" rx="161.95" ry="13.8"/><ellipse class="cls-25" cx="404.47" cy="830.41" rx="161.03" ry="13.72"/><ellipse class="cls-107" cx="404.47" cy="830.41" rx="160.1" ry="13.64"/><ellipse class="cls-46" cx="404.47" cy="830.41" rx="159.18" ry="13.56"/><ellipse class="cls-4" cx="404.47" cy="830.41" rx="158.25" ry="13.49"/><ellipse class="cls-203" cx="404.47" cy="830.41" rx="157.32" ry="13.41"/><ellipse class="cls-118" cx="404.47" cy="830.41" rx="156.4" ry="13.33"/><ellipse class="cls-54" cx="404.47" cy="830.41" rx="155.47" ry="13.25"/><ellipse class="cls-7" cx="404.47" cy="830.41" rx="154.55" ry="13.17"/><ellipse class="cls-190" cx="404.47" cy="830.41" rx="153.62" ry="13.09"/><ellipse class="cls-45" cx="404.47" cy="830.41" rx="152.7" ry="13.01"/><ellipse class="cls-83" cx="404.47" cy="830.41" rx="151.77" ry="12.93"/><ellipse class="cls-169" cx="404.47" cy="830.41" rx="150.85" ry="12.85"/><ellipse class="cls-153" cx="404.47" cy="830.41" rx="149.92" ry="12.78"/><ellipse class="cls-211" cx="404.47" cy="830.41" rx="149" ry="12.7"/><ellipse class="cls-220" cx="404.47" cy="830.41" rx="148.07" ry="12.62"/><ellipse class="cls-184" cx="404.47" cy="830.41" rx="147.14" ry="12.54"/><ellipse class="cls-16" cx="404.47" cy="830.41" rx="146.22" ry="12.46"/><ellipse class="cls-140" cx="404.47" cy="830.41" rx="145.29" ry="12.38"/><ellipse class="cls-127" cx="404.47" cy="830.41" rx="144.37" ry="12.3"/><ellipse class="cls-128" cx="404.47" cy="830.41" rx="143.44" ry="12.22"/><ellipse class="cls-98" cx="404.47" cy="830.41" rx="142.52" ry="12.14"/><ellipse class="cls-143" cx="404.47" cy="830.41" rx="141.59" ry="12.07"/><ellipse class="cls-106" cx="404.47" cy="830.41" rx="140.67" ry="11.99"/><ellipse class="cls-64" cx="404.47" cy="830.41" rx="139.74" ry="11.91"/><ellipse class="cls-187" cx="404.47" cy="830.41" rx="138.82" ry="11.83"/><ellipse class="cls-171" cx="404.47" cy="830.41" rx="137.89" ry="11.75"/><ellipse class="cls-15" cx="404.47" cy="830.41" rx="136.96" ry="11.67"/><ellipse class="cls-120" cx="404.47" cy="830.41" rx="136.04" ry="11.59"/><ellipse class="cls-57" cx="404.47" cy="830.41" rx="135.11" ry="11.51"/><ellipse class="cls-50" cx="404.47" cy="830.41" rx="134.19" ry="11.44"/><ellipse class="cls-103" cx="404.47" cy="830.41" rx="133.26" ry="11.36"/><ellipse class="cls-63" cx="404.47" cy="830.41" rx="132.34" ry="11.28"/><ellipse class="cls-94" cx="404.47" cy="830.41" rx="131.41" ry="11.2"/><ellipse class="cls-185" cx="404.47" cy="830.41" rx="130.49" ry="11.12"/><ellipse class="cls-109" cx="404.47" cy="830.41" rx="129.56" ry="11.04"/><ellipse class="cls-215" cx="404.47" cy="830.41" rx="128.64" ry="10.96"/><ellipse class="cls-31" cx="404.47" cy="830.41" rx="127.71" ry="10.88"/><ellipse class="cls-191" cx="404.47" cy="830.41" rx="126.78" ry="10.8"/><ellipse class="cls-65" cx="404.47" cy="830.41" rx="125.86" ry="10.73"/><ellipse class="cls-79" cx="404.47" cy="830.41" rx="124.93" ry="10.65"/><ellipse class="cls-21" cx="404.47" cy="830.41" rx="124.01" ry="10.57"/><ellipse class="cls-119" cx="404.47" cy="830.41" rx="123.08" ry="10.49"/><ellipse class="cls-141" cx="404.47" cy="830.41" rx="122.16" ry="10.41"/><ellipse class="cls-216" cx="404.47" cy="830.41" rx="121.23" ry="10.33"/><ellipse class="cls-84" cx="404.47" cy="830.41" rx="120.31" ry="10.25"/><ellipse class="cls-175" cx="404.47" cy="830.41" rx="119.38" ry="10.17"/><ellipse class="cls-82" cx="404.47" cy="830.41" rx="118.46" ry="10.09"/><ellipse class="cls-112" cx="404.47" cy="830.41" rx="117.53" ry="10.02"/><ellipse class="cls-202" cx="404.47" cy="830.41" rx="116.61" ry="9.94"/><ellipse class="cls-104" cx="404.47" cy="830.41" rx="115.68" ry="9.86"/><ellipse class="cls-204" cx="404.47" cy="830.41" rx="114.75" ry="9.78"/><ellipse class="cls-32" cx="404.47" cy="830.41" rx="113.83" ry="9.7"/><ellipse class="cls-180" cx="404.47" cy="830.41" rx="112.9" ry="9.62"/><ellipse class="cls-89" cx="404.47" cy="830.41" rx="111.98" ry="9.54"/><ellipse class="cls-37" cx="404.47" cy="830.41" rx="111.05" ry="9.46"/><ellipse class="cls-88" cx="404.47" cy="830.41" rx="110.13" ry="9.38"/><ellipse class="cls-41" cx="404.47" cy="830.41" rx="109.2" ry="9.31"/><ellipse class="cls-157" cx="404.47" cy="830.41" rx="108.28" ry="9.23"/><ellipse class="cls-219" cx="404.47" cy="830.41" rx="107.35" ry="9.15"/><ellipse class="cls-161" cx="404.47" cy="830.41" rx="106.43" ry="9.07"/><ellipse class="cls-163" cx="404.47" cy="830.41" rx="105.5" ry="8.99"/><ellipse class="cls-102" cx="404.47" cy="830.41" rx="104.57" ry="8.91"/><ellipse class="cls-155" cx="404.47" cy="830.41" rx="103.65" ry="8.83"/><ellipse class="cls-149" cx="404.47" cy="830.41" rx="102.72" ry="8.75"/><ellipse class="cls-58" cx="404.47" cy="830.41" rx="101.8" ry="8.67"/><ellipse class="cls-42" cx="404.47" cy="830.41" rx="100.87" ry="8.6"/><ellipse class="cls-8" cx="404.47" cy="830.41" rx="99.95" ry="8.52"/><ellipse class="cls-121" cx="404.47" cy="830.41" rx="99.02" ry="8.44"/><ellipse class="cls-148" cx="404.47" cy="830.41" rx="98.1" ry="8.36"/><ellipse class="cls-61" cx="404.47" cy="830.41" rx="97.17" ry="8.28"/><ellipse class="cls-72" cx="404.47" cy="830.41" rx="96.25" ry="8.2"/><ellipse class="cls-1" cx="404.47" cy="830.41" rx="95.32" ry="8.12"/><ellipse class="cls-86" cx="404.47" cy="830.41" rx="94.39" ry="8.04"/><ellipse class="cls-164" cx="404.47" cy="830.41" rx="93.47" ry="7.97"/><ellipse class="cls-43" cx="404.47" cy="830.41" rx="92.54" ry="7.89"/><ellipse class="cls-210" cx="404.47" cy="830.41" rx="91.62" ry="7.81"/><ellipse class="cls-24" cx="404.47" cy="830.41" rx="90.69" ry="7.73"/><ellipse class="cls-95" cx="404.47" cy="830.41" rx="89.77" ry="7.65"/><ellipse class="cls-136" cx="404.47" cy="830.41" rx="88.84" ry="7.57"/><ellipse class="cls-92" cx="404.47" cy="830.41" rx="87.92" ry="7.49"/><ellipse class="cls-218" cx="404.47" cy="830.41" rx="86.99" ry="7.41"/><ellipse class="cls-137" cx="404.47" cy="830.41" rx="86.07" ry="7.33"/><ellipse class="cls-144" cx="404.47" cy="830.41" rx="85.14" ry="7.26"/><ellipse class="cls-122" cx="404.47" cy="830.41" rx="84.21" ry="7.18"/><ellipse class="cls-195" cx="404.47" cy="830.41" rx="83.29" ry="7.1"/><ellipse class="cls-186" cx="404.47" cy="830.41" rx="82.36" ry="7.02"/><ellipse class="cls-19" cx="404.47" cy="830.41" rx="81.44" ry="6.94"/><ellipse class="cls-152" cx="404.47" cy="830.41" rx="80.51" ry="6.86"/><ellipse class="cls-74" cx="404.47" cy="830.41" rx="79.59" ry="6.78"/><ellipse class="cls-51" cx="404.47" cy="830.41" rx="78.66" ry="6.7"/><ellipse class="cls-117" cx="404.47" cy="830.41" rx="77.74" ry="6.62"/><ellipse class="cls-189" cx="404.47" cy="830.41" rx="76.81" ry="6.55"/><ellipse class="cls-133" cx="404.47" cy="830.41" rx="75.89" ry="6.47"/><ellipse class="cls-105" cx="404.47" cy="830.41" rx="74.96" ry="6.39"/><ellipse class="cls-130" cx="404.47" cy="830.41" rx="74.03" ry="6.31"/><ellipse class="cls-224" cx="404.47" cy="830.41" rx="73.11" ry="6.23"/><ellipse class="cls-100" cx="404.47" cy="830.41" rx="72.18" ry="6.15"/><ellipse class="cls-14" cx="404.47" cy="830.41" rx="71.26" ry="6.07"/><ellipse class="cls-60" cx="404.47" cy="830.41" rx="70.33" ry="5.99"/><ellipse class="cls-52" cx="404.47" cy="830.41" rx="69.41" ry="5.91"/><ellipse class="cls-73" cx="404.47" cy="830.41" rx="68.48" ry="5.84"/><ellipse class="cls-29" cx="404.47" cy="830.41" rx="67.56" ry="5.76"/><ellipse class="cls-22" cx="404.47" cy="830.41" rx="66.63" ry="5.68"/><ellipse class="cls-33" cx="404.47" cy="830.41" rx="65.71" ry="5.6"/><ellipse class="cls-77" cx="404.47" cy="830.41" rx="64.78" ry="5.52"/><ellipse class="cls-81" cx="404.47" cy="830.41" rx="63.86" ry="5.44"/><ellipse class="cls-34" cx="404.47" cy="830.41" rx="62.93" ry="5.36"/><ellipse class="cls-217" cx="404.47" cy="830.41" rx="62" ry="5.28"/><ellipse class="cls-55" cx="404.47" cy="830.41" rx="61.08" ry="5.2"/><ellipse class="cls-85" cx="404.47" cy="830.41" rx="60.15" ry="5.13"/><ellipse class="cls-159" cx="404.47" cy="830.41" rx="59.23" ry="5.05"/><ellipse class="cls-174" cx="404.47" cy="830.41" rx="58.3" ry="4.97"/><ellipse class="cls-207" cx="404.47" cy="830.41" rx="57.38" ry="4.89"/><ellipse class="cls-172" cx="404.47" cy="830.41" rx="56.45" ry="4.81"/><ellipse class="cls-126" cx="404.47" cy="830.41" rx="55.53" ry="4.73"/><ellipse class="cls-76" cx="404.47" cy="830.41" rx="54.6" ry="4.65"/><ellipse class="cls-67" cx="404.47" cy="830.41" rx="53.68" ry="4.57"/><ellipse class="cls-212" cx="404.47" cy="830.41" rx="52.75" ry="4.5"/><ellipse class="cls-145" cx="404.47" cy="830.41" rx="51.82" ry="4.42"/><ellipse class="cls-18" cx="404.47" cy="830.41" rx="50.9" ry="4.34"/><ellipse class="cls-70" cx="404.47" cy="830.41" rx="49.97" ry="4.26"/><ellipse class="cls-201" cx="404.47" cy="830.41" rx="49.05" ry="4.18"/><ellipse class="cls-110" cx="404.47" cy="830.41" rx="48.12" ry="4.1"/><ellipse class="cls-68" cx="404.47" cy="830.41" rx="47.2" ry="4.02"/><ellipse class="cls-38" cx="404.47" cy="830.41" rx="46.27" ry="3.94"/><ellipse class="cls-75" cx="404.47" cy="830.41" rx="45.35" ry="3.86"/><ellipse class="cls-90" cx="404.47" cy="830.41" rx="44.42" ry="3.79"/><ellipse class="cls-147" cx="404.47" cy="830.41" rx="43.5" ry="3.71"/><ellipse class="cls-227" cx="404.47" cy="830.41" rx="42.57" ry="3.63"/><ellipse class="cls-59" cx="404.47" cy="830.41" rx="41.64" ry="3.55"/><ellipse class="cls-111" cx="404.47" cy="830.41" rx="40.72" ry="3.47"/><ellipse class="cls-23" cx="404.47" cy="830.41" rx="39.79" ry="3.39"/><ellipse class="cls-206" cx="404.47" cy="830.41" rx="38.87" ry="3.31"/><ellipse class="cls-87" cx="404.47" cy="830.41" rx="37.94" ry="3.23"/><ellipse class="cls-170" cx="404.47" cy="830.41" rx="37.02" ry="3.15"/><ellipse class="cls-178" cx="404.47" cy="830.41" rx="36.09" ry="3.08"/><ellipse class="cls-213" cx="404.47" cy="830.41" rx="35.17" ry="3"/><ellipse class="cls-156" cx="404.47" cy="830.41" rx="34.24" ry="2.92"/><ellipse class="cls-125" cx="404.47" cy="830.41" rx="33.32" ry="2.84"/><ellipse class="cls-114" cx="404.47" cy="830.41" rx="32.39" ry="2.76"/><ellipse class="cls-162" cx="404.47" cy="830.41" rx="31.46" ry="2.68"/><ellipse class="cls-13" cx="404.47" cy="830.41" rx="30.54" ry="2.6"/><ellipse class="cls-27" cx="404.47" cy="830.41" rx="29.61" ry="2.52"/><ellipse class="cls-78" cx="404.47" cy="830.41" rx="28.69" ry="2.44"/><ellipse class="cls-36" cx="404.47" cy="830.41" rx="27.76" ry="2.37"/><ellipse class="cls-71" cx="404.47" cy="830.41" rx="26.84" ry="2.29"/><ellipse class="cls-154" cx="404.47" cy="830.41" rx="25.91" ry="2.21"/><ellipse class="cls-69" cx="404.47" cy="830.41" rx="24.99" ry="2.13"/><ellipse class="cls-44" cx="404.47" cy="830.41" rx="24.06" ry="2.05"/><ellipse class="cls-97" cx="404.47" cy="830.41" rx="23.14" ry="1.97"/><ellipse class="cls-176" cx="404.47" cy="830.41" rx="22.21" ry="1.89"/><ellipse class="cls-91" cx="404.47" cy="830.41" rx="21.29" ry="1.81"/><ellipse class="cls-26" cx="404.47" cy="830.41" rx="20.36" ry="1.73"/><ellipse class="cls-2" cx="404.47" cy="830.41" rx="19.43" ry="1.66"/><ellipse class="cls-193" cx="404.47" cy="830.41" rx="18.51" ry="1.58"/><ellipse class="cls-108" cx="404.47" cy="830.41" rx="17.58" ry="1.5"/><ellipse class="cls-199" cx="404.47" cy="830.41" rx="16.66" ry="1.42"/><ellipse class="cls-177" cx="404.47" cy="830.41" rx="15.73" ry="1.34"/><ellipse class="cls-53" cx="404.47" cy="830.41" rx="14.81" ry="1.26"/><ellipse class="cls-139" cx="404.47" cy="830.41" rx="13.88" ry="1.18"/><ellipse class="cls-183" cx="404.47" cy="830.41" rx="12.96" ry="1.1"/><ellipse class="cls-209" cx="404.47" cy="830.41" rx="12.03" ry="1.03"/><ellipse class="cls-62" cx="404.47" cy="830.41" rx="11.11" ry=".95"/><ellipse class="cls-221" cx="404.47" cy="830.41" rx="10.18" ry=".87"/><ellipse class="cls-47" cx="404.47" cy="830.41" rx="9.25" ry=".79"/><ellipse class="cls-12" cx="404.47" cy="830.41" rx="8.33" ry=".71"/><ellipse class="cls-101" cx="404.47" cy="830.41" rx="7.4" ry=".63"/><ellipse class="cls-166" cx="404.47" cy="830.41" rx="6.48" ry=".55"/><ellipse class="cls-49" cx="404.47" cy="830.41" rx="5.55" ry=".47"/><ellipse class="cls-192" cx="404.47" cy="830.41" rx="4.63" ry=".39"/><ellipse class="cls-138" cx="404.47" cy="830.41" rx="3.7" ry=".32"/><ellipse class="cls-179" cx="404.47" cy="830.41" rx="2.78" ry=".24"/><ellipse class="cls-11" cx="404.47" cy="830.41" rx="1.85" ry=".16"/><ellipse class="cls-205" cx="404.47" cy="830.41" rx=".93" ry=".08"/></g></g></svg>